SplineFontDB: 3.0
FontName: ARFontsS
FullName: ARFontsS
FamilyName: ARFontsS
Weight: Medium
Copyright: Created by Satoshi MITANI,,, with FontForge 2.0 (http://fontforge.sf.net)
UComments: "2014-2-13: Created." 
Version: 001.000
ItalicAngle: 0
UnderlinePosition: -51.2
UnderlineWidth: 25.6
Ascent: 410
Descent: 102
LayerCount: 2
Layer: 0 0 "+gMyXYgAA"  1
Layer: 1 0 "+Uk2XYgAA"  0
NeedsXUIDChange: 1
XUID: [1021 921 582314744 11265466]
OS2Version: 0
OS2_WeightWidthSlopeOnly: 0
OS2_UseTypoMetrics: 1
CreationTime: 1392302860
ModificationTime: 1392304400
OS2TypoAscent: 0
OS2TypoAOffset: 1
OS2TypoDescent: 0
OS2TypoDOffset: 1
OS2TypoLinegap: 0
OS2WinAscent: 0
OS2WinAOffset: 1
OS2WinDescent: 0
OS2WinDOffset: 1
HheadAscent: 0
HheadAOffset: 1
HheadDescent: 0
HheadDOffset: 1
OS2Vendor: 'PfEd'
MarkAttachClasses: 1
DEI: 91125
Encoding: UnicodeBmp
UnicodeInterp: none
NameList: Adobe Glyph List
DisplaySize: -24
AntiAlias: 1
FitToEm: 1
WidthSeparation: 77
WinInfo: 12320 35 11
BeginPrivate: 0
EndPrivate
BeginChars: 65536 169

StartChar: uni3050
Encoding: 12368 12368 0
Width: 589
VWidth: 0
Flags: HW
LayerCount: 2
Back
Fore
SplineSet
39 154 m 1
 39 410 l 1
 295 410 l 1
 551 410 l 1
 551 154 l 1
 551 -102 l 1
 295 -102 l 1
 39 -102 l 1
 39 154 l 1
475.906 261.52 m 1
 475.906 333.2 l 1
 295.854 333.2 l 1
 115.8 333.2 l 1
 115.8 297.36 l 1
 115.8 261.52 l 1
 151.64 261.52 l 1
 187.48 261.52 l 1
 187.48 225.68 l 1
 187.48 189.84 l 1
 151.64 189.84 l 1
 115.8 189.84 l 1
 115.8 154 l 1
 115.8 118.16 l 1
 151.64 118.16 l 1
 187.48 118.16 l 1
 187.48 82.3203 l 1
 187.48 46.4805 l 1
 151.64 46.4805 l 1
 115.8 46.4805 l 1
 115.8 9.78711 l 1
 115.8 -26.9062 l 1
 151.64 -26.9062 l 1
 187.48 -26.9062 l 1
 187.48 9.78711 l 1
 187.48 46.4805 l 1
 223.32 46.4805 l 1
 259.16 46.4805 l 1
 259.16 9.78711 l 1
 259.16 -26.9062 l 1
 295 -26.9062 l 1
 330.84 -26.9062 l 1
 330.84 45.627 l 1
 330.84 118.16 l 1
 366.68 118.16 l 1
 402.52 118.16 l 1
 402.52 45.627 l 1
 402.52 -26.9062 l 1
 439.213 -26.9062 l 1
 475.906 -26.9062 l 1
 475.906 45.627 l 1
 475.906 118.16 l 1
 439.213 118.16 l 1
 402.52 118.16 l 1
 402.52 154 l 1
 402.52 189.84 l 1
 439.213 189.84 l 1
 475.906 189.84 l 1
 475.906 261.52 l 1
EndSplineSet
EndChar

StartChar: uni306F
Encoding: 12399 12399 1
Width: 589
VWidth: 0
Flags: HW
LayerCount: 2
Back
Fore
SplineSet
259.16 82.3203 m 1
 259.16 118.16 l 1
 295 118.16 l 1
 330.84 118.16 l 1
 330.84 82.3203 l 1
 330.84 46.4805 l 1
 295 46.4805 l 1
 259.16 46.4805 l 1
 259.16 82.3203 l 1
39 154 m 1
 39 410 l 1
 295 410 l 1
 551 410 l 1
 551 154 l 1
 551 -102 l 1
 295 -102 l 1
 39 -102 l 1
 39 154 l 1
475.906 261.52 m 1
 475.906 333.2 l 1
 295.854 333.2 l 1
 115.8 333.2 l 1
 115.8 297.36 l 1
 115.8 261.52 l 1
 259.16 261.52 l 1
 402.52 261.52 l 1
 402.52 225.68 l 1
 402.52 189.84 l 1
 439.213 189.84 l 1
 475.906 189.84 l 1
 475.906 261.52 l 1
330.84 154 m 1
 330.84 189.84 l 1
 223.32 189.84 l 1
 115.8 189.84 l 1
 115.8 154 l 1
 115.8 118.16 l 1
 151.64 118.16 l 1
 187.48 118.16 l 1
 187.48 82.3203 l 1
 187.48 46.4805 l 1
 151.64 46.4805 l 1
 115.8 46.4805 l 1
 115.8 9.78711 l 1
 115.8 -26.9062 l 1
 151.64 -26.9062 l 1
 187.48 -26.9062 l 1
 187.48 9.78711 l 1
 187.48 46.4805 l 1
 223.32 46.4805 l 1
 259.16 46.4805 l 1
 259.16 9.78711 l 1
 259.16 -26.9062 l 1
 295 -26.9062 l 1
 330.84 -26.9062 l 1
 330.84 9.78711 l 1
 330.84 46.4805 l 1
 366.68 46.4805 l 1
 402.52 46.4805 l 1
 402.52 9.78711 l 1
 402.52 -26.9062 l 1
 439.213 -26.9062 l 1
 475.906 -26.9062 l 1
 475.906 9.78711 l 1
 475.906 46.4805 l 1
 439.213 46.4805 l 1
 402.52 46.4805 l 1
 402.52 82.3203 l 1
 402.52 118.16 l 1
 366.68 118.16 l 1
 330.84 118.16 l 1
 330.84 154 l 1
EndSplineSet
EndChar

StartChar: uni30F1
Encoding: 12529 12529 2
Width: 589
VWidth: 0
Flags: HW
LayerCount: 2
Back
Fore
SplineSet
187.48 154 m 1
 187.48 189.84 l 1
 223.32 189.84 l 1
 259.16 189.84 l 1
 259.16 154 l 1
 259.16 118.16 l 1
 295 118.16 l 1
 330.84 118.16 l 1
 330.84 82.3203 l 1
 330.84 46.4805 l 1
 295 46.4805 l 1
 259.16 46.4805 l 1
 259.16 82.3203 l 1
 259.16 118.16 l 1
 223.32 118.16 l 1
 187.48 118.16 l 1
 187.48 154 l 1
39 154 m 1
 39 410 l 1
 295 410 l 1
 551 410 l 1
 551 154 l 1
 551 -102 l 1
 295 -102 l 1
 39 -102 l 1
 39 154 l 1
475.906 297.36 m 1
 475.906 333.2 l 1
 295.854 333.2 l 1
 115.8 333.2 l 1
 115.8 297.36 l 1
 115.8 261.52 l 1
 151.64 261.52 l 1
 187.48 261.52 l 1
 187.48 225.68 l 1
 187.48 189.84 l 1
 151.64 189.84 l 1
 115.8 189.84 l 1
 115.8 154 l 1
 115.8 118.16 l 1
 151.64 118.16 l 1
 187.48 118.16 l 1
 187.48 82.3203 l 1
 187.48 46.4805 l 1
 151.64 46.4805 l 1
 115.8 46.4805 l 1
 115.8 9.78711 l 1
 115.8 -26.9062 l 1
 151.64 -26.9062 l 1
 187.48 -26.9062 l 1
 187.48 9.78711 l 1
 187.48 46.4805 l 1
 223.32 46.4805 l 1
 259.16 46.4805 l 1
 259.16 9.78711 l 1
 259.16 -26.9062 l 1
 295 -26.9062 l 1
 330.84 -26.9062 l 1
 330.84 9.78711 l 1
 330.84 46.4805 l 1
 366.68 46.4805 l 1
 402.52 46.4805 l 1
 402.52 9.78711 l 1
 402.52 -26.9062 l 1
 439.213 -26.9062 l 1
 475.906 -26.9062 l 1
 475.906 45.627 l 1
 475.906 118.16 l 1
 439.213 118.16 l 1
 402.52 118.16 l 1
 402.52 154 l 1
 402.52 189.84 l 1
 366.68 189.84 l 1
 330.84 189.84 l 1
 330.84 225.68 l 1
 330.84 261.52 l 1
 403.373 261.52 l 1
 475.906 261.52 l 1
 475.906 297.36 l 1
EndSplineSet
EndChar

StartChar: uni30D3
Encoding: 12499 12499 3
Width: 589
VWidth: 0
Flags: HW
LayerCount: 2
Back
Fore
SplineSet
187.48 154 m 1
 187.48 189.84 l 1
 223.32 189.84 l 1
 259.16 189.84 l 1
 259.16 154 l 1
 259.16 118.16 l 1
 223.32 118.16 l 1
 187.48 118.16 l 1
 187.48 154 l 1
39 154 m 1
 39 410 l 1
 295 410 l 1
 551 410 l 1
 551 154 l 1
 551 -102 l 1
 295 -102 l 1
 39 -102 l 1
 39 154 l 1
475.906 297.36 m 1
 475.906 333.2 l 1
 295.854 333.2 l 1
 115.8 333.2 l 1
 115.8 297.36 l 1
 115.8 261.52 l 1
 151.64 261.52 l 1
 187.48 261.52 l 1
 187.48 225.68 l 1
 187.48 189.84 l 1
 151.64 189.84 l 1
 115.8 189.84 l 1
 115.8 154 l 1
 115.8 118.16 l 1
 151.64 118.16 l 1
 187.48 118.16 l 1
 187.48 82.3203 l 1
 187.48 46.4805 l 1
 151.64 46.4805 l 1
 115.8 46.4805 l 1
 115.8 9.78711 l 1
 115.8 -26.9062 l 1
 151.64 -26.9062 l 1
 187.48 -26.9062 l 1
 187.48 9.78711 l 1
 187.48 46.4805 l 1
 223.32 46.4805 l 1
 259.16 46.4805 l 1
 259.16 9.78711 l 1
 259.16 -26.9062 l 1
 295 -26.9062 l 1
 330.84 -26.9062 l 1
 330.84 9.78711 l 1
 330.84 46.4805 l 1
 366.68 46.4805 l 1
 402.52 46.4805 l 1
 402.52 9.78711 l 1
 402.52 -26.9062 l 1
 439.213 -26.9062 l 1
 475.906 -26.9062 l 1
 475.906 81.4668 l 1
 475.906 189.84 l 1
 367.533 189.84 l 1
 259.16 189.84 l 1
 259.16 225.68 l 1
 259.16 261.52 l 1
 367.533 261.52 l 1
 475.906 261.52 l 1
 475.906 297.36 l 1
EndSplineSet
EndChar

StartChar: uni30B0
Encoding: 12464 12464 4
Width: 589
VWidth: 0
Flags: HW
LayerCount: 2
Back
Fore
SplineSet
39 154 m 1
 39 410 l 1
 295 410 l 1
 551 410 l 1
 551 154 l 1
 551 -102 l 1
 295 -102 l 1
 39 -102 l 1
 39 154 l 1
475.906 297.36 m 1
 475.906 333.2 l 1
 295.854 333.2 l 1
 115.8 333.2 l 1
 115.8 297.36 l 1
 115.8 261.52 l 1
 223.32 261.52 l 1
 330.84 261.52 l 1
 330.84 225.68 l 1
 330.84 189.84 l 1
 223.32 189.84 l 1
 115.8 189.84 l 1
 115.8 154 l 1
 115.8 118.16 l 1
 223.32 118.16 l 1
 330.84 118.16 l 1
 330.84 82.3203 l 1
 330.84 46.4805 l 1
 295 46.4805 l 1
 259.16 46.4805 l 1
 259.16 9.78711 l 1
 259.16 -26.9062 l 1
 295 -26.9062 l 1
 330.84 -26.9062 l 1
 330.84 9.78711 l 1
 330.84 46.4805 l 1
 366.68 46.4805 l 1
 402.52 46.4805 l 1
 402.52 9.78711 l 1
 402.52 -26.9062 l 1
 439.213 -26.9062 l 1
 475.906 -26.9062 l 1
 475.906 81.4668 l 1
 475.906 189.84 l 1
 439.213 189.84 l 1
 402.52 189.84 l 1
 402.52 225.68 l 1
 402.52 261.52 l 1
 439.213 261.52 l 1
 475.906 261.52 l 1
 475.906 297.36 l 1
187.48 9.78711 m 1
 187.48 46.4805 l 1
 151.64 46.4805 l 1
 115.8 46.4805 l 1
 115.8 9.78711 l 1
 115.8 -26.9062 l 1
 151.64 -26.9062 l 1
 187.48 -26.9062 l 1
 187.48 9.78711 l 1
EndSplineSet
EndChar

StartChar: uni3073
Encoding: 12403 12403 5
Width: 589
VWidth: 0
Flags: HW
LayerCount: 2
Back
Fore
SplineSet
39 154 m 1
 39 410 l 1
 295 410 l 1
 551 410 l 1
 551 154 l 1
 551 -102 l 1
 295 -102 l 1
 39 -102 l 1
 39 154 l 1
475.906 261.52 m 1
 475.906 333.2 l 1
 295.854 333.2 l 1
 115.8 333.2 l 1
 115.8 297.36 l 1
 115.8 261.52 l 1
 223.32 261.52 l 1
 330.84 261.52 l 1
 330.84 225.68 l 1
 330.84 189.84 l 1
 223.32 189.84 l 1
 115.8 189.84 l 1
 115.8 154 l 1
 115.8 118.16 l 1
 151.64 118.16 l 1
 187.48 118.16 l 1
 187.48 82.3203 l 1
 187.48 46.4805 l 1
 151.64 46.4805 l 1
 115.8 46.4805 l 1
 115.8 9.78711 l 1
 115.8 -26.9062 l 1
 151.64 -26.9062 l 1
 187.48 -26.9062 l 1
 187.48 9.78711 l 1
 187.48 46.4805 l 1
 223.32 46.4805 l 1
 259.16 46.4805 l 1
 259.16 9.78711 l 1
 259.16 -26.9062 l 1
 295 -26.9062 l 1
 330.84 -26.9062 l 1
 330.84 9.78711 l 1
 330.84 46.4805 l 1
 295 46.4805 l 1
 259.16 46.4805 l 1
 259.16 82.3203 l 1
 259.16 118.16 l 1
 330.84 118.16 l 1
 402.52 118.16 l 1
 402.52 45.627 l 1
 402.52 -26.9062 l 1
 439.213 -26.9062 l 1
 475.906 -26.9062 l 1
 475.906 45.627 l 1
 475.906 118.16 l 1
 439.213 118.16 l 1
 402.52 118.16 l 1
 402.52 154 l 1
 402.52 189.84 l 1
 439.213 189.84 l 1
 475.906 189.84 l 1
 475.906 261.52 l 1
EndSplineSet
EndChar

StartChar: uni30EF
Encoding: 12527 12527 6
Width: 589
VWidth: 0
Flags: HW
LayerCount: 2
Back
Fore
SplineSet
259.16 225.68 m 1
 259.16 261.52 l 1
 295 261.52 l 1
 330.84 261.52 l 1
 330.84 225.68 l 1
 330.84 189.84 l 1
 295 189.84 l 1
 259.16 189.84 l 1
 259.16 154 l 1
 259.16 118.16 l 1
 295 118.16 l 1
 330.84 118.16 l 1
 330.84 82.3203 l 1
 330.84 46.4805 l 1
 295 46.4805 l 1
 259.16 46.4805 l 1
 259.16 82.3203 l 1
 259.16 118.16 l 1
 223.32 118.16 l 1
 187.48 118.16 l 1
 187.48 154 l 1
 187.48 189.84 l 1
 223.32 189.84 l 1
 259.16 189.84 l 1
 259.16 225.68 l 1
39 154 m 1
 39 410 l 1
 295 410 l 1
 551 410 l 1
 551 154 l 1
 551 -102 l 1
 295 -102 l 1
 39 -102 l 1
 39 154 l 1
475.906 297.36 m 1
 475.906 333.2 l 1
 295.854 333.2 l 1
 115.8 333.2 l 1
 115.8 297.36 l 1
 115.8 261.52 l 1
 151.64 261.52 l 1
 187.48 261.52 l 1
 187.48 225.68 l 1
 187.48 189.84 l 1
 151.64 189.84 l 1
 115.8 189.84 l 1
 115.8 154 l 1
 115.8 118.16 l 1
 151.64 118.16 l 1
 187.48 118.16 l 1
 187.48 82.3203 l 1
 187.48 46.4805 l 1
 151.64 46.4805 l 1
 115.8 46.4805 l 1
 115.8 9.78711 l 1
 115.8 -26.9062 l 1
 151.64 -26.9062 l 1
 187.48 -26.9062 l 1
 187.48 9.78711 l 1
 187.48 46.4805 l 1
 223.32 46.4805 l 1
 259.16 46.4805 l 1
 259.16 9.78711 l 1
 259.16 -26.9062 l 1
 295 -26.9062 l 1
 330.84 -26.9062 l 1
 330.84 9.78711 l 1
 330.84 46.4805 l 1
 366.68 46.4805 l 1
 402.52 46.4805 l 1
 402.52 9.78711 l 1
 402.52 -26.9062 l 1
 439.213 -26.9062 l 1
 475.906 -26.9062 l 1
 475.906 81.4668 l 1
 475.906 189.84 l 1
 439.213 189.84 l 1
 402.52 189.84 l 1
 402.52 225.68 l 1
 402.52 261.52 l 1
 439.213 261.52 l 1
 475.906 261.52 l 1
 475.906 297.36 l 1
EndSplineSet
EndChar

StartChar: uni30DF
Encoding: 12511 12511 7
Width: 589
VWidth: 0
Flags: HW
LayerCount: 2
Back
Fore
SplineSet
259.16 225.68 m 1
 259.16 261.52 l 1
 295 261.52 l 1
 330.84 261.52 l 1
 330.84 225.68 l 1
 330.84 189.84 l 1
 295 189.84 l 1
 259.16 189.84 l 1
 259.16 154 l 1
 259.16 118.16 l 1
 223.32 118.16 l 1
 187.48 118.16 l 1
 187.48 154 l 1
 187.48 189.84 l 1
 223.32 189.84 l 1
 259.16 189.84 l 1
 259.16 225.68 l 1
39 154 m 1
 39 410 l 1
 295 410 l 1
 551 410 l 1
 551 154 l 1
 551 -102 l 1
 295 -102 l 1
 39 -102 l 1
 39 154 l 1
475.906 297.36 m 1
 475.906 333.2 l 1
 295.854 333.2 l 1
 115.8 333.2 l 1
 115.8 297.36 l 1
 115.8 261.52 l 1
 151.64 261.52 l 1
 187.48 261.52 l 1
 187.48 225.68 l 1
 187.48 189.84 l 1
 151.64 189.84 l 1
 115.8 189.84 l 1
 115.8 154 l 1
 115.8 118.16 l 1
 151.64 118.16 l 1
 187.48 118.16 l 1
 187.48 82.3203 l 1
 187.48 46.4805 l 1
 151.64 46.4805 l 1
 115.8 46.4805 l 1
 115.8 9.78711 l 1
 115.8 -26.9062 l 1
 151.64 -26.9062 l 1
 187.48 -26.9062 l 1
 187.48 9.78711 l 1
 187.48 46.4805 l 1
 223.32 46.4805 l 1
 259.16 46.4805 l 1
 259.16 9.78711 l 1
 259.16 -26.9062 l 1
 295 -26.9062 l 1
 330.84 -26.9062 l 1
 330.84 45.627 l 1
 330.84 118.16 l 1
 366.68 118.16 l 1
 402.52 118.16 l 1
 402.52 189.84 l 1
 402.52 261.52 l 1
 439.213 261.52 l 1
 475.906 261.52 l 1
 475.906 297.36 l 1
475.906 9.78711 m 1
 475.906 46.4805 l 1
 439.213 46.4805 l 1
 402.52 46.4805 l 1
 402.52 9.78711 l 1
 402.52 -26.9062 l 1
 439.213 -26.9062 l 1
 475.906 -26.9062 l 1
 475.906 9.78711 l 1
EndSplineSet
EndChar

StartChar: uni3063
Encoding: 12387 12387 8
Width: 589
VWidth: 0
Flags: HW
LayerCount: 2
Back
Fore
SplineSet
259.16 82.3203 m 1
 259.16 118.16 l 1
 295 118.16 l 1
 330.84 118.16 l 1
 330.84 82.3203 l 1
 330.84 46.4805 l 1
 295 46.4805 l 1
 259.16 46.4805 l 1
 259.16 82.3203 l 1
39 154 m 1
 39 410 l 1
 295 410 l 1
 551 410 l 1
 551 154 l 1
 551 -102 l 1
 295 -102 l 1
 39 -102 l 1
 39 154 l 1
475.906 153.146 m 1
 475.906 333.2 l 1
 295.854 333.2 l 1
 115.8 333.2 l 1
 115.8 297.36 l 1
 115.8 261.52 l 1
 223.32 261.52 l 1
 330.84 261.52 l 1
 330.84 225.68 l 1
 330.84 189.84 l 1
 223.32 189.84 l 1
 115.8 189.84 l 1
 115.8 154 l 1
 115.8 118.16 l 1
 151.64 118.16 l 1
 187.48 118.16 l 1
 187.48 82.3203 l 1
 187.48 46.4805 l 1
 151.64 46.4805 l 1
 115.8 46.4805 l 1
 115.8 9.78711 l 1
 115.8 -26.9062 l 1
 151.64 -26.9062 l 1
 187.48 -26.9062 l 1
 187.48 9.78711 l 1
 187.48 46.4805 l 1
 223.32 46.4805 l 1
 259.16 46.4805 l 1
 259.16 9.78711 l 1
 259.16 -26.9062 l 1
 295 -26.9062 l 1
 330.84 -26.9062 l 1
 330.84 9.78711 l 1
 330.84 46.4805 l 1
 366.68 46.4805 l 1
 402.52 46.4805 l 1
 402.52 9.78711 l 1
 402.52 -26.9062 l 1
 439.213 -26.9062 l 1
 475.906 -26.9062 l 1
 475.906 153.146 l 1
EndSplineSet
EndChar

StartChar: uni30E9
Encoding: 12521 12521 9
Width: 589
VWidth: 0
Flags: HW
LayerCount: 2
Back
Fore
SplineSet
187.48 154 m 1
 187.48 189.84 l 1
 223.32 189.84 l 1
 259.16 189.84 l 1
 259.16 154 l 1
 259.16 118.16 l 1
 223.32 118.16 l 1
 187.48 118.16 l 1
 187.48 154 l 1
39 154 m 1
 39 410 l 1
 295 410 l 1
 551 410 l 1
 551 154 l 1
 551 -102 l 1
 295 -102 l 1
 39 -102 l 1
 39 154 l 1
475.906 261.52 m 1
 475.906 333.2 l 1
 295.854 333.2 l 1
 115.8 333.2 l 1
 115.8 297.36 l 1
 115.8 261.52 l 1
 151.64 261.52 l 1
 187.48 261.52 l 1
 187.48 225.68 l 1
 187.48 189.84 l 1
 151.64 189.84 l 1
 115.8 189.84 l 1
 115.8 154 l 1
 115.8 118.16 l 1
 151.64 118.16 l 1
 187.48 118.16 l 1
 187.48 82.3203 l 1
 187.48 46.4805 l 1
 151.64 46.4805 l 1
 115.8 46.4805 l 1
 115.8 9.78711 l 1
 115.8 -26.9062 l 1
 151.64 -26.9062 l 1
 187.48 -26.9062 l 1
 187.48 9.78711 l 1
 187.48 46.4805 l 1
 223.32 46.4805 l 1
 259.16 46.4805 l 1
 259.16 9.78711 l 1
 259.16 -26.9062 l 1
 295 -26.9062 l 1
 330.84 -26.9062 l 1
 330.84 117.307 l 1
 330.84 261.52 l 1
 366.68 261.52 l 1
 402.52 261.52 l 1
 402.52 225.68 l 1
 402.52 189.84 l 1
 439.213 189.84 l 1
 475.906 189.84 l 1
 475.906 261.52 l 1
475.906 45.627 m 1
 475.906 118.16 l 1
 439.213 118.16 l 1
 402.52 118.16 l 1
 402.52 45.627 l 1
 402.52 -26.9062 l 1
 439.213 -26.9062 l 1
 475.906 -26.9062 l 1
 475.906 45.627 l 1
EndSplineSet
EndChar

StartChar: uni30DB
Encoding: 12507 12507 10
Width: 589
VWidth: 0
Flags: HW
LayerCount: 2
Back
Fore
SplineSet
187.48 154 m 1
 187.48 189.84 l 1
 223.32 189.84 l 1
 259.16 189.84 l 1
 259.16 154 l 1
 259.16 118.16 l 1
 223.32 118.16 l 1
 187.48 118.16 l 1
 187.48 154 l 1
39 154 m 1
 39 410 l 1
 295 410 l 1
 551 410 l 1
 551 154 l 1
 551 -102 l 1
 295 -102 l 1
 39 -102 l 1
 39 154 l 1
475.906 261.52 m 1
 475.906 333.2 l 1
 295.854 333.2 l 1
 115.8 333.2 l 1
 115.8 297.36 l 1
 115.8 261.52 l 1
 151.64 261.52 l 1
 187.48 261.52 l 1
 187.48 225.68 l 1
 187.48 189.84 l 1
 151.64 189.84 l 1
 115.8 189.84 l 1
 115.8 154 l 1
 115.8 118.16 l 1
 151.64 118.16 l 1
 187.48 118.16 l 1
 187.48 82.3203 l 1
 187.48 46.4805 l 1
 151.64 46.4805 l 1
 115.8 46.4805 l 1
 115.8 9.78711 l 1
 115.8 -26.9062 l 1
 151.64 -26.9062 l 1
 187.48 -26.9062 l 1
 187.48 9.78711 l 1
 187.48 46.4805 l 1
 223.32 46.4805 l 1
 259.16 46.4805 l 1
 259.16 9.78711 l 1
 259.16 -26.9062 l 1
 295 -26.9062 l 1
 330.84 -26.9062 l 1
 330.84 9.78711 l 1
 330.84 46.4805 l 1
 366.68 46.4805 l 1
 402.52 46.4805 l 1
 402.52 9.78711 l 1
 402.52 -26.9062 l 1
 439.213 -26.9062 l 1
 475.906 -26.9062 l 1
 475.906 45.627 l 1
 475.906 118.16 l 1
 403.373 118.16 l 1
 330.84 118.16 l 1
 330.84 154 l 1
 330.84 189.84 l 1
 295 189.84 l 1
 259.16 189.84 l 1
 259.16 225.68 l 1
 259.16 261.52 l 1
 330.84 261.52 l 1
 402.52 261.52 l 1
 402.52 225.68 l 1
 402.52 189.84 l 1
 439.213 189.84 l 1
 475.906 189.84 l 1
 475.906 261.52 l 1
EndSplineSet
EndChar

StartChar: uni30BB
Encoding: 12475 12475 11
Width: 589
VWidth: 0
Flags: HW
LayerCount: 2
Back
Fore
SplineSet
39 154 m 1
 39 410 l 1
 295 410 l 1
 551 410 l 1
 551 154 l 1
 551 -102 l 1
 295 -102 l 1
 39 -102 l 1
 39 154 l 1
475.906 261.52 m 1
 475.906 333.2 l 1
 295.854 333.2 l 1
 115.8 333.2 l 1
 115.8 297.36 l 1
 115.8 261.52 l 1
 151.64 261.52 l 1
 187.48 261.52 l 1
 187.48 225.68 l 1
 187.48 189.84 l 1
 151.64 189.84 l 1
 115.8 189.84 l 1
 115.8 154 l 1
 115.8 118.16 l 1
 223.32 118.16 l 1
 330.84 118.16 l 1
 330.84 82.3203 l 1
 330.84 46.4805 l 1
 295 46.4805 l 1
 259.16 46.4805 l 1
 259.16 9.78711 l 1
 259.16 -26.9062 l 1
 295 -26.9062 l 1
 330.84 -26.9062 l 1
 330.84 9.78711 l 1
 330.84 46.4805 l 1
 366.68 46.4805 l 1
 402.52 46.4805 l 1
 402.52 9.78711 l 1
 402.52 -26.9062 l 1
 439.213 -26.9062 l 1
 475.906 -26.9062 l 1
 475.906 9.78711 l 1
 475.906 46.4805 l 1
 439.213 46.4805 l 1
 402.52 46.4805 l 1
 402.52 82.3203 l 1
 402.52 118.16 l 1
 366.68 118.16 l 1
 330.84 118.16 l 1
 330.84 154 l 1
 330.84 189.84 l 1
 295 189.84 l 1
 259.16 189.84 l 1
 259.16 225.68 l 1
 259.16 261.52 l 1
 330.84 261.52 l 1
 402.52 261.52 l 1
 402.52 225.68 l 1
 402.52 189.84 l 1
 439.213 189.84 l 1
 475.906 189.84 l 1
 475.906 261.52 l 1
187.48 9.78711 m 1
 187.48 46.4805 l 1
 151.64 46.4805 l 1
 115.8 46.4805 l 1
 115.8 9.78711 l 1
 115.8 -26.9062 l 1
 151.64 -26.9062 l 1
 187.48 -26.9062 l 1
 187.48 9.78711 l 1
EndSplineSet
EndChar

StartChar: uni30ED
Encoding: 12525 12525 12
Width: 589
VWidth: 0
Flags: HW
LayerCount: 2
Back
Fore
SplineSet
187.48 154 m 1
 187.48 189.84 l 1
 223.32 189.84 l 1
 259.16 189.84 l 1
 259.16 154 l 1
 259.16 118.16 l 1
 295 118.16 l 1
 330.84 118.16 l 1
 330.84 82.3203 l 1
 330.84 46.4805 l 1
 295 46.4805 l 1
 259.16 46.4805 l 1
 259.16 82.3203 l 1
 259.16 118.16 l 1
 223.32 118.16 l 1
 187.48 118.16 l 1
 187.48 154 l 1
39 154 m 1
 39 410 l 1
 295 410 l 1
 551 410 l 1
 551 154 l 1
 551 -102 l 1
 295 -102 l 1
 39 -102 l 1
 39 154 l 1
475.906 297.36 m 1
 475.906 333.2 l 1
 295.854 333.2 l 1
 115.8 333.2 l 1
 115.8 297.36 l 1
 115.8 261.52 l 1
 151.64 261.52 l 1
 187.48 261.52 l 1
 187.48 225.68 l 1
 187.48 189.84 l 1
 151.64 189.84 l 1
 115.8 189.84 l 1
 115.8 154 l 1
 115.8 118.16 l 1
 151.64 118.16 l 1
 187.48 118.16 l 1
 187.48 82.3203 l 1
 187.48 46.4805 l 1
 151.64 46.4805 l 1
 115.8 46.4805 l 1
 115.8 9.78711 l 1
 115.8 -26.9062 l 1
 151.64 -26.9062 l 1
 187.48 -26.9062 l 1
 187.48 9.78711 l 1
 187.48 46.4805 l 1
 223.32 46.4805 l 1
 259.16 46.4805 l 1
 259.16 9.78711 l 1
 259.16 -26.9062 l 1
 295 -26.9062 l 1
 330.84 -26.9062 l 1
 330.84 9.78711 l 1
 330.84 46.4805 l 1
 366.68 46.4805 l 1
 402.52 46.4805 l 1
 402.52 9.78711 l 1
 402.52 -26.9062 l 1
 439.213 -26.9062 l 1
 475.906 -26.9062 l 1
 475.906 9.78711 l 1
 475.906 46.4805 l 1
 439.213 46.4805 l 1
 402.52 46.4805 l 1
 402.52 154 l 1
 402.52 261.52 l 1
 439.213 261.52 l 1
 475.906 261.52 l 1
 475.906 297.36 l 1
EndSplineSet
EndChar

StartChar: uni30A8
Encoding: 12456 12456 13
Width: 589
VWidth: 0
Flags: HW
LayerCount: 2
Back
Fore
SplineSet
39 154 m 1
 39 410 l 1
 295 410 l 1
 551 410 l 1
 551 154 l 1
 551 -102 l 1
 295 -102 l 1
 39 -102 l 1
 39 154 l 1
475.906 153.146 m 1
 475.906 333.2 l 1
 295.854 333.2 l 1
 115.8 333.2 l 1
 115.8 297.36 l 1
 115.8 261.52 l 1
 223.32 261.52 l 1
 330.84 261.52 l 1
 330.84 225.68 l 1
 330.84 189.84 l 1
 223.32 189.84 l 1
 115.8 189.84 l 1
 115.8 154 l 1
 115.8 118.16 l 1
 187.48 118.16 l 1
 259.16 118.16 l 1
 259.16 45.627 l 1
 259.16 -26.9062 l 1
 295 -26.9062 l 1
 330.84 -26.9062 l 1
 330.84 81.4668 l 1
 330.84 189.84 l 1
 366.68 189.84 l 1
 402.52 189.84 l 1
 402.52 81.4668 l 1
 402.52 -26.9062 l 1
 439.213 -26.9062 l 1
 475.906 -26.9062 l 1
 475.906 153.146 l 1
187.48 9.78711 m 1
 187.48 46.4805 l 1
 151.64 46.4805 l 1
 115.8 46.4805 l 1
 115.8 9.78711 l 1
 115.8 -26.9062 l 1
 151.64 -26.9062 l 1
 187.48 -26.9062 l 1
 187.48 9.78711 l 1
EndSplineSet
EndChar

StartChar: uni3070
Encoding: 12400 12400 14
Width: 589
VWidth: 0
Flags: HW
LayerCount: 2
Back
Fore
SplineSet
39 154 m 1
 39 410 l 1
 295 410 l 1
 551 410 l 1
 551 154 l 1
 551 -102 l 1
 295 -102 l 1
 39 -102 l 1
 39 154 l 1
475.906 297.36 m 1
 475.906 333.2 l 1
 295.854 333.2 l 1
 115.8 333.2 l 1
 115.8 297.36 l 1
 115.8 261.52 l 1
 151.64 261.52 l 1
 187.48 261.52 l 1
 187.48 225.68 l 1
 187.48 189.84 l 1
 151.64 189.84 l 1
 115.8 189.84 l 1
 115.8 154 l 1
 115.8 118.16 l 1
 151.64 118.16 l 1
 187.48 118.16 l 1
 187.48 82.3203 l 1
 187.48 46.4805 l 1
 151.64 46.4805 l 1
 115.8 46.4805 l 1
 115.8 9.78711 l 1
 115.8 -26.9062 l 1
 151.64 -26.9062 l 1
 187.48 -26.9062 l 1
 187.48 9.78711 l 1
 187.48 46.4805 l 1
 223.32 46.4805 l 1
 259.16 46.4805 l 1
 259.16 9.78711 l 1
 259.16 -26.9062 l 1
 295 -26.9062 l 1
 330.84 -26.9062 l 1
 330.84 9.78711 l 1
 330.84 46.4805 l 1
 295 46.4805 l 1
 259.16 46.4805 l 1
 259.16 82.3203 l 1
 259.16 118.16 l 1
 330.84 118.16 l 1
 402.52 118.16 l 1
 402.52 189.84 l 1
 402.52 261.52 l 1
 439.213 261.52 l 1
 475.906 261.52 l 1
 475.906 297.36 l 1
475.906 9.78711 m 1
 475.906 46.4805 l 1
 439.213 46.4805 l 1
 402.52 46.4805 l 1
 402.52 9.78711 l 1
 402.52 -26.9062 l 1
 439.213 -26.9062 l 1
 475.906 -26.9062 l 1
 475.906 9.78711 l 1
EndSplineSet
EndChar

StartChar: uni30EA
Encoding: 12522 12522 15
Width: 589
VWidth: 0
Flags: HW
LayerCount: 2
Back
Fore
SplineSet
39 154 m 1
 39 410 l 1
 295 410 l 1
 551 410 l 1
 551 154 l 1
 551 -102 l 1
 295 -102 l 1
 39 -102 l 1
 39 154 l 1
475.906 297.36 m 1
 475.906 333.2 l 1
 295.854 333.2 l 1
 115.8 333.2 l 1
 115.8 297.36 l 1
 115.8 261.52 l 1
 187.48 261.52 l 1
 259.16 261.52 l 1
 259.16 189.84 l 1
 259.16 118.16 l 1
 223.32 118.16 l 1
 187.48 118.16 l 1
 187.48 154 l 1
 187.48 189.84 l 1
 151.64 189.84 l 1
 115.8 189.84 l 1
 115.8 154 l 1
 115.8 118.16 l 1
 151.64 118.16 l 1
 187.48 118.16 l 1
 187.48 82.3203 l 1
 187.48 46.4805 l 1
 151.64 46.4805 l 1
 115.8 46.4805 l 1
 115.8 9.78711 l 1
 115.8 -26.9062 l 1
 151.64 -26.9062 l 1
 187.48 -26.9062 l 1
 187.48 9.78711 l 1
 187.48 46.4805 l 1
 223.32 46.4805 l 1
 259.16 46.4805 l 1
 259.16 9.78711 l 1
 259.16 -26.9062 l 1
 295 -26.9062 l 1
 330.84 -26.9062 l 1
 330.84 117.307 l 1
 330.84 261.52 l 1
 403.373 261.52 l 1
 475.906 261.52 l 1
 475.906 297.36 l 1
475.906 45.627 m 1
 475.906 118.16 l 1
 439.213 118.16 l 1
 402.52 118.16 l 1
 402.52 45.627 l 1
 402.52 -26.9062 l 1
 439.213 -26.9062 l 1
 475.906 -26.9062 l 1
 475.906 45.627 l 1
EndSplineSet
EndChar

StartChar: uni3071
Encoding: 12401 12401 16
Width: 589
VWidth: 0
Flags: HW
LayerCount: 2
Back
Fore
SplineSet
39 154 m 1
 39 410 l 1
 295 410 l 1
 551 410 l 1
 551 154 l 1
 551 -102 l 1
 295 -102 l 1
 39 -102 l 1
 39 154 l 1
475.906 153.146 m 1
 475.906 333.2 l 1
 295.854 333.2 l 1
 115.8 333.2 l 1
 115.8 297.36 l 1
 115.8 261.52 l 1
 187.48 261.52 l 1
 259.16 261.52 l 1
 259.16 225.68 l 1
 259.16 189.84 l 1
 187.48 189.84 l 1
 115.8 189.84 l 1
 115.8 154 l 1
 115.8 118.16 l 1
 151.64 118.16 l 1
 187.48 118.16 l 1
 187.48 82.3203 l 1
 187.48 46.4805 l 1
 151.64 46.4805 l 1
 115.8 46.4805 l 1
 115.8 9.78711 l 1
 115.8 -26.9062 l 1
 151.64 -26.9062 l 1
 187.48 -26.9062 l 1
 187.48 9.78711 l 1
 187.48 46.4805 l 1
 223.32 46.4805 l 1
 259.16 46.4805 l 1
 259.16 9.78711 l 1
 259.16 -26.9062 l 1
 295 -26.9062 l 1
 330.84 -26.9062 l 1
 330.84 9.78711 l 1
 330.84 46.4805 l 1
 295 46.4805 l 1
 259.16 46.4805 l 1
 259.16 82.3203 l 1
 259.16 118.16 l 1
 330.84 118.16 l 1
 402.52 118.16 l 1
 402.52 45.627 l 1
 402.52 -26.9062 l 1
 439.213 -26.9062 l 1
 475.906 -26.9062 l 1
 475.906 153.146 l 1
EndSplineSet
EndChar

StartChar: uni3068
Encoding: 12392 12392 17
Width: 589
VWidth: 0
Flags: HW
LayerCount: 2
Back
Fore
SplineSet
259.16 82.3203 m 1
 259.16 118.16 l 1
 295 118.16 l 1
 330.84 118.16 l 1
 330.84 82.3203 l 1
 330.84 46.4805 l 1
 295 46.4805 l 1
 259.16 46.4805 l 1
 259.16 82.3203 l 1
39 154 m 1
 39 410 l 1
 295 410 l 1
 551 410 l 1
 551 154 l 1
 551 -102 l 1
 295 -102 l 1
 39 -102 l 1
 39 154 l 1
475.906 261.52 m 1
 475.906 333.2 l 1
 295.854 333.2 l 1
 115.8 333.2 l 1
 115.8 297.36 l 1
 115.8 261.52 l 1
 151.64 261.52 l 1
 187.48 261.52 l 1
 187.48 225.68 l 1
 187.48 189.84 l 1
 151.64 189.84 l 1
 115.8 189.84 l 1
 115.8 154 l 1
 115.8 118.16 l 1
 151.64 118.16 l 1
 187.48 118.16 l 1
 187.48 82.3203 l 1
 187.48 46.4805 l 1
 151.64 46.4805 l 1
 115.8 46.4805 l 1
 115.8 9.78711 l 1
 115.8 -26.9062 l 1
 151.64 -26.9062 l 1
 187.48 -26.9062 l 1
 187.48 9.78711 l 1
 187.48 46.4805 l 1
 223.32 46.4805 l 1
 259.16 46.4805 l 1
 259.16 9.78711 l 1
 259.16 -26.9062 l 1
 295 -26.9062 l 1
 330.84 -26.9062 l 1
 330.84 9.78711 l 1
 330.84 46.4805 l 1
 366.68 46.4805 l 1
 402.52 46.4805 l 1
 402.52 9.78711 l 1
 402.52 -26.9062 l 1
 439.213 -26.9062 l 1
 475.906 -26.9062 l 1
 475.906 9.78711 l 1
 475.906 46.4805 l 1
 439.213 46.4805 l 1
 402.52 46.4805 l 1
 402.52 82.3203 l 1
 402.52 118.16 l 1
 366.68 118.16 l 1
 330.84 118.16 l 1
 330.84 154 l 1
 330.84 189.84 l 1
 403.373 189.84 l 1
 475.906 189.84 l 1
 475.906 261.52 l 1
EndSplineSet
EndChar

StartChar: uni3080
Encoding: 12416 12416 18
Width: 589
VWidth: 0
Flags: HW
LayerCount: 2
Back
Fore
SplineSet
39 154 m 1
 39 410 l 1
 295 410 l 1
 551 410 l 1
 551 154 l 1
 551 -102 l 1
 295 -102 l 1
 39 -102 l 1
 39 154 l 1
475.906 297.36 m 1
 475.906 333.2 l 1
 295.854 333.2 l 1
 115.8 333.2 l 1
 115.8 297.36 l 1
 115.8 261.52 l 1
 151.64 261.52 l 1
 187.48 261.52 l 1
 187.48 225.68 l 1
 187.48 189.84 l 1
 151.64 189.84 l 1
 115.8 189.84 l 1
 115.8 154 l 1
 115.8 118.16 l 1
 187.48 118.16 l 1
 259.16 118.16 l 1
 259.16 45.627 l 1
 259.16 -26.9062 l 1
 295 -26.9062 l 1
 330.84 -26.9062 l 1
 330.84 9.78711 l 1
 330.84 46.4805 l 1
 366.68 46.4805 l 1
 402.52 46.4805 l 1
 402.52 9.78711 l 1
 402.52 -26.9062 l 1
 439.213 -26.9062 l 1
 475.906 -26.9062 l 1
 475.906 81.4668 l 1
 475.906 189.84 l 1
 439.213 189.84 l 1
 402.52 189.84 l 1
 402.52 225.68 l 1
 402.52 261.52 l 1
 439.213 261.52 l 1
 475.906 261.52 l 1
 475.906 297.36 l 1
187.48 9.78711 m 1
 187.48 46.4805 l 1
 151.64 46.4805 l 1
 115.8 46.4805 l 1
 115.8 9.78711 l 1
 115.8 -26.9062 l 1
 151.64 -26.9062 l 1
 187.48 -26.9062 l 1
 187.48 9.78711 l 1
EndSplineSet
EndChar

StartChar: uni30B1
Encoding: 12465 12465 19
Width: 589
VWidth: 0
Flags: HW
LayerCount: 2
Back
Fore
SplineSet
330.84 225.68 m 1
 330.84 261.52 l 1
 366.68 261.52 l 1
 402.52 261.52 l 1
 402.52 225.68 l 1
 402.52 189.84 l 1
 366.68 189.84 l 1
 330.84 189.84 l 1
 330.84 225.68 l 1
39 154 m 1
 39 410 l 1
 295 410 l 1
 551 410 l 1
 551 154 l 1
 551 -102 l 1
 295 -102 l 1
 39 -102 l 1
 39 154 l 1
475.906 261.52 m 1
 475.906 333.2 l 1
 295.854 333.2 l 1
 115.8 333.2 l 1
 115.8 297.36 l 1
 115.8 261.52 l 1
 151.64 261.52 l 1
 187.48 261.52 l 1
 187.48 225.68 l 1
 187.48 189.84 l 1
 151.64 189.84 l 1
 115.8 189.84 l 1
 115.8 154 l 1
 115.8 118.16 l 1
 223.32 118.16 l 1
 330.84 118.16 l 1
 330.84 82.3203 l 1
 330.84 46.4805 l 1
 295 46.4805 l 1
 259.16 46.4805 l 1
 259.16 9.78711 l 1
 259.16 -26.9062 l 1
 295 -26.9062 l 1
 330.84 -26.9062 l 1
 330.84 9.78711 l 1
 330.84 46.4805 l 1
 366.68 46.4805 l 1
 402.52 46.4805 l 1
 402.52 9.78711 l 1
 402.52 -26.9062 l 1
 439.213 -26.9062 l 1
 475.906 -26.9062 l 1
 475.906 45.627 l 1
 475.906 118.16 l 1
 439.213 118.16 l 1
 402.52 118.16 l 1
 402.52 154 l 1
 402.52 189.84 l 1
 439.213 189.84 l 1
 475.906 189.84 l 1
 475.906 261.52 l 1
187.48 9.78711 m 1
 187.48 46.4805 l 1
 151.64 46.4805 l 1
 115.8 46.4805 l 1
 115.8 9.78711 l 1
 115.8 -26.9062 l 1
 151.64 -26.9062 l 1
 187.48 -26.9062 l 1
 187.48 9.78711 l 1
EndSplineSet
EndChar

StartChar: uni30D4
Encoding: 12500 12500 20
Width: 589
VWidth: 0
Flags: HW
LayerCount: 2
Back
Fore
SplineSet
39 154 m 1
 39 410 l 1
 295 410 l 1
 551 410 l 1
 551 154 l 1
 551 -102 l 1
 295 -102 l 1
 39 -102 l 1
 39 154 l 1
475.906 261.52 m 1
 475.906 333.2 l 1
 295.854 333.2 l 1
 115.8 333.2 l 1
 115.8 297.36 l 1
 115.8 261.52 l 1
 259.16 261.52 l 1
 402.52 261.52 l 1
 402.52 225.68 l 1
 402.52 189.84 l 1
 330.84 189.84 l 1
 259.16 189.84 l 1
 259.16 154 l 1
 259.16 118.16 l 1
 223.32 118.16 l 1
 187.48 118.16 l 1
 187.48 154 l 1
 187.48 189.84 l 1
 151.64 189.84 l 1
 115.8 189.84 l 1
 115.8 154 l 1
 115.8 118.16 l 1
 151.64 118.16 l 1
 187.48 118.16 l 1
 187.48 82.3203 l 1
 187.48 46.4805 l 1
 151.64 46.4805 l 1
 115.8 46.4805 l 1
 115.8 9.78711 l 1
 115.8 -26.9062 l 1
 151.64 -26.9062 l 1
 187.48 -26.9062 l 1
 187.48 9.78711 l 1
 187.48 46.4805 l 1
 223.32 46.4805 l 1
 259.16 46.4805 l 1
 259.16 9.78711 l 1
 259.16 -26.9062 l 1
 295 -26.9062 l 1
 330.84 -26.9062 l 1
 330.84 9.78711 l 1
 330.84 46.4805 l 1
 366.68 46.4805 l 1
 402.52 46.4805 l 1
 402.52 9.78711 l 1
 402.52 -26.9062 l 1
 439.213 -26.9062 l 1
 475.906 -26.9062 l 1
 475.906 45.627 l 1
 475.906 118.16 l 1
 439.213 118.16 l 1
 402.52 118.16 l 1
 402.52 154 l 1
 402.52 189.84 l 1
 439.213 189.84 l 1
 475.906 189.84 l 1
 475.906 261.52 l 1
EndSplineSet
EndChar

StartChar: uni30DC
Encoding: 12508 12508 21
Width: 589
VWidth: 0
Flags: HW
LayerCount: 2
Back
Fore
SplineSet
39 154 m 1
 39 410 l 1
 295 410 l 1
 551 410 l 1
 551 154 l 1
 551 -102 l 1
 295 -102 l 1
 39 -102 l 1
 39 154 l 1
475.906 297.36 m 1
 475.906 333.2 l 1
 295.854 333.2 l 1
 115.8 333.2 l 1
 115.8 297.36 l 1
 115.8 261.52 l 1
 295.854 261.52 l 1
 475.906 261.52 l 1
 475.906 297.36 l 1
187.48 154 m 1
 187.48 189.84 l 1
 151.64 189.84 l 1
 115.8 189.84 l 1
 115.8 154 l 1
 115.8 118.16 l 1
 151.64 118.16 l 1
 187.48 118.16 l 1
 187.48 82.3203 l 1
 187.48 46.4805 l 1
 151.64 46.4805 l 1
 115.8 46.4805 l 1
 115.8 9.78711 l 1
 115.8 -26.9062 l 1
 151.64 -26.9062 l 1
 187.48 -26.9062 l 1
 187.48 9.78711 l 1
 187.48 46.4805 l 1
 223.32 46.4805 l 1
 259.16 46.4805 l 1
 259.16 9.78711 l 1
 259.16 -26.9062 l 1
 295 -26.9062 l 1
 330.84 -26.9062 l 1
 330.84 9.78711 l 1
 330.84 46.4805 l 1
 366.68 46.4805 l 1
 402.52 46.4805 l 1
 402.52 9.78711 l 1
 402.52 -26.9062 l 1
 439.213 -26.9062 l 1
 475.906 -26.9062 l 1
 475.906 45.627 l 1
 475.906 118.16 l 1
 403.373 118.16 l 1
 330.84 118.16 l 1
 330.84 154 l 1
 330.84 189.84 l 1
 295 189.84 l 1
 259.16 189.84 l 1
 259.16 154 l 1
 259.16 118.16 l 1
 223.32 118.16 l 1
 187.48 118.16 l 1
 187.48 154 l 1
EndSplineSet
EndChar

StartChar: uni3052
Encoding: 12370 12370 22
Width: 589
VWidth: 0
Flags: HW
LayerCount: 2
Back
Fore
SplineSet
259.16 225.68 m 1
 259.16 261.52 l 1
 295 261.52 l 1
 330.84 261.52 l 1
 330.84 225.68 l 1
 330.84 189.84 l 1
 295 189.84 l 1
 259.16 189.84 l 1
 259.16 225.68 l 1
39 154 m 1
 39 410 l 1
 295 410 l 1
 551 410 l 1
 551 154 l 1
 551 -102 l 1
 295 -102 l 1
 39 -102 l 1
 39 154 l 1
475.906 225.68 m 1
 475.906 333.2 l 1
 295.854 333.2 l 1
 115.8 333.2 l 1
 115.8 297.36 l 1
 115.8 261.52 l 1
 151.64 261.52 l 1
 187.48 261.52 l 1
 187.48 225.68 l 1
 187.48 189.84 l 1
 151.64 189.84 l 1
 115.8 189.84 l 1
 115.8 154 l 1
 115.8 118.16 l 1
 151.64 118.16 l 1
 187.48 118.16 l 1
 187.48 82.3203 l 1
 187.48 46.4805 l 1
 151.64 46.4805 l 1
 115.8 46.4805 l 1
 115.8 9.78711 l 1
 115.8 -26.9062 l 1
 151.64 -26.9062 l 1
 187.48 -26.9062 l 1
 187.48 9.78711 l 1
 187.48 46.4805 l 1
 223.32 46.4805 l 1
 259.16 46.4805 l 1
 259.16 9.78711 l 1
 259.16 -26.9062 l 1
 295 -26.9062 l 1
 330.84 -26.9062 l 1
 330.84 45.627 l 1
 330.84 118.16 l 1
 403.373 118.16 l 1
 475.906 118.16 l 1
 475.906 225.68 l 1
475.906 9.78711 m 1
 475.906 46.4805 l 1
 439.213 46.4805 l 1
 402.52 46.4805 l 1
 402.52 9.78711 l 1
 402.52 -26.9062 l 1
 439.213 -26.9062 l 1
 475.906 -26.9062 l 1
 475.906 9.78711 l 1
EndSplineSet
EndChar

StartChar: uni3047
Encoding: 12359 12359 23
Width: 589
VWidth: 0
Flags: W
HStem: -102 148.48<187.48 259.16 330.84 402.52> -102 75.0938<115.8 187.48 259.16 330.84 402.52 475.906> 46.4805 71.6797<115.8 187.48> 189.84 71.6797<115.8 402.52> 333.2 76.7998<115.8 475.906>
VStem: 39 76.7998<-26.9062 46.4805 118.16 189.84 261.52 333.2> 187.48 71.6797<-26.9062 46.4805> 330.84 71.6797<-26.9062 46.4805> 475.906 75.0938<-26.9062 333.2>
LayerCount: 2
Back
Fore
SplineSet
39 154 m 1x5f80
 39 410 l 1
 295 410 l 1
 551 410 l 1
 551 154 l 1
 551 -102 l 1
 295 -102 l 1
 39 -102 l 1
 39 154 l 1x5f80
475.906 153.146 m 1
 475.906 333.2 l 1
 295.854 333.2 l 1
 115.8 333.2 l 1
 115.8 297.36 l 1
 115.8 261.52 l 1
 259.16 261.52 l 1
 402.52 261.52 l 1
 402.52 225.68 l 1
 402.52 189.84 l 1
 259.16 189.84 l 1
 115.8 189.84 l 1
 115.8 154 l 1
 115.8 118.16 l 1
 151.64 118.16 l 1
 187.48 118.16 l 1x7f80
 187.48 82.3203 l 1
 187.48 46.4805 l 1x9f80
 151.64 46.4805 l 1
 115.8 46.4805 l 1
 115.8 9.78711 l 1
 115.8 -26.9062 l 1
 151.64 -26.9062 l 1
 187.48 -26.9062 l 1x7f80
 187.48 9.78711 l 1
 187.48 46.4805 l 1
 223.32 46.4805 l 1
 259.16 46.4805 l 1x9f80
 259.16 9.78711 l 1
 259.16 -26.9062 l 1
 295 -26.9062 l 1
 330.84 -26.9062 l 1x5f80
 330.84 9.78711 l 1
 330.84 46.4805 l 1
 366.68 46.4805 l 1
 402.52 46.4805 l 1x9f80
 402.52 9.78711 l 1
 402.52 -26.9062 l 1
 439.213 -26.9062 l 1
 475.906 -26.9062 l 1
 475.906 153.146 l 1
EndSplineSet
EndChar

StartChar: uni30DA
Encoding: 12506 12506 24
Width: 589
VWidth: 0
Flags: HW
LayerCount: 2
Back
Fore
SplineSet
39 154 m 1
 39 410 l 1
 295 410 l 1
 551 410 l 1
 551 154 l 1
 551 -102 l 1
 295 -102 l 1
 39 -102 l 1
 39 154 l 1
475.906 297.36 m 1
 475.906 333.2 l 1
 295.854 333.2 l 1
 115.8 333.2 l 1
 115.8 297.36 l 1
 115.8 261.52 l 1
 187.48 261.52 l 1
 259.16 261.52 l 1
 259.16 189.84 l 1
 259.16 118.16 l 1
 223.32 118.16 l 1
 187.48 118.16 l 1
 187.48 154 l 1
 187.48 189.84 l 1
 151.64 189.84 l 1
 115.8 189.84 l 1
 115.8 154 l 1
 115.8 118.16 l 1
 151.64 118.16 l 1
 187.48 118.16 l 1
 187.48 82.3203 l 1
 187.48 46.4805 l 1
 151.64 46.4805 l 1
 115.8 46.4805 l 1
 115.8 9.78711 l 1
 115.8 -26.9062 l 1
 151.64 -26.9062 l 1
 187.48 -26.9062 l 1
 187.48 9.78711 l 1
 187.48 46.4805 l 1
 223.32 46.4805 l 1
 259.16 46.4805 l 1
 259.16 9.78711 l 1
 259.16 -26.9062 l 1
 295 -26.9062 l 1
 330.84 -26.9062 l 1
 330.84 9.78711 l 1
 330.84 46.4805 l 1
 366.68 46.4805 l 1
 402.52 46.4805 l 1
 402.52 9.78711 l 1
 402.52 -26.9062 l 1
 439.213 -26.9062 l 1
 475.906 -26.9062 l 1
 475.906 81.4668 l 1
 475.906 189.84 l 1
 439.213 189.84 l 1
 402.52 189.84 l 1
 402.52 154 l 1
 402.52 118.16 l 1
 366.68 118.16 l 1
 330.84 118.16 l 1
 330.84 189.84 l 1
 330.84 261.52 l 1
 403.373 261.52 l 1
 475.906 261.52 l 1
 475.906 297.36 l 1
EndSplineSet
EndChar

StartChar: uni30D6
Encoding: 12502 12502 25
Width: 589
VWidth: 0
Flags: HW
LayerCount: 2
Back
Fore
SplineSet
330.84 154 m 1
 330.84 189.84 l 1
 366.68 189.84 l 1
 402.52 189.84 l 1
 402.52 154 l 1
 402.52 118.16 l 1
 366.68 118.16 l 1
 330.84 118.16 l 1
 330.84 154 l 1
39 154 m 1
 39 410 l 1
 295 410 l 1
 551 410 l 1
 551 154 l 1
 551 -102 l 1
 295 -102 l 1
 39 -102 l 1
 39 154 l 1
475.906 225.68 m 1
 475.906 333.2 l 1
 295.854 333.2 l 1
 115.8 333.2 l 1
 115.8 297.36 l 1
 115.8 261.52 l 1
 187.48 261.52 l 1
 259.16 261.52 l 1
 259.16 189.84 l 1
 259.16 118.16 l 1
 223.32 118.16 l 1
 187.48 118.16 l 1
 187.48 154 l 1
 187.48 189.84 l 1
 151.64 189.84 l 1
 115.8 189.84 l 1
 115.8 154 l 1
 115.8 118.16 l 1
 151.64 118.16 l 1
 187.48 118.16 l 1
 187.48 82.3203 l 1
 187.48 46.4805 l 1
 151.64 46.4805 l 1
 115.8 46.4805 l 1
 115.8 9.78711 l 1
 115.8 -26.9062 l 1
 151.64 -26.9062 l 1
 187.48 -26.9062 l 1
 187.48 9.78711 l 1
 187.48 46.4805 l 1
 223.32 46.4805 l 1
 259.16 46.4805 l 1
 259.16 9.78711 l 1
 259.16 -26.9062 l 1
 295 -26.9062 l 1
 330.84 -26.9062 l 1
 330.84 9.78711 l 1
 330.84 46.4805 l 1
 366.68 46.4805 l 1
 402.52 46.4805 l 1
 402.52 9.78711 l 1
 402.52 -26.9062 l 1
 439.213 -26.9062 l 1
 475.906 -26.9062 l 1
 475.906 9.78711 l 1
 475.906 46.4805 l 1
 439.213 46.4805 l 1
 402.52 46.4805 l 1
 402.52 82.3203 l 1
 402.52 118.16 l 1
 439.213 118.16 l 1
 475.906 118.16 l 1
 475.906 225.68 l 1
EndSplineSet
EndChar

StartChar: uni30A7
Encoding: 12455 12455 26
Width: 589
VWidth: 0
Flags: HW
LayerCount: 2
Back
Fore
SplineSet
259.16 225.68 m 1
 259.16 261.52 l 1
 295 261.52 l 1
 330.84 261.52 l 1
 330.84 225.68 l 1
 330.84 189.84 l 1
 295 189.84 l 1
 259.16 189.84 l 1
 259.16 225.68 l 1
39 154 m 1
 39 410 l 1
 295 410 l 1
 551 410 l 1
 551 154 l 1
 551 -102 l 1
 295 -102 l 1
 39 -102 l 1
 39 154 l 1
475.906 297.36 m 1
 475.906 333.2 l 1
 295.854 333.2 l 1
 115.8 333.2 l 1
 115.8 297.36 l 1
 115.8 261.52 l 1
 151.64 261.52 l 1
 187.48 261.52 l 1
 187.48 225.68 l 1
 187.48 189.84 l 1
 151.64 189.84 l 1
 115.8 189.84 l 1
 115.8 154 l 1
 115.8 118.16 l 1
 187.48 118.16 l 1
 259.16 118.16 l 1
 259.16 45.627 l 1
 259.16 -26.9062 l 1
 295 -26.9062 l 1
 330.84 -26.9062 l 1
 330.84 81.4668 l 1
 330.84 189.84 l 1
 366.68 189.84 l 1
 402.52 189.84 l 1
 402.52 225.68 l 1
 402.52 261.52 l 1
 439.213 261.52 l 1
 475.906 261.52 l 1
 475.906 297.36 l 1
187.48 9.78711 m 1
 187.48 46.4805 l 1
 151.64 46.4805 l 1
 115.8 46.4805 l 1
 115.8 9.78711 l 1
 115.8 -26.9062 l 1
 151.64 -26.9062 l 1
 187.48 -26.9062 l 1
 187.48 9.78711 l 1
475.906 9.78711 m 1
 475.906 46.4805 l 1
 439.213 46.4805 l 1
 402.52 46.4805 l 1
 402.52 9.78711 l 1
 402.52 -26.9062 l 1
 439.213 -26.9062 l 1
 475.906 -26.9062 l 1
 475.906 9.78711 l 1
EndSplineSet
EndChar

StartChar: uni3054
Encoding: 12372 12372 27
Width: 589
VWidth: 0
Flags: HW
LayerCount: 2
Back
Fore
SplineSet
39 154 m 1
 39 410 l 1
 295 410 l 1
 551 410 l 1
 551 154 l 1
 551 -102 l 1
 295 -102 l 1
 39 -102 l 1
 39 154 l 1
475.906 297.36 m 1
 475.906 333.2 l 1
 295.854 333.2 l 1
 115.8 333.2 l 1
 115.8 297.36 l 1
 115.8 261.52 l 1
 151.64 261.52 l 1
 187.48 261.52 l 1
 187.48 225.68 l 1
 187.48 189.84 l 1
 151.64 189.84 l 1
 115.8 189.84 l 1
 115.8 154 l 1
 115.8 118.16 l 1
 151.64 118.16 l 1
 187.48 118.16 l 1
 187.48 82.3203 l 1
 187.48 46.4805 l 1
 151.64 46.4805 l 1
 115.8 46.4805 l 1
 115.8 9.78711 l 1
 115.8 -26.9062 l 1
 151.64 -26.9062 l 1
 187.48 -26.9062 l 1
 187.48 9.78711 l 1
 187.48 46.4805 l 1
 223.32 46.4805 l 1
 259.16 46.4805 l 1
 259.16 9.78711 l 1
 259.16 -26.9062 l 1
 295 -26.9062 l 1
 330.84 -26.9062 l 1
 330.84 45.627 l 1
 330.84 118.16 l 1
 366.68 118.16 l 1
 402.52 118.16 l 1
 402.52 154 l 1
 402.52 189.84 l 1
 366.68 189.84 l 1
 330.84 189.84 l 1
 330.84 225.68 l 1
 330.84 261.52 l 1
 403.373 261.52 l 1
 475.906 261.52 l 1
 475.906 297.36 l 1
475.906 9.78711 m 1
 475.906 46.4805 l 1
 439.213 46.4805 l 1
 402.52 46.4805 l 1
 402.52 9.78711 l 1
 402.52 -26.9062 l 1
 439.213 -26.9062 l 1
 475.906 -26.9062 l 1
 475.906 9.78711 l 1
EndSplineSet
EndChar

StartChar: uni304B
Encoding: 12363 12363 28
Width: 589
VWidth: 0
Flags: W
HStem: -102 148.48<187.48 259.16 330.84 402.52> -102 75.0938<115.8 187.48 259.16 330.84 402.52 475.906> 46.4805 71.6797<115.8 187.48 402.52 475.906> 118.16 71.6797<330.84 402.52> 189.84 71.6797<115.8 330.84> 333.2 76.7998<115.8 475.906>
VStem: 39 76.7998<-26.9062 46.4805 118.16 189.84 261.52 333.2> 187.48 71.6797<-26.9062 46.4805> 330.84 71.6797<-26.9062 46.4805 118.16 189.84> 475.906 75.0938<-26.9062 46.4805 118.16 333.2>
LayerCount: 2
Back
Fore
SplineSet
330.84 154 m 1x17c0
 330.84 189.84 l 1
 366.68 189.84 l 1
 402.52 189.84 l 1x17c0
 402.52 154 l 1
 402.52 118.16 l 1x27c0
 366.68 118.16 l 1
 330.84 118.16 l 1
 330.84 154 l 1x17c0
39 154 m 1
 39 410 l 1
 295 410 l 1
 551 410 l 1
 551 154 l 1
 551 -102 l 1
 295 -102 l 1
 39 -102 l 1x47c0
 39 154 l 1
475.906 225.68 m 1
 475.906 333.2 l 1
 295.854 333.2 l 1
 115.8 333.2 l 1
 115.8 297.36 l 1
 115.8 261.52 l 1
 223.32 261.52 l 1
 330.84 261.52 l 1x2fc0
 330.84 225.68 l 1
 330.84 189.84 l 1x17c0
 223.32 189.84 l 1
 115.8 189.84 l 1
 115.8 154 l 1
 115.8 118.16 l 1
 151.64 118.16 l 1
 187.48 118.16 l 1x2fc0
 187.48 82.3203 l 1
 187.48 46.4805 l 1x87c0
 151.64 46.4805 l 1
 115.8 46.4805 l 1
 115.8 9.78711 l 1
 115.8 -26.9062 l 1
 151.64 -26.9062 l 1
 187.48 -26.9062 l 1x67c0
 187.48 9.78711 l 1
 187.48 46.4805 l 1
 223.32 46.4805 l 1
 259.16 46.4805 l 1x87c0
 259.16 9.78711 l 1
 259.16 -26.9062 l 1
 295 -26.9062 l 1
 330.84 -26.9062 l 1x47c0
 330.84 9.78711 l 1
 330.84 46.4805 l 1
 366.68 46.4805 l 1
 402.52 46.4805 l 1x87c0
 402.52 9.78711 l 1
 402.52 -26.9062 l 1
 439.213 -26.9062 l 1
 475.906 -26.9062 l 1
 475.906 9.78711 l 1
 475.906 46.4805 l 1
 439.213 46.4805 l 1x67c0
 402.52 46.4805 l 1x87c0
 402.52 82.3203 l 1
 402.52 118.16 l 1
 439.213 118.16 l 1
 475.906 118.16 l 1x27c0
 475.906 225.68 l 1
EndSplineSet
EndChar

StartChar: uni3042
Encoding: 12354 12354 29
Width: 589
VWidth: 0
Flags: W
HStem: -102 148.48<187.48 259.16 330.84 402.52> -102 75.0938<115.8 187.48 259.16 330.84 402.52 475.906> 46.4805 71.6797<115.8 187.48> 118.16 71.6797<402.52 475.906> 189.84 71.6797<115.8 187.48 259.16 330.84> 333.2 76.7998<115.8 475.906>
VStem: 39 148.48<46.4805 118.16 189.84 261.52> 39 76.7998<-26.9062 46.4805 118.16 189.84 261.52 333.2> 187.48 71.6797<-26.9062 46.4805> 259.16 71.6797<189.84 261.52> 330.84 71.6797<-26.9062 46.4805> 475.906 75.0938<-26.9062 118.16 189.84 333.2>
LayerCount: 2
Back
Fore
SplineSet
259.16 225.68 m 1x0c50
 259.16 261.52 l 1
 295 261.52 l 1
 330.84 261.52 l 1
 330.84 225.68 l 1
 330.84 189.84 l 1
 295 189.84 l 1
 259.16 189.84 l 1
 259.16 225.68 l 1x0c50
39 154 m 1x4510
 39 410 l 1
 295 410 l 1
 551 410 l 1
 551 154 l 1
 551 -102 l 1
 295 -102 l 1
 39 -102 l 1
 39 154 l 1x4510
475.906 261.52 m 1x0cb0
 475.906 333.2 l 1
 295.854 333.2 l 1
 115.8 333.2 l 1
 115.8 297.36 l 1
 115.8 261.52 l 1x0db0
 151.64 261.52 l 1
 187.48 261.52 l 1
 187.48 225.68 l 1
 187.48 189.84 l 1x0e10
 151.64 189.84 l 1
 115.8 189.84 l 1
 115.8 154 l 1
 115.8 118.16 l 1x2d10
 151.64 118.16 l 1
 187.48 118.16 l 1x2e10
 187.48 82.3203 l 1
 187.48 46.4805 l 1x8610
 151.64 46.4805 l 1
 115.8 46.4805 l 1
 115.8 9.78711 l 1
 115.8 -26.9062 l 1
 151.64 -26.9062 l 1
 187.48 -26.9062 l 1
 187.48 9.78711 l 1x6590
 187.48 46.4805 l 1x8610
 223.32 46.4805 l 1
 259.16 46.4805 l 1x8490
 259.16 9.78711 l 1
 259.16 -26.9062 l 1
 295 -26.9062 l 1
 330.84 -26.9062 l 1x44b0
 330.84 9.78711 l 1
 330.84 46.4805 l 1
 366.68 46.4805 l 1
 402.52 46.4805 l 1x84b0
 402.52 9.78711 l 1
 402.52 -26.9062 l 1
 439.213 -26.9062 l 1
 475.906 -26.9062 l 1
 475.906 45.627 l 1
 475.906 118.16 l 1
 439.213 118.16 l 1
 402.52 118.16 l 1
 402.52 154 l 1
 402.52 189.84 l 1
 439.213 189.84 l 1
 475.906 189.84 l 1x54b0
 475.906 261.52 l 1x0cb0
EndSplineSet
EndChar

StartChar: uni307E
Encoding: 12414 12414 30
Width: 589
VWidth: 0
Flags: HW
LayerCount: 2
Back
Fore
SplineSet
39 154 m 1
 39 410 l 1
 295 410 l 1
 551 410 l 1
 551 154 l 1
 551 -102 l 1
 295 -102 l 1
 39 -102 l 1
 39 154 l 1
475.906 297.36 m 1
 475.906 333.2 l 1
 295.854 333.2 l 1
 115.8 333.2 l 1
 115.8 297.36 l 1
 115.8 261.52 l 1
 151.64 261.52 l 1
 187.48 261.52 l 1
 187.48 225.68 l 1
 187.48 189.84 l 1
 151.64 189.84 l 1
 115.8 189.84 l 1
 115.8 154 l 1
 115.8 118.16 l 1
 151.64 118.16 l 1
 187.48 118.16 l 1
 187.48 82.3203 l 1
 187.48 46.4805 l 1
 151.64 46.4805 l 1
 115.8 46.4805 l 1
 115.8 9.78711 l 1
 115.8 -26.9062 l 1
 151.64 -26.9062 l 1
 187.48 -26.9062 l 1
 187.48 9.78711 l 1
 187.48 46.4805 l 1
 223.32 46.4805 l 1
 259.16 46.4805 l 1
 259.16 9.78711 l 1
 259.16 -26.9062 l 1
 295 -26.9062 l 1
 330.84 -26.9062 l 1
 330.84 9.78711 l 1
 330.84 46.4805 l 1
 295 46.4805 l 1
 259.16 46.4805 l 1
 259.16 82.3203 l 1
 259.16 118.16 l 1
 295 118.16 l 1
 330.84 118.16 l 1
 330.84 154 l 1
 330.84 189.84 l 1
 295 189.84 l 1
 259.16 189.84 l 1
 259.16 225.68 l 1
 259.16 261.52 l 1
 367.533 261.52 l 1
 475.906 261.52 l 1
 475.906 297.36 l 1
475.906 9.78711 m 1
 475.906 46.4805 l 1
 439.213 46.4805 l 1
 402.52 46.4805 l 1
 402.52 9.78711 l 1
 402.52 -26.9062 l 1
 439.213 -26.9062 l 1
 475.906 -26.9062 l 1
 475.906 9.78711 l 1
EndSplineSet
EndChar

StartChar: uni30C9
Encoding: 12489 12489 31
Width: 589
VWidth: 0
Flags: HW
LayerCount: 2
Back
Fore
SplineSet
39 154 m 1
 39 410 l 1
 295 410 l 1
 551 410 l 1
 551 154 l 1
 551 -102 l 1
 295 -102 l 1
 39 -102 l 1
 39 154 l 1
475.906 261.52 m 1
 475.906 333.2 l 1
 295.854 333.2 l 1
 115.8 333.2 l 1
 115.8 297.36 l 1
 115.8 261.52 l 1
 151.64 261.52 l 1
 187.48 261.52 l 1
 187.48 225.68 l 1
 187.48 189.84 l 1
 151.64 189.84 l 1
 115.8 189.84 l 1
 115.8 154 l 1
 115.8 118.16 l 1
 223.32 118.16 l 1
 330.84 118.16 l 1
 330.84 189.84 l 1
 330.84 261.52 l 1
 366.68 261.52 l 1
 402.52 261.52 l 1
 402.52 225.68 l 1
 402.52 189.84 l 1
 439.213 189.84 l 1
 475.906 189.84 l 1
 475.906 261.52 l 1
187.48 9.78711 m 1
 187.48 46.4805 l 1
 151.64 46.4805 l 1
 115.8 46.4805 l 1
 115.8 9.78711 l 1
 115.8 -26.9062 l 1
 151.64 -26.9062 l 1
 187.48 -26.9062 l 1
 187.48 9.78711 l 1
330.84 9.78711 m 1
 330.84 46.4805 l 1
 295 46.4805 l 1
 259.16 46.4805 l 1
 259.16 9.78711 l 1
 259.16 -26.9062 l 1
 295 -26.9062 l 1
 330.84 -26.9062 l 1
 330.84 9.78711 l 1
475.906 9.78711 m 1
 475.906 46.4805 l 1
 439.213 46.4805 l 1
 402.52 46.4805 l 1
 402.52 9.78711 l 1
 402.52 -26.9062 l 1
 439.213 -26.9062 l 1
 475.906 -26.9062 l 1
 475.906 9.78711 l 1
EndSplineSet
EndChar

StartChar: uni305D
Encoding: 12381 12381 32
Width: 589
VWidth: 0
Flags: HW
LayerCount: 2
Back
Fore
SplineSet
39 154 m 1
 39 410 l 1
 295 410 l 1
 551 410 l 1
 551 154 l 1
 551 -102 l 1
 295 -102 l 1
 39 -102 l 1
 39 154 l 1
475.906 297.36 m 1
 475.906 333.2 l 1
 295.854 333.2 l 1
 115.8 333.2 l 1
 115.8 297.36 l 1
 115.8 261.52 l 1
 187.48 261.52 l 1
 259.16 261.52 l 1
 259.16 225.68 l 1
 259.16 189.84 l 1
 187.48 189.84 l 1
 115.8 189.84 l 1
 115.8 154 l 1
 115.8 118.16 l 1
 151.64 118.16 l 1
 187.48 118.16 l 1
 187.48 82.3203 l 1
 187.48 46.4805 l 1
 151.64 46.4805 l 1
 115.8 46.4805 l 1
 115.8 9.78711 l 1
 115.8 -26.9062 l 1
 151.64 -26.9062 l 1
 187.48 -26.9062 l 1
 187.48 9.78711 l 1
 187.48 46.4805 l 1
 223.32 46.4805 l 1
 259.16 46.4805 l 1
 259.16 9.78711 l 1
 259.16 -26.9062 l 1
 295 -26.9062 l 1
 330.84 -26.9062 l 1
 330.84 117.307 l 1
 330.84 261.52 l 1
 403.373 261.52 l 1
 475.906 261.52 l 1
 475.906 297.36 l 1
475.906 81.4668 m 1
 475.906 189.84 l 1
 439.213 189.84 l 1
 402.52 189.84 l 1
 402.52 81.4668 l 1
 402.52 -26.9062 l 1
 439.213 -26.9062 l 1
 475.906 -26.9062 l 1
 475.906 81.4668 l 1
EndSplineSet
EndChar

StartChar: uni30C1
Encoding: 12481 12481 33
Width: 589
VWidth: 0
Flags: HW
LayerCount: 2
Back
Fore
SplineSet
330.84 225.68 m 1
 330.84 261.52 l 1
 366.68 261.52 l 1
 402.52 261.52 l 1
 402.52 225.68 l 1
 402.52 189.84 l 1
 366.68 189.84 l 1
 330.84 189.84 l 1
 330.84 225.68 l 1
39 154 m 1
 39 410 l 1
 295 410 l 1
 551 410 l 1
 551 154 l 1
 551 -102 l 1
 295 -102 l 1
 39 -102 l 1
 39 154 l 1
475.906 225.68 m 1
 475.906 333.2 l 1
 295.854 333.2 l 1
 115.8 333.2 l 1
 115.8 297.36 l 1
 115.8 261.52 l 1
 151.64 261.52 l 1
 187.48 261.52 l 1
 187.48 225.68 l 1
 187.48 189.84 l 1
 151.64 189.84 l 1
 115.8 189.84 l 1
 115.8 154 l 1
 115.8 118.16 l 1
 295.854 118.16 l 1
 475.906 118.16 l 1
 475.906 225.68 l 1
187.48 9.78711 m 1
 187.48 46.4805 l 1
 151.64 46.4805 l 1
 115.8 46.4805 l 1
 115.8 9.78711 l 1
 115.8 -26.9062 l 1
 151.64 -26.9062 l 1
 187.48 -26.9062 l 1
 187.48 9.78711 l 1
330.84 9.78711 m 1
 330.84 46.4805 l 1
 295 46.4805 l 1
 259.16 46.4805 l 1
 259.16 9.78711 l 1
 259.16 -26.9062 l 1
 295 -26.9062 l 1
 330.84 -26.9062 l 1
 330.84 9.78711 l 1
475.906 9.78711 m 1
 475.906 46.4805 l 1
 439.213 46.4805 l 1
 402.52 46.4805 l 1
 402.52 9.78711 l 1
 402.52 -26.9062 l 1
 439.213 -26.9062 l 1
 475.906 -26.9062 l 1
 475.906 9.78711 l 1
EndSplineSet
EndChar

StartChar: uni304C
Encoding: 12364 12364 34
Width: 589
VWidth: 0
Flags: W
HStem: -102 148.48<187.48 259.16 330.84 402.52> -102 75.0938<115.8 187.48 259.16 330.84 402.52 475.906> 46.4805 71.6797<115.8 187.48> 189.84 71.6797<115.8 187.48> 333.2 76.7998<115.8 475.906>
VStem: 39 148.48<46.4805 118.16 189.84 261.52> 39 76.7998<-26.9062 46.4805 118.16 189.84 261.52 333.2> 187.48 71.6797<-26.9062 46.4805> 330.84 71.6797<-26.9062 46.4805 189.84 261.52> 475.906 75.0938<-26.9062 46.4805 189.84 333.2>
LayerCount: 2
Back
Fore
SplineSet
39 154 m 1x5ac0
 39 410 l 1
 295 410 l 1
 551 410 l 1
 551 154 l 1
 551 -102 l 1
 295 -102 l 1
 39 -102 l 1
 39 154 l 1x5ac0
475.906 261.52 m 1
 475.906 333.2 l 1
 295.854 333.2 l 1
 115.8 333.2 l 1
 115.8 297.36 l 1
 115.8 261.52 l 1x3bc0
 151.64 261.52 l 1
 187.48 261.52 l 1
 187.48 225.68 l 1
 187.48 189.84 l 1x3cc0
 151.64 189.84 l 1
 115.8 189.84 l 1
 115.8 154 l 1
 115.8 118.16 l 1x3ac0
 151.64 118.16 l 1
 187.48 118.16 l 1x3cc0
 187.48 82.3203 l 1
 187.48 46.4805 l 1x9cc0
 151.64 46.4805 l 1
 115.8 46.4805 l 1
 115.8 9.78711 l 1
 115.8 -26.9062 l 1
 151.64 -26.9062 l 1
 187.48 -26.9062 l 1
 187.48 9.78711 l 1x7bc0
 187.48 46.4805 l 1x9cc0
 223.32 46.4805 l 1
 259.16 46.4805 l 1x99c0
 259.16 9.78711 l 1
 259.16 -26.9062 l 1
 295 -26.9062 l 1
 330.84 -26.9062 l 1x59c0
 330.84 9.78711 l 1
 330.84 46.4805 l 1
 366.68 46.4805 l 1
 402.52 46.4805 l 1x99c0
 402.52 9.78711 l 1
 402.52 -26.9062 l 1
 439.213 -26.9062 l 1
 475.906 -26.9062 l 1
 475.906 9.78711 l 1
 475.906 46.4805 l 1
 439.213 46.4805 l 1x79c0
 402.52 46.4805 l 1x99c0
 402.52 82.3203 l 1
 402.52 118.16 l 1
 366.68 118.16 l 1
 330.84 118.16 l 1x39c0
 330.84 189.84 l 1
 330.84 261.52 l 1
 366.68 261.52 l 1
 402.52 261.52 l 1
 402.52 225.68 l 1
 402.52 189.84 l 1
 439.213 189.84 l 1
 475.906 189.84 l 1
 475.906 261.52 l 1
EndSplineSet
EndChar

StartChar: uni307A
Encoding: 12410 12410 35
Width: 589
VWidth: 0
Flags: HW
LayerCount: 2
Back
Fore
SplineSet
259.16 225.68 m 1
 259.16 261.52 l 1
 295 261.52 l 1
 330.84 261.52 l 1
 330.84 225.68 l 1
 330.84 189.84 l 1
 295 189.84 l 1
 259.16 189.84 l 1
 259.16 225.68 l 1
39 154 m 1
 39 410 l 1
 295 410 l 1
 551 410 l 1
 551 154 l 1
 551 -102 l 1
 295 -102 l 1
 39 -102 l 1
 39 154 l 1
475.906 261.52 m 1
 475.906 333.2 l 1
 295.854 333.2 l 1
 115.8 333.2 l 1
 115.8 297.36 l 1
 115.8 261.52 l 1
 151.64 261.52 l 1
 187.48 261.52 l 1
 187.48 225.68 l 1
 187.48 189.84 l 1
 151.64 189.84 l 1
 115.8 189.84 l 1
 115.8 154 l 1
 115.8 118.16 l 1
 151.64 118.16 l 1
 187.48 118.16 l 1
 187.48 82.3203 l 1
 187.48 46.4805 l 1
 151.64 46.4805 l 1
 115.8 46.4805 l 1
 115.8 9.78711 l 1
 115.8 -26.9062 l 1
 151.64 -26.9062 l 1
 187.48 -26.9062 l 1
 187.48 9.78711 l 1
 187.48 46.4805 l 1
 223.32 46.4805 l 1
 259.16 46.4805 l 1
 259.16 9.78711 l 1
 259.16 -26.9062 l 1
 295 -26.9062 l 1
 330.84 -26.9062 l 1
 330.84 9.78711 l 1
 330.84 46.4805 l 1
 295 46.4805 l 1
 259.16 46.4805 l 1
 259.16 82.3203 l 1
 259.16 118.16 l 1
 295 118.16 l 1
 330.84 118.16 l 1
 330.84 154 l 1
 330.84 189.84 l 1
 403.373 189.84 l 1
 475.906 189.84 l 1
 475.906 261.52 l 1
475.906 45.627 m 1
 475.906 118.16 l 1
 439.213 118.16 l 1
 402.52 118.16 l 1
 402.52 45.627 l 1
 402.52 -26.9062 l 1
 439.213 -26.9062 l 1
 475.906 -26.9062 l 1
 475.906 45.627 l 1
EndSplineSet
EndChar

StartChar: uni3048
Encoding: 12360 12360 36
Width: 589
VWidth: 0
Flags: W
HStem: -102 148.48<187.48 259.16 330.84 402.52> -102 75.0938<115.8 187.48 259.16 330.84 402.52 475.906> 46.4805 71.6797<115.8 187.48> 118.16 71.6797<330.84 402.52> 189.84 71.6797<115.8 187.48 402.52 475.906> 333.2 76.7998<115.8 475.906>
VStem: 39 148.48<46.4805 118.16 189.84 261.52> 39 76.7998<-26.9062 46.4805 118.16 189.84 261.52 333.2> 187.48 71.6797<-26.9062 46.4805> 330.84 71.6797<-26.9062 46.4805 118.16 189.84> 475.906 75.0938<-26.9062 189.84 261.52 333.2>
LayerCount: 2
Back
Fore
SplineSet
330.84 154 m 1x1460
 330.84 189.84 l 1
 366.68 189.84 l 1
 402.52 189.84 l 1
 402.52 154 l 1
 402.52 118.16 l 1
 366.68 118.16 l 1
 330.84 118.16 l 1
 330.84 154 l 1x1460
39 154 m 1x4560
 39 410 l 1
 295 410 l 1
 551 410 l 1
 551 154 l 1
 551 -102 l 1
 295 -102 l 1
 39 -102 l 1
 39 154 l 1x4560
475.906 297.36 m 1
 475.906 333.2 l 1
 295.854 333.2 l 1
 115.8 333.2 l 1
 115.8 297.36 l 1
 115.8 261.52 l 1x0de0
 151.64 261.52 l 1
 187.48 261.52 l 1
 187.48 225.68 l 1
 187.48 189.84 l 1x0e60
 151.64 189.84 l 1
 115.8 189.84 l 1
 115.8 154 l 1
 115.8 118.16 l 1x2d60
 151.64 118.16 l 1
 187.48 118.16 l 1x2e60
 187.48 82.3203 l 1
 187.48 46.4805 l 1x8660
 151.64 46.4805 l 1
 115.8 46.4805 l 1
 115.8 9.78711 l 1
 115.8 -26.9062 l 1
 151.64 -26.9062 l 1
 187.48 -26.9062 l 1
 187.48 9.78711 l 1x65e0
 187.48 46.4805 l 1x8660
 223.32 46.4805 l 1
 259.16 46.4805 l 1x84e0
 259.16 9.78711 l 1
 259.16 -26.9062 l 1
 295 -26.9062 l 1
 330.84 -26.9062 l 1x44e0
 330.84 9.78711 l 1
 330.84 46.4805 l 1
 366.68 46.4805 l 1
 402.52 46.4805 l 1x84e0
 402.52 9.78711 l 1
 402.52 -26.9062 l 1
 439.213 -26.9062 l 1
 475.906 -26.9062 l 1
 475.906 81.4668 l 1
 475.906 189.84 l 1
 439.213 189.84 l 1x4ce0
 402.52 189.84 l 1x14e0
 402.52 225.68 l 1
 402.52 261.52 l 1
 439.213 261.52 l 1
 475.906 261.52 l 1x0ce0
 475.906 297.36 l 1
EndSplineSet
EndChar

StartChar: uni30CD
Encoding: 12493 12493 37
Width: 589
VWidth: 0
Flags: HW
LayerCount: 2
Back
Fore
SplineSet
187.48 154 m 1
 187.48 189.84 l 1
 223.32 189.84 l 1
 259.16 189.84 l 1
 259.16 154 l 1
 259.16 118.16 l 1
 223.32 118.16 l 1
 187.48 118.16 l 1
 187.48 154 l 1
39 154 m 1
 39 410 l 1
 295 410 l 1
 551 410 l 1
 551 154 l 1
 551 -102 l 1
 295 -102 l 1
 39 -102 l 1
 39 154 l 1
475.906 261.52 m 1
 475.906 333.2 l 1
 295.854 333.2 l 1
 115.8 333.2 l 1
 115.8 297.36 l 1
 115.8 261.52 l 1
 151.64 261.52 l 1
 187.48 261.52 l 1
 187.48 225.68 l 1
 187.48 189.84 l 1
 151.64 189.84 l 1
 115.8 189.84 l 1
 115.8 154 l 1
 115.8 118.16 l 1
 151.64 118.16 l 1
 187.48 118.16 l 1
 187.48 82.3203 l 1
 187.48 46.4805 l 1
 151.64 46.4805 l 1
 115.8 46.4805 l 1
 115.8 9.78711 l 1
 115.8 -26.9062 l 1
 151.64 -26.9062 l 1
 187.48 -26.9062 l 1
 187.48 9.78711 l 1
 187.48 46.4805 l 1
 223.32 46.4805 l 1
 259.16 46.4805 l 1
 259.16 9.78711 l 1
 259.16 -26.9062 l 1
 295 -26.9062 l 1
 330.84 -26.9062 l 1
 330.84 9.78711 l 1
 330.84 46.4805 l 1
 366.68 46.4805 l 1
 402.52 46.4805 l 1
 402.52 9.78711 l 1
 402.52 -26.9062 l 1
 439.213 -26.9062 l 1
 475.906 -26.9062 l 1
 475.906 45.627 l 1
 475.906 118.16 l 1
 439.213 118.16 l 1
 402.52 118.16 l 1
 402.52 154 l 1
 402.52 189.84 l 1
 439.213 189.84 l 1
 475.906 189.84 l 1
 475.906 261.52 l 1
EndSplineSet
EndChar

StartChar: uni30F3
Encoding: 12531 12531 38
Width: 589
VWidth: 0
Flags: HW
LayerCount: 2
Back
Fore
SplineSet
259.16 225.68 m 1
 259.16 261.52 l 1
 330.84 261.52 l 1
 402.52 261.52 l 1
 402.52 225.68 l 1
 402.52 189.84 l 1
 330.84 189.84 l 1
 259.16 189.84 l 1
 259.16 154 l 1
 259.16 118.16 l 1
 295 118.16 l 1
 330.84 118.16 l 1
 330.84 82.3203 l 1
 330.84 46.4805 l 1
 295 46.4805 l 1
 259.16 46.4805 l 1
 259.16 82.3203 l 1
 259.16 118.16 l 1
 223.32 118.16 l 1
 187.48 118.16 l 1
 187.48 154 l 1
 187.48 189.84 l 1
 223.32 189.84 l 1
 259.16 189.84 l 1
 259.16 225.68 l 1
39 154 m 1
 39 410 l 1
 295 410 l 1
 551 410 l 1
 551 154 l 1
 551 -102 l 1
 295 -102 l 1
 39 -102 l 1
 39 154 l 1
475.906 261.52 m 1
 475.906 333.2 l 1
 295.854 333.2 l 1
 115.8 333.2 l 1
 115.8 297.36 l 1
 115.8 261.52 l 1
 151.64 261.52 l 1
 187.48 261.52 l 1
 187.48 225.68 l 1
 187.48 189.84 l 1
 151.64 189.84 l 1
 115.8 189.84 l 1
 115.8 154 l 1
 115.8 118.16 l 1
 151.64 118.16 l 1
 187.48 118.16 l 1
 187.48 82.3203 l 1
 187.48 46.4805 l 1
 151.64 46.4805 l 1
 115.8 46.4805 l 1
 115.8 9.78711 l 1
 115.8 -26.9062 l 1
 151.64 -26.9062 l 1
 187.48 -26.9062 l 1
 187.48 9.78711 l 1
 187.48 46.4805 l 1
 223.32 46.4805 l 1
 259.16 46.4805 l 1
 259.16 9.78711 l 1
 259.16 -26.9062 l 1
 295 -26.9062 l 1
 330.84 -26.9062 l 1
 330.84 9.78711 l 1
 330.84 46.4805 l 1
 366.68 46.4805 l 1
 402.52 46.4805 l 1
 402.52 9.78711 l 1
 402.52 -26.9062 l 1
 439.213 -26.9062 l 1
 475.906 -26.9062 l 1
 475.906 9.78711 l 1
 475.906 46.4805 l 1
 439.213 46.4805 l 1
 402.52 46.4805 l 1
 402.52 118.16 l 1
 402.52 189.84 l 1
 439.213 189.84 l 1
 475.906 189.84 l 1
 475.906 261.52 l 1
EndSplineSet
EndChar

StartChar: uni306D
Encoding: 12397 12397 39
Width: 589
VWidth: 0
Flags: HW
LayerCount: 2
Back
Fore
SplineSet
259.16 82.3203 m 1
 259.16 118.16 l 1
 295 118.16 l 1
 330.84 118.16 l 1
 330.84 82.3203 l 1
 330.84 46.4805 l 1
 295 46.4805 l 1
 259.16 46.4805 l 1
 259.16 82.3203 l 1
39 154 m 1
 39 410 l 1
 295 410 l 1
 551 410 l 1
 551 154 l 1
 551 -102 l 1
 295 -102 l 1
 39 -102 l 1
 39 154 l 1
475.906 297.36 m 1
 475.906 333.2 l 1
 295.854 333.2 l 1
 115.8 333.2 l 1
 115.8 297.36 l 1
 115.8 261.52 l 1
 187.48 261.52 l 1
 259.16 261.52 l 1
 259.16 225.68 l 1
 259.16 189.84 l 1
 187.48 189.84 l 1
 115.8 189.84 l 1
 115.8 154 l 1
 115.8 118.16 l 1
 151.64 118.16 l 1
 187.48 118.16 l 1
 187.48 82.3203 l 1
 187.48 46.4805 l 1
 151.64 46.4805 l 1
 115.8 46.4805 l 1
 115.8 9.78711 l 1
 115.8 -26.9062 l 1
 151.64 -26.9062 l 1
 187.48 -26.9062 l 1
 187.48 9.78711 l 1
 187.48 46.4805 l 1
 223.32 46.4805 l 1
 259.16 46.4805 l 1
 259.16 9.78711 l 1
 259.16 -26.9062 l 1
 295 -26.9062 l 1
 330.84 -26.9062 l 1
 330.84 9.78711 l 1
 330.84 46.4805 l 1
 366.68 46.4805 l 1
 402.52 46.4805 l 1
 402.52 9.78711 l 1
 402.52 -26.9062 l 1
 439.213 -26.9062 l 1
 475.906 -26.9062 l 1
 475.906 45.627 l 1
 475.906 118.16 l 1
 403.373 118.16 l 1
 330.84 118.16 l 1
 330.84 189.84 l 1
 330.84 261.52 l 1
 403.373 261.52 l 1
 475.906 261.52 l 1
 475.906 297.36 l 1
EndSplineSet
EndChar

StartChar: uni3051
Encoding: 12369 12369 40
Width: 589
VWidth: 0
Flags: HW
LayerCount: 2
Back
Fore
SplineSet
39 154 m 1
 39 410 l 1
 295 410 l 1
 551 410 l 1
 551 154 l 1
 551 -102 l 1
 295 -102 l 1
 39 -102 l 1
 39 154 l 1
475.906 297.36 m 1
 475.906 333.2 l 1
 295.854 333.2 l 1
 115.8 333.2 l 1
 115.8 297.36 l 1
 115.8 261.52 l 1
 187.48 261.52 l 1
 259.16 261.52 l 1
 259.16 225.68 l 1
 259.16 189.84 l 1
 187.48 189.84 l 1
 115.8 189.84 l 1
 115.8 154 l 1
 115.8 118.16 l 1
 151.64 118.16 l 1
 187.48 118.16 l 1
 187.48 82.3203 l 1
 187.48 46.4805 l 1
 151.64 46.4805 l 1
 115.8 46.4805 l 1
 115.8 9.78711 l 1
 115.8 -26.9062 l 1
 151.64 -26.9062 l 1
 187.48 -26.9062 l 1
 187.48 9.78711 l 1
 187.48 46.4805 l 1
 223.32 46.4805 l 1
 259.16 46.4805 l 1
 259.16 9.78711 l 1
 259.16 -26.9062 l 1
 295 -26.9062 l 1
 330.84 -26.9062 l 1
 330.84 45.627 l 1
 330.84 118.16 l 1
 366.68 118.16 l 1
 402.52 118.16 l 1
 402.52 45.627 l 1
 402.52 -26.9062 l 1
 439.213 -26.9062 l 1
 475.906 -26.9062 l 1
 475.906 45.627 l 1
 475.906 118.16 l 1
 439.213 118.16 l 1
 402.52 118.16 l 1
 402.52 189.84 l 1
 402.52 261.52 l 1
 439.213 261.52 l 1
 475.906 261.52 l 1
 475.906 297.36 l 1
EndSplineSet
EndChar

StartChar: uni3044
Encoding: 12356 12356 41
Width: 589
VWidth: 0
Flags: W
HStem: -102 148.48<187.48 259.16 330.84 402.52> -102 75.0938<115.8 187.48 259.16 330.84 402.52 475.906> 46.4805 71.6797<115.8 187.48 402.52 475.906> 189.84 71.6797<115.8 187.48 330.84 402.52> 333.2 76.7998<115.8 475.906>
VStem: 39 148.48<46.4805 118.16 189.84 261.52> 39 76.7998<-26.9062 46.4805 118.16 189.84 261.52 333.2> 187.48 71.6797<-26.9062 46.4805> 330.84 71.6797<-26.9062 46.4805 189.84 261.52> 475.906 75.0938<-26.9062 46.4805 118.16 333.2>
LayerCount: 2
Back
Fore
SplineSet
330.84 225.68 m 1x18c0
 330.84 261.52 l 1
 366.68 261.52 l 1
 402.52 261.52 l 1
 402.52 225.68 l 1
 402.52 189.84 l 1
 366.68 189.84 l 1
 330.84 189.84 l 1
 330.84 225.68 l 1x18c0
39 154 m 1x5ac0
 39 410 l 1
 295 410 l 1
 551 410 l 1
 551 154 l 1
 551 -102 l 1
 295 -102 l 1
 39 -102 l 1
 39 154 l 1x5ac0
475.906 225.68 m 1
 475.906 333.2 l 1
 295.854 333.2 l 1
 115.8 333.2 l 1
 115.8 297.36 l 1
 115.8 261.52 l 1x3bc0
 151.64 261.52 l 1
 187.48 261.52 l 1
 187.48 225.68 l 1
 187.48 189.84 l 1x3cc0
 151.64 189.84 l 1
 115.8 189.84 l 1
 115.8 154 l 1
 115.8 118.16 l 1x3ac0
 151.64 118.16 l 1
 187.48 118.16 l 1x3cc0
 187.48 82.3203 l 1
 187.48 46.4805 l 1x9cc0
 151.64 46.4805 l 1
 115.8 46.4805 l 1
 115.8 9.78711 l 1
 115.8 -26.9062 l 1
 151.64 -26.9062 l 1
 187.48 -26.9062 l 1
 187.48 9.78711 l 1x7bc0
 187.48 46.4805 l 1x9cc0
 223.32 46.4805 l 1
 259.16 46.4805 l 1x99c0
 259.16 9.78711 l 1
 259.16 -26.9062 l 1
 295 -26.9062 l 1
 330.84 -26.9062 l 1x59c0
 330.84 9.78711 l 1
 330.84 46.4805 l 1
 366.68 46.4805 l 1
 402.52 46.4805 l 1x99c0
 402.52 9.78711 l 1
 402.52 -26.9062 l 1
 439.213 -26.9062 l 1
 475.906 -26.9062 l 1
 475.906 9.78711 l 1
 475.906 46.4805 l 1
 439.213 46.4805 l 1x79c0
 402.52 46.4805 l 1x99c0
 402.52 82.3203 l 1
 402.52 118.16 l 1
 439.213 118.16 l 1
 475.906 118.16 l 1x39c0
 475.906 225.68 l 1
EndSplineSet
EndChar

StartChar: uni308B
Encoding: 12427 12427 42
Width: 589
VWidth: 0
Flags: HW
LayerCount: 2
Back
Fore
SplineSet
39 154 m 1
 39 410 l 1
 295 410 l 1
 551 410 l 1
 551 154 l 1
 551 -102 l 1
 295 -102 l 1
 39 -102 l 1
 39 154 l 1
475.906 261.52 m 1
 475.906 333.2 l 1
 295.854 333.2 l 1
 115.8 333.2 l 1
 115.8 297.36 l 1
 115.8 261.52 l 1
 223.32 261.52 l 1
 330.84 261.52 l 1
 330.84 225.68 l 1
 330.84 189.84 l 1
 223.32 189.84 l 1
 115.8 189.84 l 1
 115.8 154 l 1
 115.8 118.16 l 1
 187.48 118.16 l 1
 259.16 118.16 l 1
 259.16 45.627 l 1
 259.16 -26.9062 l 1
 295 -26.9062 l 1
 330.84 -26.9062 l 1
 330.84 9.78711 l 1
 330.84 46.4805 l 1
 366.68 46.4805 l 1
 402.52 46.4805 l 1
 402.52 9.78711 l 1
 402.52 -26.9062 l 1
 439.213 -26.9062 l 1
 475.906 -26.9062 l 1
 475.906 9.78711 l 1
 475.906 46.4805 l 1
 439.213 46.4805 l 1
 402.52 46.4805 l 1
 402.52 82.3203 l 1
 402.52 118.16 l 1
 366.68 118.16 l 1
 330.84 118.16 l 1
 330.84 154 l 1
 330.84 189.84 l 1
 403.373 189.84 l 1
 475.906 189.84 l 1
 475.906 261.52 l 1
187.48 9.78711 m 1
 187.48 46.4805 l 1
 151.64 46.4805 l 1
 115.8 46.4805 l 1
 115.8 9.78711 l 1
 115.8 -26.9062 l 1
 151.64 -26.9062 l 1
 187.48 -26.9062 l 1
 187.48 9.78711 l 1
EndSplineSet
EndChar

StartChar: uni30F5
Encoding: 12533 12533 43
Width: 589
VWidth: 0
Flags: HW
LayerCount: 2
Back
Fore
SplineSet
187.48 154 m 1
 187.48 189.84 l 1
 223.32 189.84 l 1
 259.16 189.84 l 1
 259.16 154 l 1
 259.16 118.16 l 1
 295 118.16 l 1
 330.84 118.16 l 1
 330.84 154 l 1
 330.84 189.84 l 1
 366.68 189.84 l 1
 402.52 189.84 l 1
 402.52 154 l 1
 402.52 118.16 l 1
 366.68 118.16 l 1
 330.84 118.16 l 1
 330.84 82.3203 l 1
 330.84 46.4805 l 1
 295 46.4805 l 1
 259.16 46.4805 l 1
 259.16 82.3203 l 1
 259.16 118.16 l 1
 223.32 118.16 l 1
 187.48 118.16 l 1
 187.48 154 l 1
39 154 m 1
 39 410 l 1
 295 410 l 1
 551 410 l 1
 551 154 l 1
 551 -102 l 1
 295 -102 l 1
 39 -102 l 1
 39 154 l 1
475.906 153.146 m 1
 475.906 333.2 l 1
 295.854 333.2 l 1
 115.8 333.2 l 1
 115.8 297.36 l 1
 115.8 261.52 l 1
 151.64 261.52 l 1
 187.48 261.52 l 1
 187.48 225.68 l 1
 187.48 189.84 l 1
 151.64 189.84 l 1
 115.8 189.84 l 1
 115.8 154 l 1
 115.8 118.16 l 1
 151.64 118.16 l 1
 187.48 118.16 l 1
 187.48 82.3203 l 1
 187.48 46.4805 l 1
 151.64 46.4805 l 1
 115.8 46.4805 l 1
 115.8 9.78711 l 1
 115.8 -26.9062 l 1
 151.64 -26.9062 l 1
 187.48 -26.9062 l 1
 187.48 9.78711 l 1
 187.48 46.4805 l 1
 223.32 46.4805 l 1
 259.16 46.4805 l 1
 259.16 9.78711 l 1
 259.16 -26.9062 l 1
 295 -26.9062 l 1
 330.84 -26.9062 l 1
 330.84 9.78711 l 1
 330.84 46.4805 l 1
 366.68 46.4805 l 1
 402.52 46.4805 l 1
 402.52 9.78711 l 1
 402.52 -26.9062 l 1
 439.213 -26.9062 l 1
 475.906 -26.9062 l 1
 475.906 153.146 l 1
EndSplineSet
EndChar

StartChar: uni30C6
Encoding: 12486 12486 44
Width: 589
VWidth: 0
Flags: HW
LayerCount: 2
Back
Fore
SplineSet
39 154 m 1
 39 410 l 1
 295 410 l 1
 551 410 l 1
 551 154 l 1
 551 -102 l 1
 295 -102 l 1
 39 -102 l 1
 39 154 l 1
475.906 261.52 m 1
 475.906 333.2 l 1
 295.854 333.2 l 1
 115.8 333.2 l 1
 115.8 297.36 l 1
 115.8 261.52 l 1
 187.48 261.52 l 1
 259.16 261.52 l 1
 259.16 225.68 l 1
 259.16 189.84 l 1
 187.48 189.84 l 1
 115.8 189.84 l 1
 115.8 154 l 1
 115.8 118.16 l 1
 223.32 118.16 l 1
 330.84 118.16 l 1
 330.84 154 l 1
 330.84 189.84 l 1
 403.373 189.84 l 1
 475.906 189.84 l 1
 475.906 261.52 l 1
475.906 45.627 m 1
 475.906 118.16 l 1
 439.213 118.16 l 1
 402.52 118.16 l 1
 402.52 45.627 l 1
 402.52 -26.9062 l 1
 439.213 -26.9062 l 1
 475.906 -26.9062 l 1
 475.906 45.627 l 1
187.48 9.78711 m 1
 187.48 46.4805 l 1
 151.64 46.4805 l 1
 115.8 46.4805 l 1
 115.8 9.78711 l 1
 115.8 -26.9062 l 1
 151.64 -26.9062 l 1
 187.48 -26.9062 l 1
 187.48 9.78711 l 1
330.84 9.78711 m 1
 330.84 46.4805 l 1
 295 46.4805 l 1
 259.16 46.4805 l 1
 259.16 9.78711 l 1
 259.16 -26.9062 l 1
 295 -26.9062 l 1
 330.84 -26.9062 l 1
 330.84 9.78711 l 1
EndSplineSet
EndChar

StartChar: uni3075
Encoding: 12405 12405 45
Width: 589
VWidth: 0
Flags: HW
LayerCount: 2
Back
Fore
SplineSet
330.84 225.68 m 1
 330.84 261.52 l 1
 366.68 261.52 l 1
 402.52 261.52 l 1
 402.52 225.68 l 1
 402.52 189.84 l 1
 366.68 189.84 l 1
 330.84 189.84 l 1
 330.84 225.68 l 1
39 154 m 1
 39 410 l 1
 295 410 l 1
 551 410 l 1
 551 154 l 1
 551 -102 l 1
 295 -102 l 1
 39 -102 l 1
 39 154 l 1
475.906 225.68 m 1
 475.906 333.2 l 1
 295.854 333.2 l 1
 115.8 333.2 l 1
 115.8 297.36 l 1
 115.8 261.52 l 1
 187.48 261.52 l 1
 259.16 261.52 l 1
 259.16 225.68 l 1
 259.16 189.84 l 1
 187.48 189.84 l 1
 115.8 189.84 l 1
 115.8 154 l 1
 115.8 118.16 l 1
 151.64 118.16 l 1
 187.48 118.16 l 1
 187.48 82.3203 l 1
 187.48 46.4805 l 1
 151.64 46.4805 l 1
 115.8 46.4805 l 1
 115.8 9.78711 l 1
 115.8 -26.9062 l 1
 151.64 -26.9062 l 1
 187.48 -26.9062 l 1
 187.48 9.78711 l 1
 187.48 46.4805 l 1
 223.32 46.4805 l 1
 259.16 46.4805 l 1
 259.16 9.78711 l 1
 259.16 -26.9062 l 1
 295 -26.9062 l 1
 330.84 -26.9062 l 1
 330.84 9.78711 l 1
 330.84 46.4805 l 1
 295 46.4805 l 1
 259.16 46.4805 l 1
 259.16 82.3203 l 1
 259.16 118.16 l 1
 367.533 118.16 l 1
 475.906 118.16 l 1
 475.906 225.68 l 1
475.906 9.78711 m 1
 475.906 46.4805 l 1
 439.213 46.4805 l 1
 402.52 46.4805 l 1
 402.52 9.78711 l 1
 402.52 -26.9062 l 1
 439.213 -26.9062 l 1
 475.906 -26.9062 l 1
 475.906 9.78711 l 1
EndSplineSet
EndChar

StartChar: uni30B4
Encoding: 12468 12468 46
Width: 589
VWidth: 0
Flags: HW
LayerCount: 2
Back
Fore
SplineSet
39 154 m 1
 39 410 l 1
 295 410 l 1
 551 410 l 1
 551 154 l 1
 551 -102 l 1
 295 -102 l 1
 39 -102 l 1
 39 154 l 1
475.906 261.52 m 1
 475.906 333.2 l 1
 295.854 333.2 l 1
 115.8 333.2 l 1
 115.8 297.36 l 1
 115.8 261.52 l 1
 259.16 261.52 l 1
 402.52 261.52 l 1
 402.52 225.68 l 1
 402.52 189.84 l 1
 259.16 189.84 l 1
 115.8 189.84 l 1
 115.8 154 l 1
 115.8 118.16 l 1
 223.32 118.16 l 1
 330.84 118.16 l 1
 330.84 82.3203 l 1
 330.84 46.4805 l 1
 295 46.4805 l 1
 259.16 46.4805 l 1
 259.16 9.78711 l 1
 259.16 -26.9062 l 1
 295 -26.9062 l 1
 330.84 -26.9062 l 1
 330.84 9.78711 l 1
 330.84 46.4805 l 1
 366.68 46.4805 l 1
 402.52 46.4805 l 1
 402.52 9.78711 l 1
 402.52 -26.9062 l 1
 439.213 -26.9062 l 1
 475.906 -26.9062 l 1
 475.906 9.78711 l 1
 475.906 46.4805 l 1
 439.213 46.4805 l 1
 402.52 46.4805 l 1
 402.52 118.16 l 1
 402.52 189.84 l 1
 439.213 189.84 l 1
 475.906 189.84 l 1
 475.906 261.52 l 1
187.48 9.78711 m 1
 187.48 46.4805 l 1
 151.64 46.4805 l 1
 115.8 46.4805 l 1
 115.8 9.78711 l 1
 115.8 -26.9062 l 1
 151.64 -26.9062 l 1
 187.48 -26.9062 l 1
 187.48 9.78711 l 1
EndSplineSet
EndChar

StartChar: uni305E
Encoding: 12382 12382 47
Width: 589
VWidth: 0
Flags: HW
LayerCount: 2
Back
Fore
SplineSet
39 154 m 1
 39 410 l 1
 295 410 l 1
 551 410 l 1
 551 154 l 1
 551 -102 l 1
 295 -102 l 1
 39 -102 l 1
 39 154 l 1
475.906 261.52 m 1
 475.906 333.2 l 1
 295.854 333.2 l 1
 115.8 333.2 l 1
 115.8 297.36 l 1
 115.8 261.52 l 1
 151.64 261.52 l 1
 187.48 261.52 l 1
 187.48 225.68 l 1
 187.48 189.84 l 1
 151.64 189.84 l 1
 115.8 189.84 l 1
 115.8 154 l 1
 115.8 118.16 l 1
 151.64 118.16 l 1
 187.48 118.16 l 1
 187.48 82.3203 l 1
 187.48 46.4805 l 1
 151.64 46.4805 l 1
 115.8 46.4805 l 1
 115.8 9.78711 l 1
 115.8 -26.9062 l 1
 151.64 -26.9062 l 1
 187.48 -26.9062 l 1
 187.48 9.78711 l 1
 187.48 46.4805 l 1
 223.32 46.4805 l 1
 259.16 46.4805 l 1
 259.16 9.78711 l 1
 259.16 -26.9062 l 1
 295 -26.9062 l 1
 330.84 -26.9062 l 1
 330.84 81.4668 l 1
 330.84 189.84 l 1
 295 189.84 l 1
 259.16 189.84 l 1
 259.16 225.68 l 1
 259.16 261.52 l 1
 330.84 261.52 l 1
 402.52 261.52 l 1
 402.52 225.68 l 1
 402.52 189.84 l 1
 439.213 189.84 l 1
 475.906 189.84 l 1
 475.906 261.52 l 1
475.906 45.627 m 1
 475.906 118.16 l 1
 439.213 118.16 l 1
 402.52 118.16 l 1
 402.52 45.627 l 1
 402.52 -26.9062 l 1
 439.213 -26.9062 l 1
 475.906 -26.9062 l 1
 475.906 45.627 l 1
EndSplineSet
EndChar

StartChar: uni30C8
Encoding: 12488 12488 48
Width: 589
VWidth: 0
Flags: HW
LayerCount: 2
Back
Fore
SplineSet
39 154 m 1
 39 410 l 1
 295 410 l 1
 551 410 l 1
 551 154 l 1
 551 -102 l 1
 295 -102 l 1
 39 -102 l 1
 39 154 l 1
475.906 225.68 m 1
 475.906 333.2 l 1
 295.854 333.2 l 1
 115.8 333.2 l 1
 115.8 297.36 l 1
 115.8 261.52 l 1
 223.32 261.52 l 1
 330.84 261.52 l 1
 330.84 225.68 l 1
 330.84 189.84 l 1
 223.32 189.84 l 1
 115.8 189.84 l 1
 115.8 154 l 1
 115.8 118.16 l 1
 223.32 118.16 l 1
 330.84 118.16 l 1
 330.84 154 l 1
 330.84 189.84 l 1
 366.68 189.84 l 1
 402.52 189.84 l 1
 402.52 154 l 1
 402.52 118.16 l 1
 439.213 118.16 l 1
 475.906 118.16 l 1
 475.906 225.68 l 1
187.48 9.78711 m 1
 187.48 46.4805 l 1
 151.64 46.4805 l 1
 115.8 46.4805 l 1
 115.8 9.78711 l 1
 115.8 -26.9062 l 1
 151.64 -26.9062 l 1
 187.48 -26.9062 l 1
 187.48 9.78711 l 1
330.84 9.78711 m 1
 330.84 46.4805 l 1
 295 46.4805 l 1
 259.16 46.4805 l 1
 259.16 9.78711 l 1
 259.16 -26.9062 l 1
 295 -26.9062 l 1
 330.84 -26.9062 l 1
 330.84 9.78711 l 1
475.906 9.78711 m 1
 475.906 46.4805 l 1
 439.213 46.4805 l 1
 402.52 46.4805 l 1
 402.52 9.78711 l 1
 402.52 -26.9062 l 1
 439.213 -26.9062 l 1
 475.906 -26.9062 l 1
 475.906 9.78711 l 1
EndSplineSet
EndChar

StartChar: uni3092
Encoding: 12434 12434 49
Width: 589
VWidth: 0
Flags: HW
LayerCount: 2
Back
Fore
SplineSet
259.16 225.68 m 1
 259.16 261.52 l 1
 295 261.52 l 1
 330.84 261.52 l 1
 330.84 225.68 l 1
 330.84 189.84 l 1
 295 189.84 l 1
 259.16 189.84 l 1
 259.16 225.68 l 1
39 154 m 1
 39 410 l 1
 295 410 l 1
 551 410 l 1
 551 154 l 1
 551 -102 l 1
 295 -102 l 1
 39 -102 l 1
 39 154 l 1
475.906 261.52 m 1
 475.906 333.2 l 1
 295.854 333.2 l 1
 115.8 333.2 l 1
 115.8 297.36 l 1
 115.8 261.52 l 1
 151.64 261.52 l 1
 187.48 261.52 l 1
 187.48 225.68 l 1
 187.48 189.84 l 1
 151.64 189.84 l 1
 115.8 189.84 l 1
 115.8 154 l 1
 115.8 118.16 l 1
 187.48 118.16 l 1
 259.16 118.16 l 1
 259.16 45.627 l 1
 259.16 -26.9062 l 1
 295 -26.9062 l 1
 330.84 -26.9062 l 1
 330.84 45.627 l 1
 330.84 118.16 l 1
 366.68 118.16 l 1
 402.52 118.16 l 1
 402.52 154 l 1
 402.52 189.84 l 1
 439.213 189.84 l 1
 475.906 189.84 l 1
 475.906 261.52 l 1
187.48 9.78711 m 1
 187.48 46.4805 l 1
 151.64 46.4805 l 1
 115.8 46.4805 l 1
 115.8 9.78711 l 1
 115.8 -26.9062 l 1
 151.64 -26.9062 l 1
 187.48 -26.9062 l 1
 187.48 9.78711 l 1
475.906 9.78711 m 1
 475.906 46.4805 l 1
 439.213 46.4805 l 1
 402.52 46.4805 l 1
 402.52 9.78711 l 1
 402.52 -26.9062 l 1
 439.213 -26.9062 l 1
 475.906 -26.9062 l 1
 475.906 9.78711 l 1
EndSplineSet
EndChar

StartChar: uni30E5
Encoding: 12517 12517 50
Width: 589
VWidth: 0
Flags: HW
LayerCount: 2
Back
Fore
SplineSet
187.48 154 m 1
 187.48 189.84 l 1
 223.32 189.84 l 1
 259.16 189.84 l 1
 259.16 154 l 1
 259.16 118.16 l 1
 223.32 118.16 l 1
 187.48 118.16 l 1
 187.48 154 l 1
39 154 m 1
 39 410 l 1
 295 410 l 1
 551 410 l 1
 551 154 l 1
 551 -102 l 1
 295 -102 l 1
 39 -102 l 1
 39 154 l 1
475.906 261.52 m 1
 475.906 333.2 l 1
 295.854 333.2 l 1
 115.8 333.2 l 1
 115.8 297.36 l 1
 115.8 261.52 l 1
 151.64 261.52 l 1
 187.48 261.52 l 1
 187.48 225.68 l 1
 187.48 189.84 l 1
 151.64 189.84 l 1
 115.8 189.84 l 1
 115.8 154 l 1
 115.8 118.16 l 1
 151.64 118.16 l 1
 187.48 118.16 l 1
 187.48 82.3203 l 1
 187.48 46.4805 l 1
 151.64 46.4805 l 1
 115.8 46.4805 l 1
 115.8 9.78711 l 1
 115.8 -26.9062 l 1
 151.64 -26.9062 l 1
 187.48 -26.9062 l 1
 187.48 9.78711 l 1
 187.48 46.4805 l 1
 223.32 46.4805 l 1
 259.16 46.4805 l 1
 259.16 9.78711 l 1
 259.16 -26.9062 l 1
 295 -26.9062 l 1
 330.84 -26.9062 l 1
 330.84 81.4668 l 1
 330.84 189.84 l 1
 403.373 189.84 l 1
 475.906 189.84 l 1
 475.906 261.52 l 1
475.906 9.78711 m 1
 475.906 46.4805 l 1
 439.213 46.4805 l 1
 402.52 46.4805 l 1
 402.52 9.78711 l 1
 402.52 -26.9062 l 1
 439.213 -26.9062 l 1
 475.906 -26.9062 l 1
 475.906 9.78711 l 1
EndSplineSet
EndChar

StartChar: uni30D7
Encoding: 12503 12503 51
Width: 589
VWidth: 0
Flags: HW
LayerCount: 2
Back
Fore
SplineSet
259.16 225.68 m 1
 259.16 261.52 l 1
 295 261.52 l 1
 330.84 261.52 l 1
 330.84 225.68 l 1
 330.84 189.84 l 1
 295 189.84 l 1
 259.16 189.84 l 1
 259.16 154 l 1
 259.16 118.16 l 1
 223.32 118.16 l 1
 187.48 118.16 l 1
 187.48 154 l 1
 187.48 189.84 l 1
 223.32 189.84 l 1
 259.16 189.84 l 1
 259.16 225.68 l 1
39 154 m 1
 39 410 l 1
 295 410 l 1
 551 410 l 1
 551 154 l 1
 551 -102 l 1
 295 -102 l 1
 39 -102 l 1
 39 154 l 1
475.906 261.52 m 1
 475.906 333.2 l 1
 295.854 333.2 l 1
 115.8 333.2 l 1
 115.8 297.36 l 1
 115.8 261.52 l 1
 151.64 261.52 l 1
 187.48 261.52 l 1
 187.48 225.68 l 1
 187.48 189.84 l 1
 151.64 189.84 l 1
 115.8 189.84 l 1
 115.8 154 l 1
 115.8 118.16 l 1
 151.64 118.16 l 1
 187.48 118.16 l 1
 187.48 82.3203 l 1
 187.48 46.4805 l 1
 151.64 46.4805 l 1
 115.8 46.4805 l 1
 115.8 9.78711 l 1
 115.8 -26.9062 l 1
 151.64 -26.9062 l 1
 187.48 -26.9062 l 1
 187.48 9.78711 l 1
 187.48 46.4805 l 1
 223.32 46.4805 l 1
 259.16 46.4805 l 1
 259.16 9.78711 l 1
 259.16 -26.9062 l 1
 295 -26.9062 l 1
 330.84 -26.9062 l 1
 330.84 9.78711 l 1
 330.84 46.4805 l 1
 366.68 46.4805 l 1
 402.52 46.4805 l 1
 402.52 9.78711 l 1
 402.52 -26.9062 l 1
 439.213 -26.9062 l 1
 475.906 -26.9062 l 1
 475.906 9.78711 l 1
 475.906 46.4805 l 1
 439.213 46.4805 l 1
 402.52 46.4805 l 1
 402.52 82.3203 l 1
 402.52 118.16 l 1
 366.68 118.16 l 1
 330.84 118.16 l 1
 330.84 154 l 1
 330.84 189.84 l 1
 403.373 189.84 l 1
 475.906 189.84 l 1
 475.906 261.52 l 1
EndSplineSet
EndChar

StartChar: uni3056
Encoding: 12374 12374 52
Width: 589
VWidth: 0
Flags: HW
LayerCount: 2
Back
Fore
SplineSet
39 154 m 1
 39 410 l 1
 295 410 l 1
 551 410 l 1
 551 154 l 1
 551 -102 l 1
 295 -102 l 1
 39 -102 l 1
 39 154 l 1
475.906 297.36 m 1
 475.906 333.2 l 1
 295.854 333.2 l 1
 115.8 333.2 l 1
 115.8 297.36 l 1
 115.8 261.52 l 1
 151.64 261.52 l 1
 187.48 261.52 l 1
 187.48 225.68 l 1
 187.48 189.84 l 1
 151.64 189.84 l 1
 115.8 189.84 l 1
 115.8 154 l 1
 115.8 118.16 l 1
 151.64 118.16 l 1
 187.48 118.16 l 1
 187.48 82.3203 l 1
 187.48 46.4805 l 1
 151.64 46.4805 l 1
 115.8 46.4805 l 1
 115.8 9.78711 l 1
 115.8 -26.9062 l 1
 151.64 -26.9062 l 1
 187.48 -26.9062 l 1
 187.48 9.78711 l 1
 187.48 46.4805 l 1
 223.32 46.4805 l 1
 259.16 46.4805 l 1
 259.16 9.78711 l 1
 259.16 -26.9062 l 1
 295 -26.9062 l 1
 330.84 -26.9062 l 1
 330.84 45.627 l 1
 330.84 118.16 l 1
 366.68 118.16 l 1
 402.52 118.16 l 1
 402.52 45.627 l 1
 402.52 -26.9062 l 1
 439.213 -26.9062 l 1
 475.906 -26.9062 l 1
 475.906 81.4668 l 1
 475.906 189.84 l 1
 367.533 189.84 l 1
 259.16 189.84 l 1
 259.16 225.68 l 1
 259.16 261.52 l 1
 367.533 261.52 l 1
 475.906 261.52 l 1
 475.906 297.36 l 1
EndSplineSet
EndChar

StartChar: uni3055
Encoding: 12373 12373 53
Width: 589
VWidth: 0
Flags: HW
LayerCount: 2
Back
Fore
SplineSet
330.84 225.68 m 1
 330.84 261.52 l 1
 366.68 261.52 l 1
 402.52 261.52 l 1
 402.52 225.68 l 1
 402.52 189.84 l 1
 366.68 189.84 l 1
 330.84 189.84 l 1
 330.84 225.68 l 1
39 154 m 1
 39 410 l 1
 295 410 l 1
 551 410 l 1
 551 154 l 1
 551 -102 l 1
 295 -102 l 1
 39 -102 l 1
 39 154 l 1
475.906 153.146 m 1
 475.906 333.2 l 1
 295.854 333.2 l 1
 115.8 333.2 l 1
 115.8 297.36 l 1
 115.8 261.52 l 1
 187.48 261.52 l 1
 259.16 261.52 l 1
 259.16 225.68 l 1
 259.16 189.84 l 1
 187.48 189.84 l 1
 115.8 189.84 l 1
 115.8 154 l 1
 115.8 118.16 l 1
 151.64 118.16 l 1
 187.48 118.16 l 1
 187.48 82.3203 l 1
 187.48 46.4805 l 1
 151.64 46.4805 l 1
 115.8 46.4805 l 1
 115.8 9.78711 l 1
 115.8 -26.9062 l 1
 151.64 -26.9062 l 1
 187.48 -26.9062 l 1
 187.48 9.78711 l 1
 187.48 46.4805 l 1
 223.32 46.4805 l 1
 259.16 46.4805 l 1
 259.16 9.78711 l 1
 259.16 -26.9062 l 1
 295 -26.9062 l 1
 330.84 -26.9062 l 1
 330.84 45.627 l 1
 330.84 118.16 l 1
 366.68 118.16 l 1
 402.52 118.16 l 1
 402.52 45.627 l 1
 402.52 -26.9062 l 1
 439.213 -26.9062 l 1
 475.906 -26.9062 l 1
 475.906 153.146 l 1
EndSplineSet
EndChar

StartChar: uni30DE
Encoding: 12510 12510 54
Width: 589
VWidth: 0
Flags: HW
LayerCount: 2
Back
Fore
SplineSet
39 154 m 1
 39 410 l 1
 295 410 l 1
 551 410 l 1
 551 154 l 1
 551 -102 l 1
 295 -102 l 1
 39 -102 l 1
 39 154 l 1
475.906 261.52 m 1
 475.906 333.2 l 1
 295.854 333.2 l 1
 115.8 333.2 l 1
 115.8 297.36 l 1
 115.8 261.52 l 1
 187.48 261.52 l 1
 259.16 261.52 l 1
 259.16 189.84 l 1
 259.16 118.16 l 1
 223.32 118.16 l 1
 187.48 118.16 l 1
 187.48 154 l 1
 187.48 189.84 l 1
 151.64 189.84 l 1
 115.8 189.84 l 1
 115.8 154 l 1
 115.8 118.16 l 1
 151.64 118.16 l 1
 187.48 118.16 l 1
 187.48 82.3203 l 1
 187.48 46.4805 l 1
 151.64 46.4805 l 1
 115.8 46.4805 l 1
 115.8 9.78711 l 1
 115.8 -26.9062 l 1
 151.64 -26.9062 l 1
 187.48 -26.9062 l 1
 187.48 9.78711 l 1
 187.48 46.4805 l 1
 223.32 46.4805 l 1
 259.16 46.4805 l 1
 259.16 9.78711 l 1
 259.16 -26.9062 l 1
 295 -26.9062 l 1
 330.84 -26.9062 l 1
 330.84 45.627 l 1
 330.84 118.16 l 1
 366.68 118.16 l 1
 402.52 118.16 l 1
 402.52 154 l 1
 402.52 189.84 l 1
 439.213 189.84 l 1
 475.906 189.84 l 1
 475.906 261.52 l 1
475.906 9.78711 m 1
 475.906 46.4805 l 1
 439.213 46.4805 l 1
 402.52 46.4805 l 1
 402.52 9.78711 l 1
 402.52 -26.9062 l 1
 439.213 -26.9062 l 1
 475.906 -26.9062 l 1
 475.906 9.78711 l 1
EndSplineSet
EndChar

StartChar: uni306A
Encoding: 12394 12394 55
Width: 589
VWidth: 0
Flags: HW
LayerCount: 2
Back
Fore
SplineSet
259.16 225.68 m 1
 259.16 261.52 l 1
 295 261.52 l 1
 330.84 261.52 l 1
 330.84 225.68 l 1
 330.84 189.84 l 1
 366.68 189.84 l 1
 402.52 189.84 l 1
 402.52 154 l 1
 402.52 118.16 l 1
 366.68 118.16 l 1
 330.84 118.16 l 1
 330.84 82.3203 l 1
 330.84 46.4805 l 1
 295 46.4805 l 1
 259.16 46.4805 l 1
 259.16 82.3203 l 1
 259.16 118.16 l 1
 295 118.16 l 1
 330.84 118.16 l 1
 330.84 154 l 1
 330.84 189.84 l 1
 295 189.84 l 1
 259.16 189.84 l 1
 259.16 225.68 l 1
39 154 m 1
 39 410 l 1
 295 410 l 1
 551 410 l 1
 551 154 l 1
 551 -102 l 1
 295 -102 l 1
 39 -102 l 1
 39 154 l 1
475.906 153.146 m 1
 475.906 333.2 l 1
 295.854 333.2 l 1
 115.8 333.2 l 1
 115.8 297.36 l 1
 115.8 261.52 l 1
 151.64 261.52 l 1
 187.48 261.52 l 1
 187.48 225.68 l 1
 187.48 189.84 l 1
 151.64 189.84 l 1
 115.8 189.84 l 1
 115.8 154 l 1
 115.8 118.16 l 1
 151.64 118.16 l 1
 187.48 118.16 l 1
 187.48 82.3203 l 1
 187.48 46.4805 l 1
 151.64 46.4805 l 1
 115.8 46.4805 l 1
 115.8 9.78711 l 1
 115.8 -26.9062 l 1
 151.64 -26.9062 l 1
 187.48 -26.9062 l 1
 187.48 9.78711 l 1
 187.48 46.4805 l 1
 223.32 46.4805 l 1
 259.16 46.4805 l 1
 259.16 9.78711 l 1
 259.16 -26.9062 l 1
 295 -26.9062 l 1
 330.84 -26.9062 l 1
 330.84 9.78711 l 1
 330.84 46.4805 l 1
 366.68 46.4805 l 1
 402.52 46.4805 l 1
 402.52 9.78711 l 1
 402.52 -26.9062 l 1
 439.213 -26.9062 l 1
 475.906 -26.9062 l 1
 475.906 153.146 l 1
EndSplineSet
EndChar

StartChar: uni30A3
Encoding: 12451 12451 56
Width: 589
VWidth: 0
Flags: HW
LayerCount: 2
Back
Fore
SplineSet
259.16 225.68 m 1
 259.16 261.52 l 1
 330.84 261.52 l 1
 402.52 261.52 l 1
 402.52 225.68 l 1
 402.52 189.84 l 1
 330.84 189.84 l 1
 259.16 189.84 l 1
 259.16 225.68 l 1
39 154 m 1
 39 410 l 1
 295 410 l 1
 551 410 l 1
 551 154 l 1
 551 -102 l 1
 295 -102 l 1
 39 -102 l 1
 39 154 l 1
475.906 261.52 m 1
 475.906 333.2 l 1
 295.854 333.2 l 1
 115.8 333.2 l 1
 115.8 297.36 l 1
 115.8 261.52 l 1
 151.64 261.52 l 1
 187.48 261.52 l 1
 187.48 225.68 l 1
 187.48 189.84 l 1
 151.64 189.84 l 1
 115.8 189.84 l 1
 115.8 154 l 1
 115.8 118.16 l 1
 187.48 118.16 l 1
 259.16 118.16 l 1
 259.16 45.627 l 1
 259.16 -26.9062 l 1
 295 -26.9062 l 1
 330.84 -26.9062 l 1
 330.84 45.627 l 1
 330.84 118.16 l 1
 366.68 118.16 l 1
 402.52 118.16 l 1
 402.52 45.627 l 1
 402.52 -26.9062 l 1
 439.213 -26.9062 l 1
 475.906 -26.9062 l 1
 475.906 45.627 l 1
 475.906 118.16 l 1
 439.213 118.16 l 1
 402.52 118.16 l 1
 402.52 154 l 1
 402.52 189.84 l 1
 439.213 189.84 l 1
 475.906 189.84 l 1
 475.906 261.52 l 1
187.48 9.78711 m 1
 187.48 46.4805 l 1
 151.64 46.4805 l 1
 115.8 46.4805 l 1
 115.8 9.78711 l 1
 115.8 -26.9062 l 1
 151.64 -26.9062 l 1
 187.48 -26.9062 l 1
 187.48 9.78711 l 1
EndSplineSet
EndChar

StartChar: uni30F2
Encoding: 12530 12530 57
Width: 589
VWidth: 0
Flags: HW
LayerCount: 2
Back
Fore
SplineSet
259.16 82.3203 m 1
 259.16 118.16 l 1
 295 118.16 l 1
 330.84 118.16 l 1
 330.84 82.3203 l 1
 330.84 46.4805 l 1
 295 46.4805 l 1
 259.16 46.4805 l 1
 259.16 82.3203 l 1
330.84 225.68 m 1
 330.84 261.52 l 1
 366.68 261.52 l 1
 402.52 261.52 l 1
 402.52 225.68 l 1
 402.52 189.84 l 1
 366.68 189.84 l 1
 330.84 189.84 l 1
 330.84 225.68 l 1
39 154 m 1
 39 410 l 1
 295 410 l 1
 551 410 l 1
 551 154 l 1
 551 -102 l 1
 295 -102 l 1
 39 -102 l 1
 39 154 l 1
475.906 225.68 m 1
 475.906 333.2 l 1
 295.854 333.2 l 1
 115.8 333.2 l 1
 115.8 297.36 l 1
 115.8 261.52 l 1
 187.48 261.52 l 1
 259.16 261.52 l 1
 259.16 189.84 l 1
 259.16 118.16 l 1
 223.32 118.16 l 1
 187.48 118.16 l 1
 187.48 154 l 1
 187.48 189.84 l 1
 151.64 189.84 l 1
 115.8 189.84 l 1
 115.8 154 l 1
 115.8 118.16 l 1
 151.64 118.16 l 1
 187.48 118.16 l 1
 187.48 82.3203 l 1
 187.48 46.4805 l 1
 151.64 46.4805 l 1
 115.8 46.4805 l 1
 115.8 9.78711 l 1
 115.8 -26.9062 l 1
 151.64 -26.9062 l 1
 187.48 -26.9062 l 1
 187.48 9.78711 l 1
 187.48 46.4805 l 1
 223.32 46.4805 l 1
 259.16 46.4805 l 1
 259.16 9.78711 l 1
 259.16 -26.9062 l 1
 295 -26.9062 l 1
 330.84 -26.9062 l 1
 330.84 9.78711 l 1
 330.84 46.4805 l 1
 366.68 46.4805 l 1
 402.52 46.4805 l 1
 402.52 9.78711 l 1
 402.52 -26.9062 l 1
 439.213 -26.9062 l 1
 475.906 -26.9062 l 1
 475.906 9.78711 l 1
 475.906 46.4805 l 1
 439.213 46.4805 l 1
 402.52 46.4805 l 1
 402.52 82.3203 l 1
 402.52 118.16 l 1
 439.213 118.16 l 1
 475.906 118.16 l 1
 475.906 225.68 l 1
EndSplineSet
EndChar

StartChar: uni30AB
Encoding: 12459 12459 58
Width: 589
VWidth: 0
Flags: HW
LayerCount: 2
Back
Fore
SplineSet
39 154 m 1
 39 410 l 1
 295 410 l 1
 551 410 l 1
 551 154 l 1
 551 -102 l 1
 295 -102 l 1
 39 -102 l 1
 39 154 l 1
475.906 297.36 m 1
 475.906 333.2 l 1
 295.854 333.2 l 1
 115.8 333.2 l 1
 115.8 297.36 l 1
 115.8 261.52 l 1
 151.64 261.52 l 1
 187.48 261.52 l 1
 187.48 225.68 l 1
 187.48 189.84 l 1
 151.64 189.84 l 1
 115.8 189.84 l 1
 115.8 154 l 1
 115.8 118.16 l 1
 187.48 118.16 l 1
 259.16 118.16 l 1
 259.16 45.627 l 1
 259.16 -26.9062 l 1
 295 -26.9062 l 1
 330.84 -26.9062 l 1
 330.84 81.4668 l 1
 330.84 189.84 l 1
 295 189.84 l 1
 259.16 189.84 l 1
 259.16 225.68 l 1
 259.16 261.52 l 1
 367.533 261.52 l 1
 475.906 261.52 l 1
 475.906 297.36 l 1
475.906 45.627 m 1
 475.906 118.16 l 1
 439.213 118.16 l 1
 402.52 118.16 l 1
 402.52 45.627 l 1
 402.52 -26.9062 l 1
 439.213 -26.9062 l 1
 475.906 -26.9062 l 1
 475.906 45.627 l 1
187.48 9.78711 m 1
 187.48 46.4805 l 1
 151.64 46.4805 l 1
 115.8 46.4805 l 1
 115.8 9.78711 l 1
 115.8 -26.9062 l 1
 151.64 -26.9062 l 1
 187.48 -26.9062 l 1
 187.48 9.78711 l 1
EndSplineSet
EndChar

StartChar: uni3091
Encoding: 12433 12433 59
Width: 589
VWidth: 0
Flags: HW
LayerCount: 2
Back
Fore
SplineSet
39 154 m 1
 39 410 l 1
 295 410 l 1
 551 410 l 1
 551 154 l 1
 551 -102 l 1
 295 -102 l 1
 39 -102 l 1
 39 154 l 1
475.906 225.68 m 1
 475.906 333.2 l 1
 295.854 333.2 l 1
 115.8 333.2 l 1
 115.8 297.36 l 1
 115.8 261.52 l 1
 187.48 261.52 l 1
 259.16 261.52 l 1
 259.16 225.68 l 1
 259.16 189.84 l 1
 187.48 189.84 l 1
 115.8 189.84 l 1
 115.8 154 l 1
 115.8 118.16 l 1
 187.48 118.16 l 1
 259.16 118.16 l 1
 259.16 45.627 l 1
 259.16 -26.9062 l 1
 295 -26.9062 l 1
 330.84 -26.9062 l 1
 330.84 45.627 l 1
 330.84 118.16 l 1
 403.373 118.16 l 1
 475.906 118.16 l 1
 475.906 225.68 l 1
187.48 9.78711 m 1
 187.48 46.4805 l 1
 151.64 46.4805 l 1
 115.8 46.4805 l 1
 115.8 9.78711 l 1
 115.8 -26.9062 l 1
 151.64 -26.9062 l 1
 187.48 -26.9062 l 1
 187.48 9.78711 l 1
475.906 9.78711 m 1
 475.906 46.4805 l 1
 439.213 46.4805 l 1
 402.52 46.4805 l 1
 402.52 9.78711 l 1
 402.52 -26.9062 l 1
 439.213 -26.9062 l 1
 475.906 -26.9062 l 1
 475.906 9.78711 l 1
EndSplineSet
EndChar

StartChar: uni30CB
Encoding: 12491 12491 60
Width: 589
VWidth: 0
Flags: HW
LayerCount: 2
Back
Fore
SplineSet
39 154 m 1
 39 410 l 1
 295 410 l 1
 551 410 l 1
 551 154 l 1
 551 -102 l 1
 295 -102 l 1
 39 -102 l 1
 39 154 l 1
475.906 153.146 m 1
 475.906 333.2 l 1
 295.854 333.2 l 1
 115.8 333.2 l 1
 115.8 297.36 l 1
 115.8 261.52 l 1
 151.64 261.52 l 1
 187.48 261.52 l 1
 187.48 225.68 l 1
 187.48 189.84 l 1
 151.64 189.84 l 1
 115.8 189.84 l 1
 115.8 154 l 1
 115.8 118.16 l 1
 223.32 118.16 l 1
 330.84 118.16 l 1
 330.84 154 l 1
 330.84 189.84 l 1
 295 189.84 l 1
 259.16 189.84 l 1
 259.16 225.68 l 1
 259.16 261.52 l 1
 330.84 261.52 l 1
 402.52 261.52 l 1
 402.52 117.307 l 1
 402.52 -26.9062 l 1
 439.213 -26.9062 l 1
 475.906 -26.9062 l 1
 475.906 153.146 l 1
187.48 9.78711 m 1
 187.48 46.4805 l 1
 151.64 46.4805 l 1
 115.8 46.4805 l 1
 115.8 9.78711 l 1
 115.8 -26.9062 l 1
 151.64 -26.9062 l 1
 187.48 -26.9062 l 1
 187.48 9.78711 l 1
330.84 9.78711 m 1
 330.84 46.4805 l 1
 295 46.4805 l 1
 259.16 46.4805 l 1
 259.16 9.78711 l 1
 259.16 -26.9062 l 1
 295 -26.9062 l 1
 330.84 -26.9062 l 1
 330.84 9.78711 l 1
EndSplineSet
EndChar

StartChar: uni30AC
Encoding: 12460 12460 61
Width: 589
VWidth: 0
Flags: HW
LayerCount: 2
Back
Fore
SplineSet
39 154 m 1
 39 410 l 1
 295 410 l 1
 551 410 l 1
 551 154 l 1
 551 -102 l 1
 295 -102 l 1
 39 -102 l 1
 39 154 l 1
475.906 225.68 m 1
 475.906 333.2 l 1
 295.854 333.2 l 1
 115.8 333.2 l 1
 115.8 297.36 l 1
 115.8 261.52 l 1
 259.16 261.52 l 1
 402.52 261.52 l 1
 402.52 189.84 l 1
 402.52 118.16 l 1
 439.213 118.16 l 1
 475.906 118.16 l 1
 475.906 225.68 l 1
330.84 81.4668 m 1
 330.84 189.84 l 1
 223.32 189.84 l 1
 115.8 189.84 l 1
 115.8 154 l 1
 115.8 118.16 l 1
 187.48 118.16 l 1
 259.16 118.16 l 1
 259.16 45.627 l 1
 259.16 -26.9062 l 1
 295 -26.9062 l 1
 330.84 -26.9062 l 1
 330.84 81.4668 l 1
187.48 9.78711 m 1
 187.48 46.4805 l 1
 151.64 46.4805 l 1
 115.8 46.4805 l 1
 115.8 9.78711 l 1
 115.8 -26.9062 l 1
 151.64 -26.9062 l 1
 187.48 -26.9062 l 1
 187.48 9.78711 l 1
475.906 9.78711 m 1
 475.906 46.4805 l 1
 439.213 46.4805 l 1
 402.52 46.4805 l 1
 402.52 9.78711 l 1
 402.52 -26.9062 l 1
 439.213 -26.9062 l 1
 475.906 -26.9062 l 1
 475.906 9.78711 l 1
EndSplineSet
EndChar

StartChar: uni3086
Encoding: 12422 12422 62
Width: 589
VWidth: 0
Flags: HW
LayerCount: 2
Back
Fore
SplineSet
259.16 225.68 m 1
 259.16 261.52 l 1
 330.84 261.52 l 1
 402.52 261.52 l 1
 402.52 225.68 l 1
 402.52 189.84 l 1
 330.84 189.84 l 1
 259.16 189.84 l 1
 259.16 225.68 l 1
39 154 m 1
 39 410 l 1
 295 410 l 1
 551 410 l 1
 551 154 l 1
 551 -102 l 1
 295 -102 l 1
 39 -102 l 1
 39 154 l 1
475.906 153.146 m 1
 475.906 333.2 l 1
 295.854 333.2 l 1
 115.8 333.2 l 1
 115.8 297.36 l 1
 115.8 261.52 l 1
 151.64 261.52 l 1
 187.48 261.52 l 1
 187.48 225.68 l 1
 187.48 189.84 l 1
 151.64 189.84 l 1
 115.8 189.84 l 1
 115.8 154 l 1
 115.8 118.16 l 1
 187.48 118.16 l 1
 259.16 118.16 l 1
 259.16 45.627 l 1
 259.16 -26.9062 l 1
 295 -26.9062 l 1
 330.84 -26.9062 l 1
 330.84 9.78711 l 1
 330.84 46.4805 l 1
 366.68 46.4805 l 1
 402.52 46.4805 l 1
 402.52 9.78711 l 1
 402.52 -26.9062 l 1
 439.213 -26.9062 l 1
 475.906 -26.9062 l 1
 475.906 153.146 l 1
187.48 9.78711 m 1
 187.48 46.4805 l 1
 151.64 46.4805 l 1
 115.8 46.4805 l 1
 115.8 9.78711 l 1
 115.8 -26.9062 l 1
 151.64 -26.9062 l 1
 187.48 -26.9062 l 1
 187.48 9.78711 l 1
EndSplineSet
EndChar

StartChar: uni3064
Encoding: 12388 12388 63
Width: 589
VWidth: 0
Flags: HW
LayerCount: 2
Back
Fore
SplineSet
259.16 82.3203 m 1
 259.16 118.16 l 1
 295 118.16 l 1
 330.84 118.16 l 1
 330.84 82.3203 l 1
 330.84 46.4805 l 1
 295 46.4805 l 1
 259.16 46.4805 l 1
 259.16 82.3203 l 1
39 154 m 1
 39 410 l 1
 295 410 l 1
 551 410 l 1
 551 154 l 1
 551 -102 l 1
 295 -102 l 1
 39 -102 l 1
 39 154 l 1
475.906 297.36 m 1
 475.906 333.2 l 1
 295.854 333.2 l 1
 115.8 333.2 l 1
 115.8 297.36 l 1
 115.8 261.52 l 1
 151.64 261.52 l 1
 187.48 261.52 l 1
 187.48 225.68 l 1
 187.48 189.84 l 1
 151.64 189.84 l 1
 115.8 189.84 l 1
 115.8 154 l 1
 115.8 118.16 l 1
 151.64 118.16 l 1
 187.48 118.16 l 1
 187.48 82.3203 l 1
 187.48 46.4805 l 1
 151.64 46.4805 l 1
 115.8 46.4805 l 1
 115.8 9.78711 l 1
 115.8 -26.9062 l 1
 151.64 -26.9062 l 1
 187.48 -26.9062 l 1
 187.48 9.78711 l 1
 187.48 46.4805 l 1
 223.32 46.4805 l 1
 259.16 46.4805 l 1
 259.16 9.78711 l 1
 259.16 -26.9062 l 1
 295 -26.9062 l 1
 330.84 -26.9062 l 1
 330.84 9.78711 l 1
 330.84 46.4805 l 1
 366.68 46.4805 l 1
 402.52 46.4805 l 1
 402.52 9.78711 l 1
 402.52 -26.9062 l 1
 439.213 -26.9062 l 1
 475.906 -26.9062 l 1
 475.906 81.4668 l 1
 475.906 189.84 l 1
 403.373 189.84 l 1
 330.84 189.84 l 1
 330.84 225.68 l 1
 330.84 261.52 l 1
 403.373 261.52 l 1
 475.906 261.52 l 1
 475.906 297.36 l 1
EndSplineSet
EndChar

StartChar: uni3061
Encoding: 12385 12385 64
Width: 589
VWidth: 0
Flags: HW
LayerCount: 2
Back
Fore
SplineSet
259.16 82.3203 m 1
 259.16 118.16 l 1
 295 118.16 l 1
 330.84 118.16 l 1
 330.84 82.3203 l 1
 330.84 46.4805 l 1
 295 46.4805 l 1
 259.16 46.4805 l 1
 259.16 82.3203 l 1
39 154 m 1
 39 410 l 1
 295 410 l 1
 551 410 l 1
 551 154 l 1
 551 -102 l 1
 295 -102 l 1
 39 -102 l 1
 39 154 l 1
475.906 261.52 m 1
 475.906 333.2 l 1
 295.854 333.2 l 1
 115.8 333.2 l 1
 115.8 297.36 l 1
 115.8 261.52 l 1
 187.48 261.52 l 1
 259.16 261.52 l 1
 259.16 225.68 l 1
 259.16 189.84 l 1
 187.48 189.84 l 1
 115.8 189.84 l 1
 115.8 154 l 1
 115.8 118.16 l 1
 151.64 118.16 l 1
 187.48 118.16 l 1
 187.48 82.3203 l 1
 187.48 46.4805 l 1
 151.64 46.4805 l 1
 115.8 46.4805 l 1
 115.8 9.78711 l 1
 115.8 -26.9062 l 1
 151.64 -26.9062 l 1
 187.48 -26.9062 l 1
 187.48 9.78711 l 1
 187.48 46.4805 l 1
 223.32 46.4805 l 1
 259.16 46.4805 l 1
 259.16 9.78711 l 1
 259.16 -26.9062 l 1
 295 -26.9062 l 1
 330.84 -26.9062 l 1
 330.84 9.78711 l 1
 330.84 46.4805 l 1
 366.68 46.4805 l 1
 402.52 46.4805 l 1
 402.52 9.78711 l 1
 402.52 -26.9062 l 1
 439.213 -26.9062 l 1
 475.906 -26.9062 l 1
 475.906 9.78711 l 1
 475.906 46.4805 l 1
 439.213 46.4805 l 1
 402.52 46.4805 l 1
 402.52 118.16 l 1
 402.52 189.84 l 1
 439.213 189.84 l 1
 475.906 189.84 l 1
 475.906 261.52 l 1
EndSplineSet
EndChar

StartChar: uni3060
Encoding: 12384 12384 65
Width: 589
VWidth: 0
Flags: HW
LayerCount: 2
Back
Fore
SplineSet
259.16 82.3203 m 1
 259.16 118.16 l 1
 295 118.16 l 1
 330.84 118.16 l 1
 330.84 82.3203 l 1
 330.84 46.4805 l 1
 295 46.4805 l 1
 259.16 46.4805 l 1
 259.16 82.3203 l 1
39 154 m 1
 39 410 l 1
 295 410 l 1
 551 410 l 1
 551 154 l 1
 551 -102 l 1
 295 -102 l 1
 39 -102 l 1
 39 154 l 1
475.906 225.68 m 1
 475.906 333.2 l 1
 295.854 333.2 l 1
 115.8 333.2 l 1
 115.8 297.36 l 1
 115.8 261.52 l 1
 151.64 261.52 l 1
 187.48 261.52 l 1
 187.48 225.68 l 1
 187.48 189.84 l 1
 151.64 189.84 l 1
 115.8 189.84 l 1
 115.8 154 l 1
 115.8 118.16 l 1
 151.64 118.16 l 1
 187.48 118.16 l 1
 187.48 82.3203 l 1
 187.48 46.4805 l 1
 151.64 46.4805 l 1
 115.8 46.4805 l 1
 115.8 9.78711 l 1
 115.8 -26.9062 l 1
 151.64 -26.9062 l 1
 187.48 -26.9062 l 1
 187.48 9.78711 l 1
 187.48 46.4805 l 1
 223.32 46.4805 l 1
 259.16 46.4805 l 1
 259.16 9.78711 l 1
 259.16 -26.9062 l 1
 295 -26.9062 l 1
 330.84 -26.9062 l 1
 330.84 9.78711 l 1
 330.84 46.4805 l 1
 366.68 46.4805 l 1
 402.52 46.4805 l 1
 402.52 9.78711 l 1
 402.52 -26.9062 l 1
 439.213 -26.9062 l 1
 475.906 -26.9062 l 1
 475.906 9.78711 l 1
 475.906 46.4805 l 1
 439.213 46.4805 l 1
 402.52 46.4805 l 1
 402.52 82.3203 l 1
 402.52 118.16 l 1
 439.213 118.16 l 1
 475.906 118.16 l 1
 475.906 225.68 l 1
EndSplineSet
EndChar

StartChar: uni30C2
Encoding: 12482 12482 66
Width: 589
VWidth: 0
Flags: HW
LayerCount: 2
Back
Fore
SplineSet
330.84 225.68 m 1
 330.84 261.52 l 1
 366.68 261.52 l 1
 402.52 261.52 l 1
 402.52 225.68 l 1
 402.52 189.84 l 1
 366.68 189.84 l 1
 330.84 189.84 l 1
 330.84 225.68 l 1
39 154 m 1
 39 410 l 1
 295 410 l 1
 551 410 l 1
 551 154 l 1
 551 -102 l 1
 295 -102 l 1
 39 -102 l 1
 39 154 l 1
475.906 261.52 m 1
 475.906 333.2 l 1
 295.854 333.2 l 1
 115.8 333.2 l 1
 115.8 297.36 l 1
 115.8 261.52 l 1
 187.48 261.52 l 1
 259.16 261.52 l 1
 259.16 225.68 l 1
 259.16 189.84 l 1
 187.48 189.84 l 1
 115.8 189.84 l 1
 115.8 154 l 1
 115.8 118.16 l 1
 259.16 118.16 l 1
 402.52 118.16 l 1
 402.52 154 l 1
 402.52 189.84 l 1
 439.213 189.84 l 1
 475.906 189.84 l 1
 475.906 261.52 l 1
187.48 9.78711 m 1
 187.48 46.4805 l 1
 151.64 46.4805 l 1
 115.8 46.4805 l 1
 115.8 9.78711 l 1
 115.8 -26.9062 l 1
 151.64 -26.9062 l 1
 187.48 -26.9062 l 1
 187.48 9.78711 l 1
330.84 9.78711 m 1
 330.84 46.4805 l 1
 295 46.4805 l 1
 259.16 46.4805 l 1
 259.16 9.78711 l 1
 259.16 -26.9062 l 1
 295 -26.9062 l 1
 330.84 -26.9062 l 1
 330.84 9.78711 l 1
475.906 9.78711 m 1
 475.906 46.4805 l 1
 439.213 46.4805 l 1
 402.52 46.4805 l 1
 402.52 9.78711 l 1
 402.52 -26.9062 l 1
 439.213 -26.9062 l 1
 475.906 -26.9062 l 1
 475.906 9.78711 l 1
EndSplineSet
EndChar

StartChar: uni308A
Encoding: 12426 12426 67
Width: 589
VWidth: 0
Flags: HW
LayerCount: 2
Back
Fore
SplineSet
259.16 225.68 m 1
 259.16 261.52 l 1
 295 261.52 l 1
 330.84 261.52 l 1
 330.84 225.68 l 1
 330.84 189.84 l 1
 366.68 189.84 l 1
 402.52 189.84 l 1
 402.52 154 l 1
 402.52 118.16 l 1
 366.68 118.16 l 1
 330.84 118.16 l 1
 330.84 154 l 1
 330.84 189.84 l 1
 295 189.84 l 1
 259.16 189.84 l 1
 259.16 225.68 l 1
39 154 m 1
 39 410 l 1
 295 410 l 1
 551 410 l 1
 551 154 l 1
 551 -102 l 1
 295 -102 l 1
 39 -102 l 1
 39 154 l 1
475.906 225.68 m 1
 475.906 333.2 l 1
 295.854 333.2 l 1
 115.8 333.2 l 1
 115.8 297.36 l 1
 115.8 261.52 l 1
 151.64 261.52 l 1
 187.48 261.52 l 1
 187.48 225.68 l 1
 187.48 189.84 l 1
 151.64 189.84 l 1
 115.8 189.84 l 1
 115.8 154 l 1
 115.8 118.16 l 1
 187.48 118.16 l 1
 259.16 118.16 l 1
 259.16 45.627 l 1
 259.16 -26.9062 l 1
 295 -26.9062 l 1
 330.84 -26.9062 l 1
 330.84 9.78711 l 1
 330.84 46.4805 l 1
 366.68 46.4805 l 1
 402.52 46.4805 l 1
 402.52 9.78711 l 1
 402.52 -26.9062 l 1
 439.213 -26.9062 l 1
 475.906 -26.9062 l 1
 475.906 9.78711 l 1
 475.906 46.4805 l 1
 439.213 46.4805 l 1
 402.52 46.4805 l 1
 402.52 82.3203 l 1
 402.52 118.16 l 1
 439.213 118.16 l 1
 475.906 118.16 l 1
 475.906 225.68 l 1
187.48 9.78711 m 1
 187.48 46.4805 l 1
 151.64 46.4805 l 1
 115.8 46.4805 l 1
 115.8 9.78711 l 1
 115.8 -26.9062 l 1
 151.64 -26.9062 l 1
 187.48 -26.9062 l 1
 187.48 9.78711 l 1
EndSplineSet
EndChar

StartChar: uni3084
Encoding: 12420 12420 68
Width: 589
VWidth: 0
Flags: HW
LayerCount: 2
Back
Fore
SplineSet
330.84 225.68 m 1
 330.84 261.52 l 1
 366.68 261.52 l 1
 402.52 261.52 l 1
 402.52 225.68 l 1
 402.52 189.84 l 1
 366.68 189.84 l 1
 330.84 189.84 l 1
 330.84 225.68 l 1
39 154 m 1
 39 410 l 1
 295 410 l 1
 551 410 l 1
 551 154 l 1
 551 -102 l 1
 295 -102 l 1
 39 -102 l 1
 39 154 l 1
475.906 261.52 m 1
 475.906 333.2 l 1
 295.854 333.2 l 1
 115.8 333.2 l 1
 115.8 297.36 l 1
 115.8 261.52 l 1
 151.64 261.52 l 1
 187.48 261.52 l 1
 187.48 225.68 l 1
 187.48 189.84 l 1
 151.64 189.84 l 1
 115.8 189.84 l 1
 115.8 154 l 1
 115.8 118.16 l 1
 187.48 118.16 l 1
 259.16 118.16 l 1
 259.16 45.627 l 1
 259.16 -26.9062 l 1
 295 -26.9062 l 1
 330.84 -26.9062 l 1
 330.84 9.78711 l 1
 330.84 46.4805 l 1
 366.68 46.4805 l 1
 402.52 46.4805 l 1
 402.52 9.78711 l 1
 402.52 -26.9062 l 1
 439.213 -26.9062 l 1
 475.906 -26.9062 l 1
 475.906 9.78711 l 1
 475.906 46.4805 l 1
 439.213 46.4805 l 1
 402.52 46.4805 l 1
 402.52 118.16 l 1
 402.52 189.84 l 1
 439.213 189.84 l 1
 475.906 189.84 l 1
 475.906 261.52 l 1
187.48 9.78711 m 1
 187.48 46.4805 l 1
 151.64 46.4805 l 1
 115.8 46.4805 l 1
 115.8 9.78711 l 1
 115.8 -26.9062 l 1
 151.64 -26.9062 l 1
 187.48 -26.9062 l 1
 187.48 9.78711 l 1
EndSplineSet
EndChar

StartChar: uni3078
Encoding: 12408 12408 69
Width: 589
VWidth: 0
Flags: HW
LayerCount: 2
Back
Fore
SplineSet
39 154 m 1
 39 410 l 1
 295 410 l 1
 551 410 l 1
 551 154 l 1
 551 -102 l 1
 295 -102 l 1
 39 -102 l 1
 39 154 l 1
475.906 153.146 m 1
 475.906 333.2 l 1
 295.854 333.2 l 1
 115.8 333.2 l 1
 115.8 297.36 l 1
 115.8 261.52 l 1
 151.64 261.52 l 1
 187.48 261.52 l 1
 187.48 225.68 l 1
 187.48 189.84 l 1
 151.64 189.84 l 1
 115.8 189.84 l 1
 115.8 154 l 1
 115.8 118.16 l 1
 151.64 118.16 l 1
 187.48 118.16 l 1
 187.48 82.3203 l 1
 187.48 46.4805 l 1
 151.64 46.4805 l 1
 115.8 46.4805 l 1
 115.8 9.78711 l 1
 115.8 -26.9062 l 1
 151.64 -26.9062 l 1
 187.48 -26.9062 l 1
 187.48 9.78711 l 1
 187.48 46.4805 l 1
 223.32 46.4805 l 1
 259.16 46.4805 l 1
 259.16 9.78711 l 1
 259.16 -26.9062 l 1
 295 -26.9062 l 1
 330.84 -26.9062 l 1
 330.84 9.78711 l 1
 330.84 46.4805 l 1
 295 46.4805 l 1
 259.16 46.4805 l 1
 259.16 82.3203 l 1
 259.16 118.16 l 1
 295 118.16 l 1
 330.84 118.16 l 1
 330.84 154 l 1
 330.84 189.84 l 1
 366.68 189.84 l 1
 402.52 189.84 l 1
 402.52 81.4668 l 1
 402.52 -26.9062 l 1
 439.213 -26.9062 l 1
 475.906 -26.9062 l 1
 475.906 153.146 l 1
EndSplineSet
EndChar

StartChar: uni30A4
Encoding: 12452 12452 70
Width: 589
VWidth: 0
Flags: HW
LayerCount: 2
Back
Fore
SplineSet
39 154 m 1
 39 410 l 1
 295 410 l 1
 551 410 l 1
 551 154 l 1
 551 -102 l 1
 295 -102 l 1
 39 -102 l 1
 39 154 l 1
475.906 297.36 m 1
 475.906 333.2 l 1
 295.854 333.2 l 1
 115.8 333.2 l 1
 115.8 297.36 l 1
 115.8 261.52 l 1
 295.854 261.52 l 1
 475.906 261.52 l 1
 475.906 297.36 l 1
402.52 154 m 1
 402.52 189.84 l 1
 259.16 189.84 l 1
 115.8 189.84 l 1
 115.8 154 l 1
 115.8 118.16 l 1
 187.48 118.16 l 1
 259.16 118.16 l 1
 259.16 45.627 l 1
 259.16 -26.9062 l 1
 295 -26.9062 l 1
 330.84 -26.9062 l 1
 330.84 45.627 l 1
 330.84 118.16 l 1
 366.68 118.16 l 1
 402.52 118.16 l 1
 402.52 45.627 l 1
 402.52 -26.9062 l 1
 439.213 -26.9062 l 1
 475.906 -26.9062 l 1
 475.906 45.627 l 1
 475.906 118.16 l 1
 439.213 118.16 l 1
 402.52 118.16 l 1
 402.52 154 l 1
187.48 9.78711 m 1
 187.48 46.4805 l 1
 151.64 46.4805 l 1
 115.8 46.4805 l 1
 115.8 9.78711 l 1
 115.8 -26.9062 l 1
 151.64 -26.9062 l 1
 187.48 -26.9062 l 1
 187.48 9.78711 l 1
EndSplineSet
EndChar

StartChar: uni30CA
Encoding: 12490 12490 71
Width: 589
VWidth: 0
Flags: HW
LayerCount: 2
Back
Fore
SplineSet
39 154 m 1
 39 410 l 1
 295 410 l 1
 551 410 l 1
 551 154 l 1
 551 -102 l 1
 295 -102 l 1
 39 -102 l 1
 39 154 l 1
475.906 297.36 m 1
 475.906 333.2 l 1
 295.854 333.2 l 1
 115.8 333.2 l 1
 115.8 297.36 l 1
 115.8 261.52 l 1
 187.48 261.52 l 1
 259.16 261.52 l 1
 259.16 225.68 l 1
 259.16 189.84 l 1
 187.48 189.84 l 1
 115.8 189.84 l 1
 115.8 154 l 1
 115.8 118.16 l 1
 223.32 118.16 l 1
 330.84 118.16 l 1
 330.84 189.84 l 1
 330.84 261.52 l 1
 403.373 261.52 l 1
 475.906 261.52 l 1
 475.906 297.36 l 1
187.48 9.78711 m 1
 187.48 46.4805 l 1
 151.64 46.4805 l 1
 115.8 46.4805 l 1
 115.8 9.78711 l 1
 115.8 -26.9062 l 1
 151.64 -26.9062 l 1
 187.48 -26.9062 l 1
 187.48 9.78711 l 1
330.84 9.78711 m 1
 330.84 46.4805 l 1
 295 46.4805 l 1
 259.16 46.4805 l 1
 259.16 9.78711 l 1
 259.16 -26.9062 l 1
 295 -26.9062 l 1
 330.84 -26.9062 l 1
 330.84 9.78711 l 1
475.906 9.78711 m 1
 475.906 46.4805 l 1
 439.213 46.4805 l 1
 402.52 46.4805 l 1
 402.52 9.78711 l 1
 402.52 -26.9062 l 1
 439.213 -26.9062 l 1
 475.906 -26.9062 l 1
 475.906 9.78711 l 1
EndSplineSet
EndChar

StartChar: uni3067
Encoding: 12391 12391 72
Width: 589
VWidth: 0
Flags: HW
LayerCount: 2
Back
Fore
SplineSet
259.16 82.3203 m 1
 259.16 118.16 l 1
 295 118.16 l 1
 330.84 118.16 l 1
 330.84 82.3203 l 1
 330.84 46.4805 l 1
 295 46.4805 l 1
 259.16 46.4805 l 1
 259.16 82.3203 l 1
39 154 m 1
 39 410 l 1
 295 410 l 1
 551 410 l 1
 551 154 l 1
 551 -102 l 1
 295 -102 l 1
 39 -102 l 1
 39 154 l 1
475.906 225.68 m 1
 475.906 333.2 l 1
 295.854 333.2 l 1
 115.8 333.2 l 1
 115.8 297.36 l 1
 115.8 261.52 l 1
 259.16 261.52 l 1
 402.52 261.52 l 1
 402.52 225.68 l 1
 402.52 189.84 l 1
 259.16 189.84 l 1
 115.8 189.84 l 1
 115.8 154 l 1
 115.8 118.16 l 1
 151.64 118.16 l 1
 187.48 118.16 l 1
 187.48 82.3203 l 1
 187.48 46.4805 l 1
 151.64 46.4805 l 1
 115.8 46.4805 l 1
 115.8 9.78711 l 1
 115.8 -26.9062 l 1
 151.64 -26.9062 l 1
 187.48 -26.9062 l 1
 187.48 9.78711 l 1
 187.48 46.4805 l 1
 223.32 46.4805 l 1
 259.16 46.4805 l 1
 259.16 9.78711 l 1
 259.16 -26.9062 l 1
 295 -26.9062 l 1
 330.84 -26.9062 l 1
 330.84 9.78711 l 1
 330.84 46.4805 l 1
 366.68 46.4805 l 1
 402.52 46.4805 l 1
 402.52 9.78711 l 1
 402.52 -26.9062 l 1
 439.213 -26.9062 l 1
 475.906 -26.9062 l 1
 475.906 9.78711 l 1
 475.906 46.4805 l 1
 439.213 46.4805 l 1
 402.52 46.4805 l 1
 402.52 82.3203 l 1
 402.52 118.16 l 1
 439.213 118.16 l 1
 475.906 118.16 l 1
 475.906 225.68 l 1
EndSplineSet
EndChar

StartChar: uni307D
Encoding: 12413 12413 73
Width: 589
VWidth: 0
Flags: HW
LayerCount: 2
Back
Fore
SplineSet
39 154 m 1
 39 410 l 1
 295 410 l 1
 551 410 l 1
 551 154 l 1
 551 -102 l 1
 295 -102 l 1
 39 -102 l 1
 39 154 l 1
475.906 261.52 m 1
 475.906 333.2 l 1
 295.854 333.2 l 1
 115.8 333.2 l 1
 115.8 297.36 l 1
 115.8 261.52 l 1
 187.48 261.52 l 1
 259.16 261.52 l 1
 259.16 225.68 l 1
 259.16 189.84 l 1
 187.48 189.84 l 1
 115.8 189.84 l 1
 115.8 154 l 1
 115.8 118.16 l 1
 151.64 118.16 l 1
 187.48 118.16 l 1
 187.48 82.3203 l 1
 187.48 46.4805 l 1
 151.64 46.4805 l 1
 115.8 46.4805 l 1
 115.8 9.78711 l 1
 115.8 -26.9062 l 1
 151.64 -26.9062 l 1
 187.48 -26.9062 l 1
 187.48 9.78711 l 1
 187.48 46.4805 l 1
 223.32 46.4805 l 1
 259.16 46.4805 l 1
 259.16 9.78711 l 1
 259.16 -26.9062 l 1
 295 -26.9062 l 1
 330.84 -26.9062 l 1
 330.84 9.78711 l 1
 330.84 46.4805 l 1
 295 46.4805 l 1
 259.16 46.4805 l 1
 259.16 82.3203 l 1
 259.16 118.16 l 1
 295 118.16 l 1
 330.84 118.16 l 1
 330.84 189.84 l 1
 330.84 261.52 l 1
 366.68 261.52 l 1
 402.52 261.52 l 1
 402.52 225.68 l 1
 402.52 189.84 l 1
 439.213 189.84 l 1
 475.906 189.84 l 1
 475.906 261.52 l 1
475.906 9.78711 m 1
 475.906 46.4805 l 1
 439.213 46.4805 l 1
 402.52 46.4805 l 1
 402.52 9.78711 l 1
 402.52 -26.9062 l 1
 439.213 -26.9062 l 1
 475.906 -26.9062 l 1
 475.906 9.78711 l 1
EndSplineSet
EndChar

StartChar: uni3041
Encoding: 12353 12353 74
Width: 589
VWidth: 0
Flags: W
HStem: -102 148.48<187.48 259.16 330.84 402.52> -102 75.0938<115.8 187.48 259.16 330.84 402.52 475.906> 46.4805 71.6797<115.8 187.48> 189.84 71.6797<115.8 259.16 402.52 475.906> 333.2 76.7998<115.8 475.906>
VStem: 39 76.7998<-26.9062 46.4805 118.16 189.84 261.52 333.2> 187.48 71.6797<-26.9062 46.4805> 330.84 71.6797<-26.9062 46.4805> 475.906 75.0938<-26.9062 189.84 261.52 333.2>
LayerCount: 2
Back
Fore
SplineSet
39 154 m 1x5f80
 39 410 l 1
 295 410 l 1
 551 410 l 1
 551 154 l 1
 551 -102 l 1
 295 -102 l 1
 39 -102 l 1
 39 154 l 1x5f80
475.906 297.36 m 1
 475.906 333.2 l 1
 295.854 333.2 l 1
 115.8 333.2 l 1
 115.8 297.36 l 1
 115.8 261.52 l 1
 187.48 261.52 l 1
 259.16 261.52 l 1
 259.16 225.68 l 1
 259.16 189.84 l 1
 187.48 189.84 l 1
 115.8 189.84 l 1
 115.8 154 l 1
 115.8 118.16 l 1
 151.64 118.16 l 1
 187.48 118.16 l 1x7f80
 187.48 82.3203 l 1
 187.48 46.4805 l 1x9f80
 151.64 46.4805 l 1
 115.8 46.4805 l 1
 115.8 9.78711 l 1
 115.8 -26.9062 l 1
 151.64 -26.9062 l 1
 187.48 -26.9062 l 1x7f80
 187.48 9.78711 l 1
 187.48 46.4805 l 1
 223.32 46.4805 l 1
 259.16 46.4805 l 1x9f80
 259.16 9.78711 l 1
 259.16 -26.9062 l 1
 295 -26.9062 l 1
 330.84 -26.9062 l 1x5f80
 330.84 9.78711 l 1
 330.84 46.4805 l 1
 366.68 46.4805 l 1
 402.52 46.4805 l 1x9f80
 402.52 9.78711 l 1
 402.52 -26.9062 l 1
 439.213 -26.9062 l 1
 475.906 -26.9062 l 1
 475.906 81.4668 l 1
 475.906 189.84 l 1
 439.213 189.84 l 1
 402.52 189.84 l 1
 402.52 225.68 l 1
 402.52 261.52 l 1
 439.213 261.52 l 1
 475.906 261.52 l 1
 475.906 297.36 l 1
EndSplineSet
EndChar

StartChar: uni30B7
Encoding: 12471 12471 75
Width: 589
VWidth: 0
Flags: HW
LayerCount: 2
Back
Fore
SplineSet
259.16 225.68 m 1
 259.16 261.52 l 1
 295 261.52 l 1
 330.84 261.52 l 1
 330.84 225.68 l 1
 330.84 189.84 l 1
 366.68 189.84 l 1
 402.52 189.84 l 1
 402.52 154 l 1
 402.52 118.16 l 1
 366.68 118.16 l 1
 330.84 118.16 l 1
 330.84 154 l 1
 330.84 189.84 l 1
 295 189.84 l 1
 259.16 189.84 l 1
 259.16 225.68 l 1
39 154 m 1
 39 410 l 1
 295 410 l 1
 551 410 l 1
 551 154 l 1
 551 -102 l 1
 295 -102 l 1
 39 -102 l 1
 39 154 l 1
475.906 297.36 m 1
 475.906 333.2 l 1
 295.854 333.2 l 1
 115.8 333.2 l 1
 115.8 297.36 l 1
 115.8 261.52 l 1
 151.64 261.52 l 1
 187.48 261.52 l 1
 187.48 225.68 l 1
 187.48 189.84 l 1
 151.64 189.84 l 1
 115.8 189.84 l 1
 115.8 154 l 1
 115.8 118.16 l 1
 223.32 118.16 l 1
 330.84 118.16 l 1
 330.84 82.3203 l 1
 330.84 46.4805 l 1
 295 46.4805 l 1
 259.16 46.4805 l 1
 259.16 9.78711 l 1
 259.16 -26.9062 l 1
 295 -26.9062 l 1
 330.84 -26.9062 l 1
 330.84 9.78711 l 1
 330.84 46.4805 l 1
 366.68 46.4805 l 1
 402.52 46.4805 l 1
 402.52 9.78711 l 1
 402.52 -26.9062 l 1
 439.213 -26.9062 l 1
 475.906 -26.9062 l 1
 475.906 81.4668 l 1
 475.906 189.84 l 1
 439.213 189.84 l 1
 402.52 189.84 l 1
 402.52 225.68 l 1
 402.52 261.52 l 1
 439.213 261.52 l 1
 475.906 261.52 l 1
 475.906 297.36 l 1
187.48 9.78711 m 1
 187.48 46.4805 l 1
 151.64 46.4805 l 1
 115.8 46.4805 l 1
 115.8 9.78711 l 1
 115.8 -26.9062 l 1
 151.64 -26.9062 l 1
 187.48 -26.9062 l 1
 187.48 9.78711 l 1
EndSplineSet
EndChar

StartChar: uni30B6
Encoding: 12470 12470 76
Width: 589
VWidth: 0
Flags: HW
LayerCount: 2
Back
Fore
SplineSet
330.84 154 m 1
 330.84 189.84 l 1
 366.68 189.84 l 1
 402.52 189.84 l 1
 402.52 154 l 1
 402.52 118.16 l 1
 366.68 118.16 l 1
 330.84 118.16 l 1
 330.84 154 l 1
39 154 m 1
 39 410 l 1
 295 410 l 1
 551 410 l 1
 551 154 l 1
 551 -102 l 1
 295 -102 l 1
 39 -102 l 1
 39 154 l 1
475.906 153.146 m 1
 475.906 333.2 l 1
 295.854 333.2 l 1
 115.8 333.2 l 1
 115.8 297.36 l 1
 115.8 261.52 l 1
 187.48 261.52 l 1
 259.16 261.52 l 1
 259.16 225.68 l 1
 259.16 189.84 l 1
 187.48 189.84 l 1
 115.8 189.84 l 1
 115.8 154 l 1
 115.8 118.16 l 1
 223.32 118.16 l 1
 330.84 118.16 l 1
 330.84 82.3203 l 1
 330.84 46.4805 l 1
 295 46.4805 l 1
 259.16 46.4805 l 1
 259.16 9.78711 l 1
 259.16 -26.9062 l 1
 295 -26.9062 l 1
 330.84 -26.9062 l 1
 330.84 9.78711 l 1
 330.84 46.4805 l 1
 366.68 46.4805 l 1
 402.52 46.4805 l 1
 402.52 9.78711 l 1
 402.52 -26.9062 l 1
 439.213 -26.9062 l 1
 475.906 -26.9062 l 1
 475.906 153.146 l 1
187.48 9.78711 m 1
 187.48 46.4805 l 1
 151.64 46.4805 l 1
 115.8 46.4805 l 1
 115.8 9.78711 l 1
 115.8 -26.9062 l 1
 151.64 -26.9062 l 1
 187.48 -26.9062 l 1
 187.48 9.78711 l 1
EndSplineSet
EndChar

StartChar: uni306B
Encoding: 12395 12395 77
Width: 589
VWidth: 0
Flags: HW
LayerCount: 2
Back
Fore
SplineSet
330.84 154 m 1
 330.84 189.84 l 1
 366.68 189.84 l 1
 402.52 189.84 l 1
 402.52 154 l 1
 402.52 118.16 l 1
 366.68 118.16 l 1
 330.84 118.16 l 1
 330.84 82.3203 l 1
 330.84 46.4805 l 1
 295 46.4805 l 1
 259.16 46.4805 l 1
 259.16 82.3203 l 1
 259.16 118.16 l 1
 295 118.16 l 1
 330.84 118.16 l 1
 330.84 154 l 1
39 154 m 1
 39 410 l 1
 295 410 l 1
 551 410 l 1
 551 154 l 1
 551 -102 l 1
 295 -102 l 1
 39 -102 l 1
 39 154 l 1
475.906 297.36 m 1
 475.906 333.2 l 1
 295.854 333.2 l 1
 115.8 333.2 l 1
 115.8 297.36 l 1
 115.8 261.52 l 1
 223.32 261.52 l 1
 330.84 261.52 l 1
 330.84 225.68 l 1
 330.84 189.84 l 1
 223.32 189.84 l 1
 115.8 189.84 l 1
 115.8 154 l 1
 115.8 118.16 l 1
 151.64 118.16 l 1
 187.48 118.16 l 1
 187.48 82.3203 l 1
 187.48 46.4805 l 1
 151.64 46.4805 l 1
 115.8 46.4805 l 1
 115.8 9.78711 l 1
 115.8 -26.9062 l 1
 151.64 -26.9062 l 1
 187.48 -26.9062 l 1
 187.48 9.78711 l 1
 187.48 46.4805 l 1
 223.32 46.4805 l 1
 259.16 46.4805 l 1
 259.16 9.78711 l 1
 259.16 -26.9062 l 1
 295 -26.9062 l 1
 330.84 -26.9062 l 1
 330.84 9.78711 l 1
 330.84 46.4805 l 1
 366.68 46.4805 l 1
 402.52 46.4805 l 1
 402.52 9.78711 l 1
 402.52 -26.9062 l 1
 439.213 -26.9062 l 1
 475.906 -26.9062 l 1
 475.906 81.4668 l 1
 475.906 189.84 l 1
 439.213 189.84 l 1
 402.52 189.84 l 1
 402.52 225.68 l 1
 402.52 261.52 l 1
 439.213 261.52 l 1
 475.906 261.52 l 1
 475.906 297.36 l 1
EndSplineSet
EndChar

StartChar: uni3069
Encoding: 12393 12393 78
Width: 589
VWidth: 0
Flags: HW
LayerCount: 2
Back
Fore
SplineSet
259.16 82.3203 m 1
 259.16 118.16 l 1
 295 118.16 l 1
 330.84 118.16 l 1
 330.84 82.3203 l 1
 330.84 46.4805 l 1
 295 46.4805 l 1
 259.16 46.4805 l 1
 259.16 82.3203 l 1
39 154 m 1
 39 410 l 1
 295 410 l 1
 551 410 l 1
 551 154 l 1
 551 -102 l 1
 295 -102 l 1
 39 -102 l 1
 39 154 l 1
475.906 297.36 m 1
 475.906 333.2 l 1
 295.854 333.2 l 1
 115.8 333.2 l 1
 115.8 297.36 l 1
 115.8 261.52 l 1
 187.48 261.52 l 1
 259.16 261.52 l 1
 259.16 225.68 l 1
 259.16 189.84 l 1
 187.48 189.84 l 1
 115.8 189.84 l 1
 115.8 154 l 1
 115.8 118.16 l 1
 151.64 118.16 l 1
 187.48 118.16 l 1
 187.48 82.3203 l 1
 187.48 46.4805 l 1
 151.64 46.4805 l 1
 115.8 46.4805 l 1
 115.8 9.78711 l 1
 115.8 -26.9062 l 1
 151.64 -26.9062 l 1
 187.48 -26.9062 l 1
 187.48 9.78711 l 1
 187.48 46.4805 l 1
 223.32 46.4805 l 1
 259.16 46.4805 l 1
 259.16 9.78711 l 1
 259.16 -26.9062 l 1
 295 -26.9062 l 1
 330.84 -26.9062 l 1
 330.84 9.78711 l 1
 330.84 46.4805 l 1
 366.68 46.4805 l 1
 402.52 46.4805 l 1
 402.52 9.78711 l 1
 402.52 -26.9062 l 1
 439.213 -26.9062 l 1
 475.906 -26.9062 l 1
 475.906 9.78711 l 1
 475.906 46.4805 l 1
 439.213 46.4805 l 1
 402.52 46.4805 l 1
 402.52 82.3203 l 1
 402.52 118.16 l 1
 366.68 118.16 l 1
 330.84 118.16 l 1
 330.84 154 l 1
 330.84 189.84 l 1
 366.68 189.84 l 1
 402.52 189.84 l 1
 402.52 225.68 l 1
 402.52 261.52 l 1
 439.213 261.52 l 1
 475.906 261.52 l 1
 475.906 297.36 l 1
EndSplineSet
EndChar

StartChar: uni305A
Encoding: 12378 12378 79
Width: 589
VWidth: 0
Flags: HW
LayerCount: 2
Back
Fore
SplineSet
259.16 225.68 m 1
 259.16 261.52 l 1
 295 261.52 l 1
 330.84 261.52 l 1
 330.84 225.68 l 1
 330.84 189.84 l 1
 295 189.84 l 1
 259.16 189.84 l 1
 259.16 225.68 l 1
39 154 m 1
 39 410 l 1
 295 410 l 1
 551 410 l 1
 551 154 l 1
 551 -102 l 1
 295 -102 l 1
 39 -102 l 1
 39 154 l 1
475.906 261.52 m 1
 475.906 333.2 l 1
 295.854 333.2 l 1
 115.8 333.2 l 1
 115.8 297.36 l 1
 115.8 261.52 l 1
 151.64 261.52 l 1
 187.48 261.52 l 1
 187.48 225.68 l 1
 187.48 189.84 l 1
 151.64 189.84 l 1
 115.8 189.84 l 1
 115.8 154 l 1
 115.8 118.16 l 1
 151.64 118.16 l 1
 187.48 118.16 l 1
 187.48 82.3203 l 1
 187.48 46.4805 l 1
 151.64 46.4805 l 1
 115.8 46.4805 l 1
 115.8 9.78711 l 1
 115.8 -26.9062 l 1
 151.64 -26.9062 l 1
 187.48 -26.9062 l 1
 187.48 9.78711 l 1
 187.48 46.4805 l 1
 223.32 46.4805 l 1
 259.16 46.4805 l 1
 259.16 9.78711 l 1
 259.16 -26.9062 l 1
 295 -26.9062 l 1
 330.84 -26.9062 l 1
 330.84 81.4668 l 1
 330.84 189.84 l 1
 403.373 189.84 l 1
 475.906 189.84 l 1
 475.906 261.52 l 1
475.906 9.78711 m 1
 475.906 46.4805 l 1
 439.213 46.4805 l 1
 402.52 46.4805 l 1
 402.52 9.78711 l 1
 402.52 -26.9062 l 1
 439.213 -26.9062 l 1
 475.906 -26.9062 l 1
 475.906 9.78711 l 1
EndSplineSet
EndChar

StartChar: uni30C7
Encoding: 12487 12487 80
Width: 589
VWidth: 0
Flags: HW
LayerCount: 2
Back
Fore
SplineSet
259.16 225.68 m 1
 259.16 261.52 l 1
 295 261.52 l 1
 330.84 261.52 l 1
 330.84 225.68 l 1
 330.84 189.84 l 1
 295 189.84 l 1
 259.16 189.84 l 1
 259.16 225.68 l 1
39 154 m 1
 39 410 l 1
 295 410 l 1
 551 410 l 1
 551 154 l 1
 551 -102 l 1
 295 -102 l 1
 39 -102 l 1
 39 154 l 1
475.906 297.36 m 1
 475.906 333.2 l 1
 295.854 333.2 l 1
 115.8 333.2 l 1
 115.8 297.36 l 1
 115.8 261.52 l 1
 151.64 261.52 l 1
 187.48 261.52 l 1
 187.48 225.68 l 1
 187.48 189.84 l 1
 151.64 189.84 l 1
 115.8 189.84 l 1
 115.8 154 l 1
 115.8 118.16 l 1
 223.32 118.16 l 1
 330.84 118.16 l 1
 330.84 154 l 1
 330.84 189.84 l 1
 366.68 189.84 l 1
 402.52 189.84 l 1
 402.52 225.68 l 1
 402.52 261.52 l 1
 439.213 261.52 l 1
 475.906 261.52 l 1
 475.906 297.36 l 1
475.906 45.627 m 1
 475.906 118.16 l 1
 439.213 118.16 l 1
 402.52 118.16 l 1
 402.52 45.627 l 1
 402.52 -26.9062 l 1
 439.213 -26.9062 l 1
 475.906 -26.9062 l 1
 475.906 45.627 l 1
187.48 9.78711 m 1
 187.48 46.4805 l 1
 151.64 46.4805 l 1
 115.8 46.4805 l 1
 115.8 9.78711 l 1
 115.8 -26.9062 l 1
 151.64 -26.9062 l 1
 187.48 -26.9062 l 1
 187.48 9.78711 l 1
330.84 9.78711 m 1
 330.84 46.4805 l 1
 295 46.4805 l 1
 259.16 46.4805 l 1
 259.16 9.78711 l 1
 259.16 -26.9062 l 1
 295 -26.9062 l 1
 330.84 -26.9062 l 1
 330.84 9.78711 l 1
EndSplineSet
EndChar

StartChar: uni30BC
Encoding: 12476 12476 81
Width: 589
VWidth: 0
Flags: HW
LayerCount: 2
Back
Fore
SplineSet
39 154 m 1
 39 410 l 1
 295 410 l 1
 551 410 l 1
 551 154 l 1
 551 -102 l 1
 295 -102 l 1
 39 -102 l 1
 39 154 l 1
475.906 297.36 m 1
 475.906 333.2 l 1
 295.854 333.2 l 1
 115.8 333.2 l 1
 115.8 297.36 l 1
 115.8 261.52 l 1
 295.854 261.52 l 1
 475.906 261.52 l 1
 475.906 297.36 l 1
330.84 154 m 1
 330.84 189.84 l 1
 223.32 189.84 l 1
 115.8 189.84 l 1
 115.8 154 l 1
 115.8 118.16 l 1
 223.32 118.16 l 1
 330.84 118.16 l 1
 330.84 82.3203 l 1
 330.84 46.4805 l 1
 295 46.4805 l 1
 259.16 46.4805 l 1
 259.16 9.78711 l 1
 259.16 -26.9062 l 1
 295 -26.9062 l 1
 330.84 -26.9062 l 1
 330.84 9.78711 l 1
 330.84 46.4805 l 1
 366.68 46.4805 l 1
 402.52 46.4805 l 1
 402.52 9.78711 l 1
 402.52 -26.9062 l 1
 439.213 -26.9062 l 1
 475.906 -26.9062 l 1
 475.906 9.78711 l 1
 475.906 46.4805 l 1
 439.213 46.4805 l 1
 402.52 46.4805 l 1
 402.52 82.3203 l 1
 402.52 118.16 l 1
 366.68 118.16 l 1
 330.84 118.16 l 1
 330.84 154 l 1
187.48 9.78711 m 1
 187.48 46.4805 l 1
 151.64 46.4805 l 1
 115.8 46.4805 l 1
 115.8 9.78711 l 1
 115.8 -26.9062 l 1
 151.64 -26.9062 l 1
 187.48 -26.9062 l 1
 187.48 9.78711 l 1
EndSplineSet
EndChar

StartChar: uni307C
Encoding: 12412 12412 82
Width: 589
VWidth: 0
Flags: HW
LayerCount: 2
Back
Fore
SplineSet
39 154 m 1
 39 410 l 1
 295 410 l 1
 551 410 l 1
 551 154 l 1
 551 -102 l 1
 295 -102 l 1
 39 -102 l 1
 39 154 l 1
475.906 225.68 m 1
 475.906 333.2 l 1
 295.854 333.2 l 1
 115.8 333.2 l 1
 115.8 297.36 l 1
 115.8 261.52 l 1
 151.64 261.52 l 1
 187.48 261.52 l 1
 187.48 225.68 l 1
 187.48 189.84 l 1
 151.64 189.84 l 1
 115.8 189.84 l 1
 115.8 154 l 1
 115.8 118.16 l 1
 151.64 118.16 l 1
 187.48 118.16 l 1
 187.48 82.3203 l 1
 187.48 46.4805 l 1
 151.64 46.4805 l 1
 115.8 46.4805 l 1
 115.8 9.78711 l 1
 115.8 -26.9062 l 1
 151.64 -26.9062 l 1
 187.48 -26.9062 l 1
 187.48 9.78711 l 1
 187.48 46.4805 l 1
 223.32 46.4805 l 1
 259.16 46.4805 l 1
 259.16 9.78711 l 1
 259.16 -26.9062 l 1
 295 -26.9062 l 1
 330.84 -26.9062 l 1
 330.84 9.78711 l 1
 330.84 46.4805 l 1
 295 46.4805 l 1
 259.16 46.4805 l 1
 259.16 82.3203 l 1
 259.16 118.16 l 1
 295 118.16 l 1
 330.84 118.16 l 1
 330.84 189.84 l 1
 330.84 261.52 l 1
 366.68 261.52 l 1
 402.52 261.52 l 1
 402.52 189.84 l 1
 402.52 118.16 l 1
 439.213 118.16 l 1
 475.906 118.16 l 1
 475.906 225.68 l 1
475.906 9.78711 m 1
 475.906 46.4805 l 1
 439.213 46.4805 l 1
 402.52 46.4805 l 1
 402.52 9.78711 l 1
 402.52 -26.9062 l 1
 439.213 -26.9062 l 1
 475.906 -26.9062 l 1
 475.906 9.78711 l 1
EndSplineSet
EndChar

StartChar: uni3066
Encoding: 12390 12390 83
Width: 589
VWidth: 0
Flags: HW
LayerCount: 2
Back
Fore
SplineSet
259.16 82.3203 m 1
 259.16 118.16 l 1
 295 118.16 l 1
 330.84 118.16 l 1
 330.84 82.3203 l 1
 330.84 46.4805 l 1
 295 46.4805 l 1
 259.16 46.4805 l 1
 259.16 82.3203 l 1
39 154 m 1
 39 410 l 1
 295 410 l 1
 551 410 l 1
 551 154 l 1
 551 -102 l 1
 295 -102 l 1
 39 -102 l 1
 39 154 l 1
475.906 297.36 m 1
 475.906 333.2 l 1
 295.854 333.2 l 1
 115.8 333.2 l 1
 115.8 297.36 l 1
 115.8 261.52 l 1
 151.64 261.52 l 1
 187.48 261.52 l 1
 187.48 225.68 l 1
 187.48 189.84 l 1
 151.64 189.84 l 1
 115.8 189.84 l 1
 115.8 154 l 1
 115.8 118.16 l 1
 151.64 118.16 l 1
 187.48 118.16 l 1
 187.48 82.3203 l 1
 187.48 46.4805 l 1
 151.64 46.4805 l 1
 115.8 46.4805 l 1
 115.8 9.78711 l 1
 115.8 -26.9062 l 1
 151.64 -26.9062 l 1
 187.48 -26.9062 l 1
 187.48 9.78711 l 1
 187.48 46.4805 l 1
 223.32 46.4805 l 1
 259.16 46.4805 l 1
 259.16 9.78711 l 1
 259.16 -26.9062 l 1
 295 -26.9062 l 1
 330.84 -26.9062 l 1
 330.84 9.78711 l 1
 330.84 46.4805 l 1
 366.68 46.4805 l 1
 402.52 46.4805 l 1
 402.52 9.78711 l 1
 402.52 -26.9062 l 1
 439.213 -26.9062 l 1
 475.906 -26.9062 l 1
 475.906 45.627 l 1
 475.906 118.16 l 1
 439.213 118.16 l 1
 402.52 118.16 l 1
 402.52 154 l 1
 402.52 189.84 l 1
 330.84 189.84 l 1
 259.16 189.84 l 1
 259.16 225.68 l 1
 259.16 261.52 l 1
 367.533 261.52 l 1
 475.906 261.52 l 1
 475.906 297.36 l 1
EndSplineSet
EndChar

StartChar: uni3093
Encoding: 12435 12435 84
Width: 589
VWidth: 0
Flags: HW
LayerCount: 2
Back
Fore
SplineSet
39 154 m 1
 39 410 l 1
 295 410 l 1
 551 410 l 1
 551 154 l 1
 551 -102 l 1
 295 -102 l 1
 39 -102 l 1
 39 154 l 1
475.906 297.36 m 1
 475.906 333.2 l 1
 295.854 333.2 l 1
 115.8 333.2 l 1
 115.8 297.36 l 1
 115.8 261.52 l 1
 223.32 261.52 l 1
 330.84 261.52 l 1
 330.84 225.68 l 1
 330.84 189.84 l 1
 223.32 189.84 l 1
 115.8 189.84 l 1
 115.8 154 l 1
 115.8 118.16 l 1
 187.48 118.16 l 1
 259.16 118.16 l 1
 259.16 45.627 l 1
 259.16 -26.9062 l 1
 295 -26.9062 l 1
 330.84 -26.9062 l 1
 330.84 45.627 l 1
 330.84 118.16 l 1
 366.68 118.16 l 1
 402.52 118.16 l 1
 402.52 189.84 l 1
 402.52 261.52 l 1
 439.213 261.52 l 1
 475.906 261.52 l 1
 475.906 297.36 l 1
187.48 9.78711 m 1
 187.48 46.4805 l 1
 151.64 46.4805 l 1
 115.8 46.4805 l 1
 115.8 9.78711 l 1
 115.8 -26.9062 l 1
 151.64 -26.9062 l 1
 187.48 -26.9062 l 1
 187.48 9.78711 l 1
475.906 9.78711 m 1
 475.906 46.4805 l 1
 439.213 46.4805 l 1
 402.52 46.4805 l 1
 402.52 9.78711 l 1
 402.52 -26.9062 l 1
 439.213 -26.9062 l 1
 475.906 -26.9062 l 1
 475.906 9.78711 l 1
EndSplineSet
EndChar

StartChar: uni307B
Encoding: 12411 12411 85
Width: 589
VWidth: 0
Flags: HW
LayerCount: 2
Back
Fore
SplineSet
39 154 m 1
 39 410 l 1
 295 410 l 1
 551 410 l 1
 551 154 l 1
 551 -102 l 1
 295 -102 l 1
 39 -102 l 1
 39 154 l 1
475.906 297.36 m 1
 475.906 333.2 l 1
 295.854 333.2 l 1
 115.8 333.2 l 1
 115.8 297.36 l 1
 115.8 261.52 l 1
 223.32 261.52 l 1
 330.84 261.52 l 1
 330.84 225.68 l 1
 330.84 189.84 l 1
 223.32 189.84 l 1
 115.8 189.84 l 1
 115.8 154 l 1
 115.8 118.16 l 1
 151.64 118.16 l 1
 187.48 118.16 l 1
 187.48 82.3203 l 1
 187.48 46.4805 l 1
 151.64 46.4805 l 1
 115.8 46.4805 l 1
 115.8 9.78711 l 1
 115.8 -26.9062 l 1
 151.64 -26.9062 l 1
 187.48 -26.9062 l 1
 187.48 9.78711 l 1
 187.48 46.4805 l 1
 223.32 46.4805 l 1
 259.16 46.4805 l 1
 259.16 9.78711 l 1
 259.16 -26.9062 l 1
 295 -26.9062 l 1
 330.84 -26.9062 l 1
 330.84 9.78711 l 1
 330.84 46.4805 l 1
 295 46.4805 l 1
 259.16 46.4805 l 1
 259.16 82.3203 l 1
 259.16 118.16 l 1
 295 118.16 l 1
 330.84 118.16 l 1
 330.84 154 l 1
 330.84 189.84 l 1
 366.68 189.84 l 1
 402.52 189.84 l 1
 402.52 225.68 l 1
 402.52 261.52 l 1
 439.213 261.52 l 1
 475.906 261.52 l 1
 475.906 297.36 l 1
475.906 45.627 m 1
 475.906 118.16 l 1
 439.213 118.16 l 1
 402.52 118.16 l 1
 402.52 45.627 l 1
 402.52 -26.9062 l 1
 439.213 -26.9062 l 1
 475.906 -26.9062 l 1
 475.906 45.627 l 1
EndSplineSet
EndChar

StartChar: uni30C4
Encoding: 12484 12484 86
Width: 589
VWidth: 0
Flags: HW
LayerCount: 2
Back
Fore
SplineSet
39 154 m 1
 39 410 l 1
 295 410 l 1
 551 410 l 1
 551 154 l 1
 551 -102 l 1
 295 -102 l 1
 39 -102 l 1
 39 154 l 1
475.906 153.146 m 1
 475.906 333.2 l 1
 295.854 333.2 l 1
 115.8 333.2 l 1
 115.8 297.36 l 1
 115.8 261.52 l 1
 259.16 261.52 l 1
 402.52 261.52 l 1
 402.52 225.68 l 1
 402.52 189.84 l 1
 259.16 189.84 l 1
 115.8 189.84 l 1
 115.8 154 l 1
 115.8 118.16 l 1
 259.16 118.16 l 1
 402.52 118.16 l 1
 402.52 45.627 l 1
 402.52 -26.9062 l 1
 439.213 -26.9062 l 1
 475.906 -26.9062 l 1
 475.906 153.146 l 1
187.48 9.78711 m 1
 187.48 46.4805 l 1
 151.64 46.4805 l 1
 115.8 46.4805 l 1
 115.8 9.78711 l 1
 115.8 -26.9062 l 1
 151.64 -26.9062 l 1
 187.48 -26.9062 l 1
 187.48 9.78711 l 1
330.84 9.78711 m 1
 330.84 46.4805 l 1
 295 46.4805 l 1
 259.16 46.4805 l 1
 259.16 9.78711 l 1
 259.16 -26.9062 l 1
 295 -26.9062 l 1
 330.84 -26.9062 l 1
 330.84 9.78711 l 1
EndSplineSet
EndChar

StartChar: uni3062
Encoding: 12386 12386 87
Width: 589
VWidth: 0
Flags: HW
LayerCount: 2
Back
Fore
SplineSet
259.16 82.3203 m 1
 259.16 118.16 l 1
 295 118.16 l 1
 330.84 118.16 l 1
 330.84 82.3203 l 1
 330.84 46.4805 l 1
 295 46.4805 l 1
 259.16 46.4805 l 1
 259.16 82.3203 l 1
259.16 225.68 m 1
 259.16 261.52 l 1
 295 261.52 l 1
 330.84 261.52 l 1
 330.84 225.68 l 1
 330.84 189.84 l 1
 295 189.84 l 1
 259.16 189.84 l 1
 259.16 225.68 l 1
39 154 m 1
 39 410 l 1
 295 410 l 1
 551 410 l 1
 551 154 l 1
 551 -102 l 1
 295 -102 l 1
 39 -102 l 1
 39 154 l 1
475.906 297.36 m 1
 475.906 333.2 l 1
 295.854 333.2 l 1
 115.8 333.2 l 1
 115.8 297.36 l 1
 115.8 261.52 l 1
 151.64 261.52 l 1
 187.48 261.52 l 1
 187.48 225.68 l 1
 187.48 189.84 l 1
 151.64 189.84 l 1
 115.8 189.84 l 1
 115.8 154 l 1
 115.8 118.16 l 1
 151.64 118.16 l 1
 187.48 118.16 l 1
 187.48 82.3203 l 1
 187.48 46.4805 l 1
 151.64 46.4805 l 1
 115.8 46.4805 l 1
 115.8 9.78711 l 1
 115.8 -26.9062 l 1
 151.64 -26.9062 l 1
 187.48 -26.9062 l 1
 187.48 9.78711 l 1
 187.48 46.4805 l 1
 223.32 46.4805 l 1
 259.16 46.4805 l 1
 259.16 9.78711 l 1
 259.16 -26.9062 l 1
 295 -26.9062 l 1
 330.84 -26.9062 l 1
 330.84 9.78711 l 1
 330.84 46.4805 l 1
 366.68 46.4805 l 1
 402.52 46.4805 l 1
 402.52 9.78711 l 1
 402.52 -26.9062 l 1
 439.213 -26.9062 l 1
 475.906 -26.9062 l 1
 475.906 9.78711 l 1
 475.906 46.4805 l 1
 439.213 46.4805 l 1
 402.52 46.4805 l 1
 402.52 154 l 1
 402.52 261.52 l 1
 439.213 261.52 l 1
 475.906 261.52 l 1
 475.906 297.36 l 1
EndSplineSet
EndChar

StartChar: uni30CC
Encoding: 12492 12492 88
Width: 589
VWidth: 0
Flags: HW
LayerCount: 2
Back
Fore
SplineSet
39 154 m 1
 39 410 l 1
 295 410 l 1
 551 410 l 1
 551 154 l 1
 551 -102 l 1
 295 -102 l 1
 39 -102 l 1
 39 154 l 1
475.906 297.36 m 1
 475.906 333.2 l 1
 295.854 333.2 l 1
 115.8 333.2 l 1
 115.8 297.36 l 1
 115.8 261.52 l 1
 295.854 261.52 l 1
 475.906 261.52 l 1
 475.906 297.36 l 1
330.84 154 m 1
 330.84 189.84 l 1
 223.32 189.84 l 1
 115.8 189.84 l 1
 115.8 154 l 1
 115.8 118.16 l 1
 223.32 118.16 l 1
 330.84 118.16 l 1
 330.84 154 l 1
475.906 81.4668 m 1
 475.906 189.84 l 1
 439.213 189.84 l 1
 402.52 189.84 l 1
 402.52 81.4668 l 1
 402.52 -26.9062 l 1
 439.213 -26.9062 l 1
 475.906 -26.9062 l 1
 475.906 81.4668 l 1
187.48 9.78711 m 1
 187.48 46.4805 l 1
 151.64 46.4805 l 1
 115.8 46.4805 l 1
 115.8 9.78711 l 1
 115.8 -26.9062 l 1
 151.64 -26.9062 l 1
 187.48 -26.9062 l 1
 187.48 9.78711 l 1
330.84 9.78711 m 1
 330.84 46.4805 l 1
 295 46.4805 l 1
 259.16 46.4805 l 1
 259.16 9.78711 l 1
 259.16 -26.9062 l 1
 295 -26.9062 l 1
 330.84 -26.9062 l 1
 330.84 9.78711 l 1
EndSplineSet
EndChar

StartChar: uni30A5
Encoding: 12453 12453 89
Width: 589
VWidth: 0
Flags: HW
LayerCount: 2
Back
Fore
SplineSet
39 154 m 1
 39 410 l 1
 295 410 l 1
 551 410 l 1
 551 154 l 1
 551 -102 l 1
 295 -102 l 1
 39 -102 l 1
 39 154 l 1
475.906 225.68 m 1
 475.906 333.2 l 1
 295.854 333.2 l 1
 115.8 333.2 l 1
 115.8 297.36 l 1
 115.8 261.52 l 1
 151.64 261.52 l 1
 187.48 261.52 l 1
 187.48 225.68 l 1
 187.48 189.84 l 1
 151.64 189.84 l 1
 115.8 189.84 l 1
 115.8 154 l 1
 115.8 118.16 l 1
 187.48 118.16 l 1
 259.16 118.16 l 1
 259.16 45.627 l 1
 259.16 -26.9062 l 1
 295 -26.9062 l 1
 330.84 -26.9062 l 1
 330.84 81.4668 l 1
 330.84 189.84 l 1
 366.68 189.84 l 1
 402.52 189.84 l 1
 402.52 154 l 1
 402.52 118.16 l 1
 439.213 118.16 l 1
 475.906 118.16 l 1
 475.906 225.68 l 1
187.48 9.78711 m 1
 187.48 46.4805 l 1
 151.64 46.4805 l 1
 115.8 46.4805 l 1
 115.8 9.78711 l 1
 115.8 -26.9062 l 1
 151.64 -26.9062 l 1
 187.48 -26.9062 l 1
 187.48 9.78711 l 1
475.906 9.78711 m 1
 475.906 46.4805 l 1
 439.213 46.4805 l 1
 402.52 46.4805 l 1
 402.52 9.78711 l 1
 402.52 -26.9062 l 1
 439.213 -26.9062 l 1
 475.906 -26.9062 l 1
 475.906 9.78711 l 1
EndSplineSet
EndChar

StartChar: uni3079
Encoding: 12409 12409 90
Width: 589
VWidth: 0
Flags: HW
LayerCount: 2
Back
Fore
SplineSet
39 154 m 1
 39 410 l 1
 295 410 l 1
 551 410 l 1
 551 154 l 1
 551 -102 l 1
 295 -102 l 1
 39 -102 l 1
 39 154 l 1
475.906 297.36 m 1
 475.906 333.2 l 1
 295.854 333.2 l 1
 115.8 333.2 l 1
 115.8 297.36 l 1
 115.8 261.52 l 1
 187.48 261.52 l 1
 259.16 261.52 l 1
 259.16 225.68 l 1
 259.16 189.84 l 1
 187.48 189.84 l 1
 115.8 189.84 l 1
 115.8 154 l 1
 115.8 118.16 l 1
 151.64 118.16 l 1
 187.48 118.16 l 1
 187.48 82.3203 l 1
 187.48 46.4805 l 1
 151.64 46.4805 l 1
 115.8 46.4805 l 1
 115.8 9.78711 l 1
 115.8 -26.9062 l 1
 151.64 -26.9062 l 1
 187.48 -26.9062 l 1
 187.48 9.78711 l 1
 187.48 46.4805 l 1
 223.32 46.4805 l 1
 259.16 46.4805 l 1
 259.16 9.78711 l 1
 259.16 -26.9062 l 1
 295 -26.9062 l 1
 330.84 -26.9062 l 1
 330.84 9.78711 l 1
 330.84 46.4805 l 1
 295 46.4805 l 1
 259.16 46.4805 l 1
 259.16 82.3203 l 1
 259.16 118.16 l 1
 295 118.16 l 1
 330.84 118.16 l 1
 330.84 154 l 1
 330.84 189.84 l 1
 366.68 189.84 l 1
 402.52 189.84 l 1
 402.52 81.4668 l 1
 402.52 -26.9062 l 1
 439.213 -26.9062 l 1
 475.906 -26.9062 l 1
 475.906 81.4668 l 1
 475.906 189.84 l 1
 439.213 189.84 l 1
 402.52 189.84 l 1
 402.52 225.68 l 1
 402.52 261.52 l 1
 439.213 261.52 l 1
 475.906 261.52 l 1
 475.906 297.36 l 1
EndSplineSet
EndChar

StartChar: uni30B2
Encoding: 12466 12466 91
Width: 589
VWidth: 0
Flags: HW
LayerCount: 2
Back
Fore
SplineSet
39 154 m 1
 39 410 l 1
 295 410 l 1
 551 410 l 1
 551 154 l 1
 551 -102 l 1
 295 -102 l 1
 39 -102 l 1
 39 154 l 1
475.906 297.36 m 1
 475.906 333.2 l 1
 295.854 333.2 l 1
 115.8 333.2 l 1
 115.8 297.36 l 1
 115.8 261.52 l 1
 187.48 261.52 l 1
 259.16 261.52 l 1
 259.16 225.68 l 1
 259.16 189.84 l 1
 187.48 189.84 l 1
 115.8 189.84 l 1
 115.8 154 l 1
 115.8 118.16 l 1
 223.32 118.16 l 1
 330.84 118.16 l 1
 330.84 82.3203 l 1
 330.84 46.4805 l 1
 295 46.4805 l 1
 259.16 46.4805 l 1
 259.16 9.78711 l 1
 259.16 -26.9062 l 1
 295 -26.9062 l 1
 330.84 -26.9062 l 1
 330.84 9.78711 l 1
 330.84 46.4805 l 1
 366.68 46.4805 l 1
 402.52 46.4805 l 1
 402.52 9.78711 l 1
 402.52 -26.9062 l 1
 439.213 -26.9062 l 1
 475.906 -26.9062 l 1
 475.906 45.627 l 1
 475.906 118.16 l 1
 439.213 118.16 l 1
 402.52 118.16 l 1
 402.52 154 l 1
 402.52 189.84 l 1
 366.68 189.84 l 1
 330.84 189.84 l 1
 330.84 225.68 l 1
 330.84 261.52 l 1
 403.373 261.52 l 1
 475.906 261.52 l 1
 475.906 297.36 l 1
187.48 9.78711 m 1
 187.48 46.4805 l 1
 151.64 46.4805 l 1
 115.8 46.4805 l 1
 115.8 9.78711 l 1
 115.8 -26.9062 l 1
 151.64 -26.9062 l 1
 187.48 -26.9062 l 1
 187.48 9.78711 l 1
EndSplineSet
EndChar

StartChar: uni308D
Encoding: 12429 12429 92
Width: 589
VWidth: 0
Flags: HW
LayerCount: 2
Back
Fore
SplineSet
330.84 189.84 m 1
 330.84 261.52 l 1
 366.68 261.52 l 1
 402.52 261.52 l 1
 402.52 189.84 l 1
 402.52 118.16 l 1
 366.68 118.16 l 1
 330.84 118.16 l 1
 330.84 189.84 l 1
39 154 m 1
 39 410 l 1
 295 410 l 1
 551 410 l 1
 551 154 l 1
 551 -102 l 1
 295 -102 l 1
 39 -102 l 1
 39 154 l 1
475.906 153.146 m 1
 475.906 333.2 l 1
 295.854 333.2 l 1
 115.8 333.2 l 1
 115.8 297.36 l 1
 115.8 261.52 l 1
 187.48 261.52 l 1
 259.16 261.52 l 1
 259.16 225.68 l 1
 259.16 189.84 l 1
 187.48 189.84 l 1
 115.8 189.84 l 1
 115.8 154 l 1
 115.8 118.16 l 1
 187.48 118.16 l 1
 259.16 118.16 l 1
 259.16 45.627 l 1
 259.16 -26.9062 l 1
 295 -26.9062 l 1
 330.84 -26.9062 l 1
 330.84 9.78711 l 1
 330.84 46.4805 l 1
 366.68 46.4805 l 1
 402.52 46.4805 l 1
 402.52 9.78711 l 1
 402.52 -26.9062 l 1
 439.213 -26.9062 l 1
 475.906 -26.9062 l 1
 475.906 153.146 l 1
187.48 9.78711 m 1
 187.48 46.4805 l 1
 151.64 46.4805 l 1
 115.8 46.4805 l 1
 115.8 9.78711 l 1
 115.8 -26.9062 l 1
 151.64 -26.9062 l 1
 187.48 -26.9062 l 1
 187.48 9.78711 l 1
EndSplineSet
EndChar

StartChar: uni304F
Encoding: 12367 12367 93
Width: 589
VWidth: 0
Flags: W
HStem: -102 148.48<187.48 259.16 330.84 402.52> -102 75.0938<115.8 187.48 259.16 330.84 402.52 475.906> 46.4805 71.6797<115.8 187.48> 189.84 71.6797<115.8 330.84 402.52 475.906> 333.2 76.7998<115.8 475.906>
VStem: 39 76.7998<-26.9062 46.4805 118.16 189.84 261.52 333.2> 187.48 71.6797<-26.9062 46.4805> 330.84 71.6797<-26.9062 46.4805 118.16 189.84> 475.906 75.0938<-26.9062 189.84 261.52 333.2>
LayerCount: 2
Back
Fore
SplineSet
39 154 m 1x5f80
 39 410 l 1
 295 410 l 1
 551 410 l 1
 551 154 l 1
 551 -102 l 1
 295 -102 l 1
 39 -102 l 1
 39 154 l 1x5f80
475.906 297.36 m 1
 475.906 333.2 l 1
 295.854 333.2 l 1
 115.8 333.2 l 1
 115.8 297.36 l 1
 115.8 261.52 l 1
 295.854 261.52 l 1
 475.906 261.52 l 1
 475.906 297.36 l 1
330.84 154 m 1
 330.84 189.84 l 1
 223.32 189.84 l 1
 115.8 189.84 l 1
 115.8 154 l 1
 115.8 118.16 l 1
 151.64 118.16 l 1
 187.48 118.16 l 1x7f80
 187.48 82.3203 l 1
 187.48 46.4805 l 1x9f80
 151.64 46.4805 l 1
 115.8 46.4805 l 1
 115.8 9.78711 l 1
 115.8 -26.9062 l 1
 151.64 -26.9062 l 1
 187.48 -26.9062 l 1x7f80
 187.48 9.78711 l 1
 187.48 46.4805 l 1
 223.32 46.4805 l 1
 259.16 46.4805 l 1x9f80
 259.16 9.78711 l 1
 259.16 -26.9062 l 1
 295 -26.9062 l 1
 330.84 -26.9062 l 1x5f80
 330.84 9.78711 l 1
 330.84 46.4805 l 1
 366.68 46.4805 l 1
 402.52 46.4805 l 1x9f80
 402.52 9.78711 l 1
 402.52 -26.9062 l 1
 439.213 -26.9062 l 1
 475.906 -26.9062 l 1
 475.906 81.4668 l 1
 475.906 189.84 l 1
 439.213 189.84 l 1
 402.52 189.84 l 1
 402.52 154 l 1
 402.52 118.16 l 1
 366.68 118.16 l 1
 330.84 118.16 l 1x7f80
 330.84 154 l 1
EndSplineSet
EndChar

StartChar: uni30AA
Encoding: 12458 12458 94
Width: 589
VWidth: 0
Flags: HW
LayerCount: 2
Back
Fore
SplineSet
39 154 m 1
 39 410 l 1
 295 410 l 1
 551 410 l 1
 551 154 l 1
 551 -102 l 1
 295 -102 l 1
 39 -102 l 1
 39 154 l 1
475.906 261.52 m 1
 475.906 333.2 l 1
 295.854 333.2 l 1
 115.8 333.2 l 1
 115.8 297.36 l 1
 115.8 261.52 l 1
 187.48 261.52 l 1
 259.16 261.52 l 1
 259.16 225.68 l 1
 259.16 189.84 l 1
 187.48 189.84 l 1
 115.8 189.84 l 1
 115.8 154 l 1
 115.8 118.16 l 1
 187.48 118.16 l 1
 259.16 118.16 l 1
 259.16 45.627 l 1
 259.16 -26.9062 l 1
 295 -26.9062 l 1
 330.84 -26.9062 l 1
 330.84 117.307 l 1
 330.84 261.52 l 1
 366.68 261.52 l 1
 402.52 261.52 l 1
 402.52 225.68 l 1
 402.52 189.84 l 1
 439.213 189.84 l 1
 475.906 189.84 l 1
 475.906 261.52 l 1
475.906 45.627 m 1
 475.906 118.16 l 1
 439.213 118.16 l 1
 402.52 118.16 l 1
 402.52 45.627 l 1
 402.52 -26.9062 l 1
 439.213 -26.9062 l 1
 475.906 -26.9062 l 1
 475.906 45.627 l 1
187.48 9.78711 m 1
 187.48 46.4805 l 1
 151.64 46.4805 l 1
 115.8 46.4805 l 1
 115.8 9.78711 l 1
 115.8 -26.9062 l 1
 151.64 -26.9062 l 1
 187.48 -26.9062 l 1
 187.48 9.78711 l 1
EndSplineSet
EndChar

StartChar: uni3087
Encoding: 12423 12423 95
Width: 589
VWidth: 0
Flags: HW
LayerCount: 2
Back
Fore
SplineSet
39 154 m 1
 39 410 l 1
 295 410 l 1
 551 410 l 1
 551 154 l 1
 551 -102 l 1
 295 -102 l 1
 39 -102 l 1
 39 154 l 1
475.906 297.36 m 1
 475.906 333.2 l 1
 295.854 333.2 l 1
 115.8 333.2 l 1
 115.8 297.36 l 1
 115.8 261.52 l 1
 295.854 261.52 l 1
 475.906 261.52 l 1
 475.906 297.36 l 1
475.906 81.4668 m 1
 475.906 189.84 l 1
 295.854 189.84 l 1
 115.8 189.84 l 1
 115.8 154 l 1
 115.8 118.16 l 1
 187.48 118.16 l 1
 259.16 118.16 l 1
 259.16 45.627 l 1
 259.16 -26.9062 l 1
 295 -26.9062 l 1
 330.84 -26.9062 l 1
 330.84 9.78711 l 1
 330.84 46.4805 l 1
 366.68 46.4805 l 1
 402.52 46.4805 l 1
 402.52 9.78711 l 1
 402.52 -26.9062 l 1
 439.213 -26.9062 l 1
 475.906 -26.9062 l 1
 475.906 81.4668 l 1
187.48 9.78711 m 1
 187.48 46.4805 l 1
 151.64 46.4805 l 1
 115.8 46.4805 l 1
 115.8 9.78711 l 1
 115.8 -26.9062 l 1
 151.64 -26.9062 l 1
 187.48 -26.9062 l 1
 187.48 9.78711 l 1
EndSplineSet
EndChar

StartChar: uni30F4
Encoding: 12532 12532 96
Width: 589
VWidth: 0
Flags: HW
LayerCount: 2
Back
Fore
SplineSet
259.16 82.3203 m 1
 259.16 118.16 l 1
 295 118.16 l 1
 330.84 118.16 l 1
 330.84 82.3203 l 1
 330.84 46.4805 l 1
 295 46.4805 l 1
 259.16 46.4805 l 1
 259.16 82.3203 l 1
39 154 m 1
 39 410 l 1
 295 410 l 1
 551 410 l 1
 551 154 l 1
 551 -102 l 1
 295 -102 l 1
 39 -102 l 1
 39 154 l 1
475.906 297.36 m 1
 475.906 333.2 l 1
 295.854 333.2 l 1
 115.8 333.2 l 1
 115.8 297.36 l 1
 115.8 261.52 l 1
 295.854 261.52 l 1
 475.906 261.52 l 1
 475.906 297.36 l 1
187.48 154 m 1
 187.48 189.84 l 1
 151.64 189.84 l 1
 115.8 189.84 l 1
 115.8 154 l 1
 115.8 118.16 l 1
 151.64 118.16 l 1
 187.48 118.16 l 1
 187.48 82.3203 l 1
 187.48 46.4805 l 1
 151.64 46.4805 l 1
 115.8 46.4805 l 1
 115.8 9.78711 l 1
 115.8 -26.9062 l 1
 151.64 -26.9062 l 1
 187.48 -26.9062 l 1
 187.48 9.78711 l 1
 187.48 46.4805 l 1
 223.32 46.4805 l 1
 259.16 46.4805 l 1
 259.16 9.78711 l 1
 259.16 -26.9062 l 1
 295 -26.9062 l 1
 330.84 -26.9062 l 1
 330.84 9.78711 l 1
 330.84 46.4805 l 1
 366.68 46.4805 l 1
 402.52 46.4805 l 1
 402.52 9.78711 l 1
 402.52 -26.9062 l 1
 439.213 -26.9062 l 1
 475.906 -26.9062 l 1
 475.906 9.78711 l 1
 475.906 46.4805 l 1
 439.213 46.4805 l 1
 402.52 46.4805 l 1
 402.52 118.16 l 1
 402.52 189.84 l 1
 330.84 189.84 l 1
 259.16 189.84 l 1
 259.16 154 l 1
 259.16 118.16 l 1
 223.32 118.16 l 1
 187.48 118.16 l 1
 187.48 154 l 1
EndSplineSet
EndChar

StartChar: uni3043
Encoding: 12355 12355 97
Width: 589
VWidth: 0
Flags: W
HStem: -102 148.48<187.48 259.16 330.84 402.52> -102 75.0938<115.8 187.48 259.16 330.84 402.52 475.906> 46.4805 71.6797<115.8 187.48> 189.84 71.6797<115.8 330.84> 333.2 76.7998<115.8 475.906>
VStem: 39 76.7998<-26.9062 46.4805 118.16 189.84 261.52 333.2> 187.48 71.6797<-26.9062 46.4805> 330.84 71.6797<-26.9062 46.4805> 402.52 148.48<118.16 261.52> 475.906 75.0938<-26.9062 118.16 261.52 333.2>
LayerCount: 2
Back
Fore
SplineSet
39 154 m 1x5e40
 39 410 l 1
 295 410 l 1
 551 410 l 1x5e40
 551 154 l 1x5e80
 551 -102 l 1
 295 -102 l 1
 39 -102 l 1
 39 154 l 1x5e40
475.906 297.36 m 1
 475.906 333.2 l 1
 295.854 333.2 l 1
 115.8 333.2 l 1
 115.8 297.36 l 1
 115.8 261.52 l 1
 223.32 261.52 l 1
 330.84 261.52 l 1
 330.84 225.68 l 1
 330.84 189.84 l 1
 223.32 189.84 l 1
 115.8 189.84 l 1
 115.8 154 l 1
 115.8 118.16 l 1
 151.64 118.16 l 1
 187.48 118.16 l 1x7f40
 187.48 82.3203 l 1
 187.48 46.4805 l 1x9f40
 151.64 46.4805 l 1
 115.8 46.4805 l 1
 115.8 9.78711 l 1
 115.8 -26.9062 l 1
 151.64 -26.9062 l 1
 187.48 -26.9062 l 1x7f40
 187.48 9.78711 l 1
 187.48 46.4805 l 1
 223.32 46.4805 l 1
 259.16 46.4805 l 1x9f40
 259.16 9.78711 l 1
 259.16 -26.9062 l 1
 295 -26.9062 l 1
 330.84 -26.9062 l 1x5f40
 330.84 9.78711 l 1
 330.84 46.4805 l 1
 366.68 46.4805 l 1
 402.52 46.4805 l 1x9f40
 402.52 9.78711 l 1
 402.52 -26.9062 l 1
 439.213 -26.9062 l 1
 475.906 -26.9062 l 1
 475.906 45.627 l 1
 475.906 118.16 l 1x7f40
 439.213 118.16 l 1
 402.52 118.16 l 1
 402.52 189.84 l 1
 402.52 261.52 l 1x7e80
 439.213 261.52 l 1
 475.906 261.52 l 1
 475.906 297.36 l 1
EndSplineSet
EndChar

StartChar: uni30C0
Encoding: 12480 12480 98
Width: 589
VWidth: 0
Flags: HW
LayerCount: 2
Back
Fore
SplineSet
39 154 m 1
 39 410 l 1
 295 410 l 1
 551 410 l 1
 551 154 l 1
 551 -102 l 1
 295 -102 l 1
 39 -102 l 1
 39 154 l 1
475.906 297.36 m 1
 475.906 333.2 l 1
 295.854 333.2 l 1
 115.8 333.2 l 1
 115.8 297.36 l 1
 115.8 261.52 l 1
 223.32 261.52 l 1
 330.84 261.52 l 1
 330.84 225.68 l 1
 330.84 189.84 l 1
 223.32 189.84 l 1
 115.8 189.84 l 1
 115.8 154 l 1
 115.8 118.16 l 1
 259.16 118.16 l 1
 402.52 118.16 l 1
 402.52 45.627 l 1
 402.52 -26.9062 l 1
 439.213 -26.9062 l 1
 475.906 -26.9062 l 1
 475.906 45.627 l 1
 475.906 118.16 l 1
 439.213 118.16 l 1
 402.52 118.16 l 1
 402.52 189.84 l 1
 402.52 261.52 l 1
 439.213 261.52 l 1
 475.906 261.52 l 1
 475.906 297.36 l 1
187.48 9.78711 m 1
 187.48 46.4805 l 1
 151.64 46.4805 l 1
 115.8 46.4805 l 1
 115.8 9.78711 l 1
 115.8 -26.9062 l 1
 151.64 -26.9062 l 1
 187.48 -26.9062 l 1
 187.48 9.78711 l 1
330.84 9.78711 m 1
 330.84 46.4805 l 1
 295 46.4805 l 1
 259.16 46.4805 l 1
 259.16 9.78711 l 1
 259.16 -26.9062 l 1
 295 -26.9062 l 1
 330.84 -26.9062 l 1
 330.84 9.78711 l 1
EndSplineSet
EndChar

StartChar: uni30E7
Encoding: 12519 12519 99
Width: 589
VWidth: 0
Flags: HW
LayerCount: 2
Back
Fore
SplineSet
259.16 225.68 m 1
 259.16 261.52 l 1
 295 261.52 l 1
 330.84 261.52 l 1
 330.84 225.68 l 1
 330.84 189.84 l 1
 295 189.84 l 1
 259.16 189.84 l 1
 259.16 154 l 1
 259.16 118.16 l 1
 223.32 118.16 l 1
 187.48 118.16 l 1
 187.48 154 l 1
 187.48 189.84 l 1
 223.32 189.84 l 1
 259.16 189.84 l 1
 259.16 225.68 l 1
39 154 m 1
 39 410 l 1
 295 410 l 1
 551 410 l 1
 551 154 l 1
 551 -102 l 1
 295 -102 l 1
 39 -102 l 1
 39 154 l 1
475.906 153.146 m 1
 475.906 333.2 l 1
 295.854 333.2 l 1
 115.8 333.2 l 1
 115.8 297.36 l 1
 115.8 261.52 l 1
 151.64 261.52 l 1
 187.48 261.52 l 1
 187.48 225.68 l 1
 187.48 189.84 l 1
 151.64 189.84 l 1
 115.8 189.84 l 1
 115.8 154 l 1
 115.8 118.16 l 1
 151.64 118.16 l 1
 187.48 118.16 l 1
 187.48 82.3203 l 1
 187.48 46.4805 l 1
 151.64 46.4805 l 1
 115.8 46.4805 l 1
 115.8 9.78711 l 1
 115.8 -26.9062 l 1
 151.64 -26.9062 l 1
 187.48 -26.9062 l 1
 187.48 9.78711 l 1
 187.48 46.4805 l 1
 223.32 46.4805 l 1
 259.16 46.4805 l 1
 259.16 9.78711 l 1
 259.16 -26.9062 l 1
 295 -26.9062 l 1
 330.84 -26.9062 l 1
 330.84 81.4668 l 1
 330.84 189.84 l 1
 366.68 189.84 l 1
 402.52 189.84 l 1
 402.52 81.4668 l 1
 402.52 -26.9062 l 1
 439.213 -26.9062 l 1
 475.906 -26.9062 l 1
 475.906 153.146 l 1
EndSplineSet
EndChar

StartChar: uni30CF
Encoding: 12495 12495 100
Width: 589
VWidth: 0
Flags: HW
LayerCount: 2
Back
Fore
SplineSet
259.16 225.68 m 1
 259.16 261.52 l 1
 295 261.52 l 1
 330.84 261.52 l 1
 330.84 225.68 l 1
 330.84 189.84 l 1
 295 189.84 l 1
 259.16 189.84 l 1
 259.16 154 l 1
 259.16 118.16 l 1
 223.32 118.16 l 1
 187.48 118.16 l 1
 187.48 154 l 1
 187.48 189.84 l 1
 223.32 189.84 l 1
 259.16 189.84 l 1
 259.16 225.68 l 1
39 154 m 1
 39 410 l 1
 295 410 l 1
 551 410 l 1
 551 154 l 1
 551 -102 l 1
 295 -102 l 1
 39 -102 l 1
 39 154 l 1
475.906 225.68 m 1
 475.906 333.2 l 1
 295.854 333.2 l 1
 115.8 333.2 l 1
 115.8 297.36 l 1
 115.8 261.52 l 1
 151.64 261.52 l 1
 187.48 261.52 l 1
 187.48 225.68 l 1
 187.48 189.84 l 1
 151.64 189.84 l 1
 115.8 189.84 l 1
 115.8 154 l 1
 115.8 118.16 l 1
 151.64 118.16 l 1
 187.48 118.16 l 1
 187.48 82.3203 l 1
 187.48 46.4805 l 1
 151.64 46.4805 l 1
 115.8 46.4805 l 1
 115.8 9.78711 l 1
 115.8 -26.9062 l 1
 151.64 -26.9062 l 1
 187.48 -26.9062 l 1
 187.48 9.78711 l 1
 187.48 46.4805 l 1
 223.32 46.4805 l 1
 259.16 46.4805 l 1
 259.16 9.78711 l 1
 259.16 -26.9062 l 1
 295 -26.9062 l 1
 330.84 -26.9062 l 1
 330.84 9.78711 l 1
 330.84 46.4805 l 1
 366.68 46.4805 l 1
 402.52 46.4805 l 1
 402.52 9.78711 l 1
 402.52 -26.9062 l 1
 439.213 -26.9062 l 1
 475.906 -26.9062 l 1
 475.906 9.78711 l 1
 475.906 46.4805 l 1
 439.213 46.4805 l 1
 402.52 46.4805 l 1
 402.52 82.3203 l 1
 402.52 118.16 l 1
 439.213 118.16 l 1
 475.906 118.16 l 1
 475.906 225.68 l 1
EndSplineSet
EndChar

StartChar: uni30D8
Encoding: 12504 12504 101
Width: 589
VWidth: 0
Flags: HW
LayerCount: 2
Back
Fore
SplineSet
39 154 m 1
 39 410 l 1
 295 410 l 1
 551 410 l 1
 551 154 l 1
 551 -102 l 1
 295 -102 l 1
 39 -102 l 1
 39 154 l 1
475.906 297.36 m 1
 475.906 333.2 l 1
 295.854 333.2 l 1
 115.8 333.2 l 1
 115.8 297.36 l 1
 115.8 261.52 l 1
 223.32 261.52 l 1
 330.84 261.52 l 1
 330.84 225.68 l 1
 330.84 189.84 l 1
 295 189.84 l 1
 259.16 189.84 l 1
 259.16 154 l 1
 259.16 118.16 l 1
 223.32 118.16 l 1
 187.48 118.16 l 1
 187.48 154 l 1
 187.48 189.84 l 1
 151.64 189.84 l 1
 115.8 189.84 l 1
 115.8 154 l 1
 115.8 118.16 l 1
 151.64 118.16 l 1
 187.48 118.16 l 1
 187.48 82.3203 l 1
 187.48 46.4805 l 1
 151.64 46.4805 l 1
 115.8 46.4805 l 1
 115.8 9.78711 l 1
 115.8 -26.9062 l 1
 151.64 -26.9062 l 1
 187.48 -26.9062 l 1
 187.48 9.78711 l 1
 187.48 46.4805 l 1
 223.32 46.4805 l 1
 259.16 46.4805 l 1
 259.16 9.78711 l 1
 259.16 -26.9062 l 1
 295 -26.9062 l 1
 330.84 -26.9062 l 1
 330.84 9.78711 l 1
 330.84 46.4805 l 1
 366.68 46.4805 l 1
 402.52 46.4805 l 1
 402.52 9.78711 l 1
 402.52 -26.9062 l 1
 439.213 -26.9062 l 1
 475.906 -26.9062 l 1
 475.906 9.78711 l 1
 475.906 46.4805 l 1
 439.213 46.4805 l 1
 402.52 46.4805 l 1
 402.52 82.3203 l 1
 402.52 118.16 l 1
 366.68 118.16 l 1
 330.84 118.16 l 1
 330.84 154 l 1
 330.84 189.84 l 1
 366.68 189.84 l 1
 402.52 189.84 l 1
 402.52 225.68 l 1
 402.52 261.52 l 1
 439.213 261.52 l 1
 475.906 261.52 l 1
 475.906 297.36 l 1
EndSplineSet
EndChar

StartChar: uni30E0
Encoding: 12512 12512 102
Width: 589
VWidth: 0
Flags: HW
LayerCount: 2
Back
Fore
SplineSet
39 154 m 1
 39 410 l 1
 295 410 l 1
 551 410 l 1
 551 154 l 1
 551 -102 l 1
 295 -102 l 1
 39 -102 l 1
 39 154 l 1
475.906 153.146 m 1
 475.906 333.2 l 1
 295.854 333.2 l 1
 115.8 333.2 l 1
 115.8 297.36 l 1
 115.8 261.52 l 1
 223.32 261.52 l 1
 330.84 261.52 l 1
 330.84 225.68 l 1
 330.84 189.84 l 1
 295 189.84 l 1
 259.16 189.84 l 1
 259.16 154 l 1
 259.16 118.16 l 1
 223.32 118.16 l 1
 187.48 118.16 l 1
 187.48 154 l 1
 187.48 189.84 l 1
 151.64 189.84 l 1
 115.8 189.84 l 1
 115.8 154 l 1
 115.8 118.16 l 1
 151.64 118.16 l 1
 187.48 118.16 l 1
 187.48 82.3203 l 1
 187.48 46.4805 l 1
 151.64 46.4805 l 1
 115.8 46.4805 l 1
 115.8 9.78711 l 1
 115.8 -26.9062 l 1
 151.64 -26.9062 l 1
 187.48 -26.9062 l 1
 187.48 9.78711 l 1
 187.48 46.4805 l 1
 223.32 46.4805 l 1
 259.16 46.4805 l 1
 259.16 9.78711 l 1
 259.16 -26.9062 l 1
 295 -26.9062 l 1
 330.84 -26.9062 l 1
 330.84 45.627 l 1
 330.84 118.16 l 1
 366.68 118.16 l 1
 402.52 118.16 l 1
 402.52 45.627 l 1
 402.52 -26.9062 l 1
 439.213 -26.9062 l 1
 475.906 -26.9062 l 1
 475.906 153.146 l 1
EndSplineSet
EndChar

StartChar: uni304D
Encoding: 12365 12365 103
Width: 589
VWidth: 0
Flags: W
HStem: -102 148.48<187.48 259.16 330.84 402.52> -102 75.0938<115.8 187.48 259.16 330.84 402.52 475.906> 46.4805 71.6797<115.8 187.48> 189.84 71.6797<115.8 259.16> 333.2 76.7998<115.8 475.906>
VStem: 39 76.7998<-26.9062 46.4805 118.16 189.84 261.52 333.2> 187.48 71.6797<-26.9062 46.4805> 330.84 71.6797<-26.9062 46.4805> 475.906 75.0938<-26.9062 46.4805 261.52 333.2>
LayerCount: 2
Back
Fore
SplineSet
39 154 m 1x5f80
 39 410 l 1
 295 410 l 1
 551 410 l 1
 551 154 l 1
 551 -102 l 1
 295 -102 l 1
 39 -102 l 1
 39 154 l 1x5f80
475.906 297.36 m 1
 475.906 333.2 l 1
 295.854 333.2 l 1
 115.8 333.2 l 1
 115.8 297.36 l 1
 115.8 261.52 l 1
 187.48 261.52 l 1
 259.16 261.52 l 1
 259.16 225.68 l 1
 259.16 189.84 l 1
 187.48 189.84 l 1
 115.8 189.84 l 1
 115.8 154 l 1
 115.8 118.16 l 1
 151.64 118.16 l 1
 187.48 118.16 l 1x3f80
 187.48 82.3203 l 1
 187.48 46.4805 l 1x9f80
 151.64 46.4805 l 1
 115.8 46.4805 l 1
 115.8 9.78711 l 1
 115.8 -26.9062 l 1
 151.64 -26.9062 l 1
 187.48 -26.9062 l 1x7f80
 187.48 9.78711 l 1
 187.48 46.4805 l 1
 223.32 46.4805 l 1
 259.16 46.4805 l 1x9f80
 259.16 9.78711 l 1
 259.16 -26.9062 l 1
 295 -26.9062 l 1
 330.84 -26.9062 l 1x5f80
 330.84 9.78711 l 1
 330.84 46.4805 l 1
 366.68 46.4805 l 1
 402.52 46.4805 l 1x9f80
 402.52 9.78711 l 1
 402.52 -26.9062 l 1
 439.213 -26.9062 l 1
 475.906 -26.9062 l 1
 475.906 9.78711 l 1
 475.906 46.4805 l 1
 439.213 46.4805 l 1x7f80
 402.52 46.4805 l 1x9f80
 402.52 82.3203 l 1
 402.52 118.16 l 1
 366.68 118.16 l 1
 330.84 118.16 l 1x3f80
 330.84 189.84 l 1
 330.84 261.52 l 1
 403.373 261.52 l 1
 475.906 261.52 l 1
 475.906 297.36 l 1
EndSplineSet
EndChar

StartChar: uni30EC
Encoding: 12524 12524 104
Width: 589
VWidth: 0
Flags: HW
LayerCount: 2
Back
Fore
SplineSet
39 154 m 1
 39 410 l 1
 295 410 l 1
 551 410 l 1
 551 154 l 1
 551 -102 l 1
 295 -102 l 1
 39 -102 l 1
 39 154 l 1
475.906 261.52 m 1
 475.906 333.2 l 1
 295.854 333.2 l 1
 115.8 333.2 l 1
 115.8 297.36 l 1
 115.8 261.52 l 1
 259.16 261.52 l 1
 402.52 261.52 l 1
 402.52 225.68 l 1
 402.52 189.84 l 1
 439.213 189.84 l 1
 475.906 189.84 l 1
 475.906 261.52 l 1
187.48 154 m 1
 187.48 189.84 l 1
 151.64 189.84 l 1
 115.8 189.84 l 1
 115.8 154 l 1
 115.8 118.16 l 1
 151.64 118.16 l 1
 187.48 118.16 l 1
 187.48 82.3203 l 1
 187.48 46.4805 l 1
 151.64 46.4805 l 1
 115.8 46.4805 l 1
 115.8 9.78711 l 1
 115.8 -26.9062 l 1
 151.64 -26.9062 l 1
 187.48 -26.9062 l 1
 187.48 9.78711 l 1
 187.48 46.4805 l 1
 223.32 46.4805 l 1
 259.16 46.4805 l 1
 259.16 9.78711 l 1
 259.16 -26.9062 l 1
 295 -26.9062 l 1
 330.84 -26.9062 l 1
 330.84 81.4668 l 1
 330.84 189.84 l 1
 295 189.84 l 1
 259.16 189.84 l 1
 259.16 154 l 1
 259.16 118.16 l 1
 223.32 118.16 l 1
 187.48 118.16 l 1
 187.48 154 l 1
475.906 9.78711 m 1
 475.906 46.4805 l 1
 439.213 46.4805 l 1
 402.52 46.4805 l 1
 402.52 9.78711 l 1
 402.52 -26.9062 l 1
 439.213 -26.9062 l 1
 475.906 -26.9062 l 1
 475.906 9.78711 l 1
EndSplineSet
EndChar

StartChar: uni3053
Encoding: 12371 12371 105
Width: 589
VWidth: 0
Flags: HW
LayerCount: 2
Back
Fore
SplineSet
39 154 m 1
 39 410 l 1
 295 410 l 1
 551 410 l 1
 551 154 l 1
 551 -102 l 1
 295 -102 l 1
 39 -102 l 1
 39 154 l 1
475.906 261.52 m 1
 475.906 333.2 l 1
 295.854 333.2 l 1
 115.8 333.2 l 1
 115.8 297.36 l 1
 115.8 261.52 l 1
 223.32 261.52 l 1
 330.84 261.52 l 1
 330.84 225.68 l 1
 330.84 189.84 l 1
 223.32 189.84 l 1
 115.8 189.84 l 1
 115.8 154 l 1
 115.8 118.16 l 1
 151.64 118.16 l 1
 187.48 118.16 l 1
 187.48 82.3203 l 1
 187.48 46.4805 l 1
 151.64 46.4805 l 1
 115.8 46.4805 l 1
 115.8 9.78711 l 1
 115.8 -26.9062 l 1
 151.64 -26.9062 l 1
 187.48 -26.9062 l 1
 187.48 9.78711 l 1
 187.48 46.4805 l 1
 223.32 46.4805 l 1
 259.16 46.4805 l 1
 259.16 9.78711 l 1
 259.16 -26.9062 l 1
 295 -26.9062 l 1
 330.84 -26.9062 l 1
 330.84 45.627 l 1
 330.84 118.16 l 1
 366.68 118.16 l 1
 402.52 118.16 l 1
 402.52 154 l 1
 402.52 189.84 l 1
 439.213 189.84 l 1
 475.906 189.84 l 1
 475.906 261.52 l 1
475.906 9.78711 m 1
 475.906 46.4805 l 1
 439.213 46.4805 l 1
 402.52 46.4805 l 1
 402.52 9.78711 l 1
 402.52 -26.9062 l 1
 439.213 -26.9062 l 1
 475.906 -26.9062 l 1
 475.906 9.78711 l 1
EndSplineSet
EndChar

StartChar: uni30E4
Encoding: 12516 12516 106
Width: 589
VWidth: 0
Flags: HW
LayerCount: 2
Back
Fore
SplineSet
39 154 m 1
 39 410 l 1
 295 410 l 1
 551 410 l 1
 551 154 l 1
 551 -102 l 1
 295 -102 l 1
 39 -102 l 1
 39 154 l 1
475.906 225.68 m 1
 475.906 333.2 l 1
 295.854 333.2 l 1
 115.8 333.2 l 1
 115.8 297.36 l 1
 115.8 261.52 l 1
 259.16 261.52 l 1
 402.52 261.52 l 1
 402.52 225.68 l 1
 402.52 189.84 l 1
 330.84 189.84 l 1
 259.16 189.84 l 1
 259.16 154 l 1
 259.16 118.16 l 1
 223.32 118.16 l 1
 187.48 118.16 l 1
 187.48 154 l 1
 187.48 189.84 l 1
 151.64 189.84 l 1
 115.8 189.84 l 1
 115.8 154 l 1
 115.8 118.16 l 1
 151.64 118.16 l 1
 187.48 118.16 l 1
 187.48 82.3203 l 1
 187.48 46.4805 l 1
 151.64 46.4805 l 1
 115.8 46.4805 l 1
 115.8 9.78711 l 1
 115.8 -26.9062 l 1
 151.64 -26.9062 l 1
 187.48 -26.9062 l 1
 187.48 9.78711 l 1
 187.48 46.4805 l 1
 223.32 46.4805 l 1
 259.16 46.4805 l 1
 259.16 9.78711 l 1
 259.16 -26.9062 l 1
 295 -26.9062 l 1
 330.84 -26.9062 l 1
 330.84 45.627 l 1
 330.84 118.16 l 1
 403.373 118.16 l 1
 475.906 118.16 l 1
 475.906 225.68 l 1
475.906 9.78711 m 1
 475.906 46.4805 l 1
 439.213 46.4805 l 1
 402.52 46.4805 l 1
 402.52 9.78711 l 1
 402.52 -26.9062 l 1
 439.213 -26.9062 l 1
 475.906 -26.9062 l 1
 475.906 9.78711 l 1
EndSplineSet
EndChar

StartChar: uni3059
Encoding: 12377 12377 107
Width: 589
VWidth: 0
Flags: HW
LayerCount: 2
Back
Fore
SplineSet
39 154 m 1
 39 410 l 1
 295 410 l 1
 551 410 l 1
 551 154 l 1
 551 -102 l 1
 295 -102 l 1
 39 -102 l 1
 39 154 l 1
475.906 225.68 m 1
 475.906 333.2 l 1
 295.854 333.2 l 1
 115.8 333.2 l 1
 115.8 297.36 l 1
 115.8 261.52 l 1
 187.48 261.52 l 1
 259.16 261.52 l 1
 259.16 225.68 l 1
 259.16 189.84 l 1
 187.48 189.84 l 1
 115.8 189.84 l 1
 115.8 154 l 1
 115.8 118.16 l 1
 151.64 118.16 l 1
 187.48 118.16 l 1
 187.48 82.3203 l 1
 187.48 46.4805 l 1
 151.64 46.4805 l 1
 115.8 46.4805 l 1
 115.8 9.78711 l 1
 115.8 -26.9062 l 1
 151.64 -26.9062 l 1
 187.48 -26.9062 l 1
 187.48 9.78711 l 1
 187.48 46.4805 l 1
 223.32 46.4805 l 1
 259.16 46.4805 l 1
 259.16 9.78711 l 1
 259.16 -26.9062 l 1
 295 -26.9062 l 1
 330.84 -26.9062 l 1
 330.84 81.4668 l 1
 330.84 189.84 l 1
 366.68 189.84 l 1
 402.52 189.84 l 1
 402.52 154 l 1
 402.52 118.16 l 1
 439.213 118.16 l 1
 475.906 118.16 l 1
 475.906 225.68 l 1
475.906 9.78711 m 1
 475.906 46.4805 l 1
 439.213 46.4805 l 1
 402.52 46.4805 l 1
 402.52 9.78711 l 1
 402.52 -26.9062 l 1
 439.213 -26.9062 l 1
 475.906 -26.9062 l 1
 475.906 9.78711 l 1
EndSplineSet
EndChar

StartChar: uni3065
Encoding: 12389 12389 108
Width: 589
VWidth: 0
Flags: HW
LayerCount: 2
Back
Fore
SplineSet
259.16 82.3203 m 1
 259.16 118.16 l 1
 295 118.16 l 1
 330.84 118.16 l 1
 330.84 82.3203 l 1
 330.84 46.4805 l 1
 295 46.4805 l 1
 259.16 46.4805 l 1
 259.16 82.3203 l 1
330.84 225.68 m 1
 330.84 261.52 l 1
 366.68 261.52 l 1
 402.52 261.52 l 1
 402.52 225.68 l 1
 402.52 189.84 l 1
 366.68 189.84 l 1
 330.84 189.84 l 1
 330.84 225.68 l 1
39 154 m 1
 39 410 l 1
 295 410 l 1
 551 410 l 1
 551 154 l 1
 551 -102 l 1
 295 -102 l 1
 39 -102 l 1
 39 154 l 1
475.906 261.52 m 1
 475.906 333.2 l 1
 295.854 333.2 l 1
 115.8 333.2 l 1
 115.8 297.36 l 1
 115.8 261.52 l 1
 187.48 261.52 l 1
 259.16 261.52 l 1
 259.16 225.68 l 1
 259.16 189.84 l 1
 187.48 189.84 l 1
 115.8 189.84 l 1
 115.8 154 l 1
 115.8 118.16 l 1
 151.64 118.16 l 1
 187.48 118.16 l 1
 187.48 82.3203 l 1
 187.48 46.4805 l 1
 151.64 46.4805 l 1
 115.8 46.4805 l 1
 115.8 9.78711 l 1
 115.8 -26.9062 l 1
 151.64 -26.9062 l 1
 187.48 -26.9062 l 1
 187.48 9.78711 l 1
 187.48 46.4805 l 1
 223.32 46.4805 l 1
 259.16 46.4805 l 1
 259.16 9.78711 l 1
 259.16 -26.9062 l 1
 295 -26.9062 l 1
 330.84 -26.9062 l 1
 330.84 9.78711 l 1
 330.84 46.4805 l 1
 366.68 46.4805 l 1
 402.52 46.4805 l 1
 402.52 9.78711 l 1
 402.52 -26.9062 l 1
 439.213 -26.9062 l 1
 475.906 -26.9062 l 1
 475.906 45.627 l 1
 475.906 118.16 l 1
 439.213 118.16 l 1
 402.52 118.16 l 1
 402.52 154 l 1
 402.52 189.84 l 1
 439.213 189.84 l 1
 475.906 189.84 l 1
 475.906 261.52 l 1
EndSplineSet
EndChar

StartChar: uni3085
Encoding: 12421 12421 109
Width: 589
VWidth: 0
Flags: HW
LayerCount: 2
Back
Fore
SplineSet
39 154 m 1
 39 410 l 1
 295 410 l 1
 551 410 l 1
 551 154 l 1
 551 -102 l 1
 295 -102 l 1
 39 -102 l 1
 39 154 l 1
475.906 297.36 m 1
 475.906 333.2 l 1
 295.854 333.2 l 1
 115.8 333.2 l 1
 115.8 297.36 l 1
 115.8 261.52 l 1
 187.48 261.52 l 1
 259.16 261.52 l 1
 259.16 225.68 l 1
 259.16 189.84 l 1
 187.48 189.84 l 1
 115.8 189.84 l 1
 115.8 154 l 1
 115.8 118.16 l 1
 187.48 118.16 l 1
 259.16 118.16 l 1
 259.16 45.627 l 1
 259.16 -26.9062 l 1
 295 -26.9062 l 1
 330.84 -26.9062 l 1
 330.84 9.78711 l 1
 330.84 46.4805 l 1
 366.68 46.4805 l 1
 402.52 46.4805 l 1
 402.52 9.78711 l 1
 402.52 -26.9062 l 1
 439.213 -26.9062 l 1
 475.906 -26.9062 l 1
 475.906 9.78711 l 1
 475.906 46.4805 l 1
 439.213 46.4805 l 1
 402.52 46.4805 l 1
 402.52 118.16 l 1
 402.52 189.84 l 1
 366.68 189.84 l 1
 330.84 189.84 l 1
 330.84 225.68 l 1
 330.84 261.52 l 1
 403.373 261.52 l 1
 475.906 261.52 l 1
 475.906 297.36 l 1
187.48 9.78711 m 1
 187.48 46.4805 l 1
 151.64 46.4805 l 1
 115.8 46.4805 l 1
 115.8 9.78711 l 1
 115.8 -26.9062 l 1
 151.64 -26.9062 l 1
 187.48 -26.9062 l 1
 187.48 9.78711 l 1
EndSplineSet
EndChar

StartChar: uni30A1
Encoding: 12449 12449 110
Width: 589
VWidth: 0
Flags: HW
LayerCount: 2
Back
Fore
SplineSet
330.84 225.68 m 1
 330.84 261.52 l 1
 366.68 261.52 l 1
 402.52 261.52 l 1
 402.52 225.68 l 1
 402.52 189.84 l 1
 366.68 189.84 l 1
 330.84 189.84 l 1
 330.84 225.68 l 1
39 154 m 1
 39 410 l 1
 295 410 l 1
 551 410 l 1
 551 154 l 1
 551 -102 l 1
 295 -102 l 1
 39 -102 l 1
 39 154 l 1
475.906 153.146 m 1
 475.906 333.2 l 1
 295.854 333.2 l 1
 115.8 333.2 l 1
 115.8 297.36 l 1
 115.8 261.52 l 1
 151.64 261.52 l 1
 187.48 261.52 l 1
 187.48 225.68 l 1
 187.48 189.84 l 1
 151.64 189.84 l 1
 115.8 189.84 l 1
 115.8 154 l 1
 115.8 118.16 l 1
 187.48 118.16 l 1
 259.16 118.16 l 1
 259.16 45.627 l 1
 259.16 -26.9062 l 1
 295 -26.9062 l 1
 330.84 -26.9062 l 1
 330.84 45.627 l 1
 330.84 118.16 l 1
 366.68 118.16 l 1
 402.52 118.16 l 1
 402.52 45.627 l 1
 402.52 -26.9062 l 1
 439.213 -26.9062 l 1
 475.906 -26.9062 l 1
 475.906 153.146 l 1
187.48 9.78711 m 1
 187.48 46.4805 l 1
 151.64 46.4805 l 1
 115.8 46.4805 l 1
 115.8 9.78711 l 1
 115.8 -26.9062 l 1
 151.64 -26.9062 l 1
 187.48 -26.9062 l 1
 187.48 9.78711 l 1
EndSplineSet
EndChar

StartChar: uni3083
Encoding: 12419 12419 111
Width: 589
VWidth: 0
Flags: HW
LayerCount: 2
Back
Fore
SplineSet
39 154 m 1
 39 410 l 1
 295 410 l 1
 551 410 l 1
 551 154 l 1
 551 -102 l 1
 295 -102 l 1
 39 -102 l 1
 39 154 l 1
475.906 225.68 m 1
 475.906 333.2 l 1
 295.854 333.2 l 1
 115.8 333.2 l 1
 115.8 297.36 l 1
 115.8 261.52 l 1
 223.32 261.52 l 1
 330.84 261.52 l 1
 330.84 225.68 l 1
 330.84 189.84 l 1
 223.32 189.84 l 1
 115.8 189.84 l 1
 115.8 154 l 1
 115.8 118.16 l 1
 187.48 118.16 l 1
 259.16 118.16 l 1
 259.16 45.627 l 1
 259.16 -26.9062 l 1
 295 -26.9062 l 1
 330.84 -26.9062 l 1
 330.84 9.78711 l 1
 330.84 46.4805 l 1
 366.68 46.4805 l 1
 402.52 46.4805 l 1
 402.52 9.78711 l 1
 402.52 -26.9062 l 1
 439.213 -26.9062 l 1
 475.906 -26.9062 l 1
 475.906 9.78711 l 1
 475.906 46.4805 l 1
 439.213 46.4805 l 1
 402.52 46.4805 l 1
 402.52 82.3203 l 1
 402.52 118.16 l 1
 439.213 118.16 l 1
 475.906 118.16 l 1
 475.906 225.68 l 1
187.48 9.78711 m 1
 187.48 46.4805 l 1
 151.64 46.4805 l 1
 115.8 46.4805 l 1
 115.8 9.78711 l 1
 115.8 -26.9062 l 1
 151.64 -26.9062 l 1
 187.48 -26.9062 l 1
 187.48 9.78711 l 1
EndSplineSet
EndChar

StartChar: uni308C
Encoding: 12428 12428 112
Width: 589
VWidth: 0
Flags: HW
LayerCount: 2
Back
Fore
SplineSet
39 154 m 1
 39 410 l 1
 295 410 l 1
 551 410 l 1
 551 154 l 1
 551 -102 l 1
 295 -102 l 1
 39 -102 l 1
 39 154 l 1
475.906 297.36 m 1
 475.906 333.2 l 1
 295.854 333.2 l 1
 115.8 333.2 l 1
 115.8 297.36 l 1
 115.8 261.52 l 1
 151.64 261.52 l 1
 187.48 261.52 l 1
 187.48 225.68 l 1
 187.48 189.84 l 1
 151.64 189.84 l 1
 115.8 189.84 l 1
 115.8 154 l 1
 115.8 118.16 l 1
 187.48 118.16 l 1
 259.16 118.16 l 1
 259.16 45.627 l 1
 259.16 -26.9062 l 1
 295 -26.9062 l 1
 330.84 -26.9062 l 1
 330.84 9.78711 l 1
 330.84 46.4805 l 1
 366.68 46.4805 l 1
 402.52 46.4805 l 1
 402.52 9.78711 l 1
 402.52 -26.9062 l 1
 439.213 -26.9062 l 1
 475.906 -26.9062 l 1
 475.906 9.78711 l 1
 475.906 46.4805 l 1
 439.213 46.4805 l 1
 402.52 46.4805 l 1
 402.52 82.3203 l 1
 402.52 118.16 l 1
 366.68 118.16 l 1
 330.84 118.16 l 1
 330.84 189.84 l 1
 330.84 261.52 l 1
 403.373 261.52 l 1
 475.906 261.52 l 1
 475.906 297.36 l 1
187.48 9.78711 m 1
 187.48 46.4805 l 1
 151.64 46.4805 l 1
 115.8 46.4805 l 1
 115.8 9.78711 l 1
 115.8 -26.9062 l 1
 151.64 -26.9062 l 1
 187.48 -26.9062 l 1
 187.48 9.78711 l 1
EndSplineSet
EndChar

StartChar: uni30D9
Encoding: 12505 12505 113
Width: 589
VWidth: 0
Flags: HW
LayerCount: 2
Back
Fore
SplineSet
187.48 154 m 1
 187.48 189.84 l 1
 223.32 189.84 l 1
 259.16 189.84 l 1
 259.16 154 l 1
 259.16 118.16 l 1
 223.32 118.16 l 1
 187.48 118.16 l 1
 187.48 154 l 1
330.84 189.84 m 1
 330.84 261.52 l 1
 366.68 261.52 l 1
 402.52 261.52 l 1
 402.52 189.84 l 1
 402.52 118.16 l 1
 366.68 118.16 l 1
 330.84 118.16 l 1
 330.84 189.84 l 1
39 154 m 1
 39 410 l 1
 295 410 l 1
 551 410 l 1
 551 154 l 1
 551 -102 l 1
 295 -102 l 1
 39 -102 l 1
 39 154 l 1
475.906 153.146 m 1
 475.906 333.2 l 1
 295.854 333.2 l 1
 115.8 333.2 l 1
 115.8 297.36 l 1
 115.8 261.52 l 1
 151.64 261.52 l 1
 187.48 261.52 l 1
 187.48 225.68 l 1
 187.48 189.84 l 1
 151.64 189.84 l 1
 115.8 189.84 l 1
 115.8 154 l 1
 115.8 118.16 l 1
 151.64 118.16 l 1
 187.48 118.16 l 1
 187.48 82.3203 l 1
 187.48 46.4805 l 1
 151.64 46.4805 l 1
 115.8 46.4805 l 1
 115.8 9.78711 l 1
 115.8 -26.9062 l 1
 151.64 -26.9062 l 1
 187.48 -26.9062 l 1
 187.48 9.78711 l 1
 187.48 46.4805 l 1
 223.32 46.4805 l 1
 259.16 46.4805 l 1
 259.16 9.78711 l 1
 259.16 -26.9062 l 1
 295 -26.9062 l 1
 330.84 -26.9062 l 1
 330.84 9.78711 l 1
 330.84 46.4805 l 1
 366.68 46.4805 l 1
 402.52 46.4805 l 1
 402.52 9.78711 l 1
 402.52 -26.9062 l 1
 439.213 -26.9062 l 1
 475.906 -26.9062 l 1
 475.906 153.146 l 1
EndSplineSet
EndChar

StartChar: uni30AD
Encoding: 12461 12461 114
Width: 589
VWidth: 0
Flags: HW
LayerCount: 2
Back
Fore
SplineSet
39 154 m 1
 39 410 l 1
 295 410 l 1
 551 410 l 1
 551 154 l 1
 551 -102 l 1
 295 -102 l 1
 39 -102 l 1
 39 154 l 1
475.906 261.52 m 1
 475.906 333.2 l 1
 295.854 333.2 l 1
 115.8 333.2 l 1
 115.8 297.36 l 1
 115.8 261.52 l 1
 151.64 261.52 l 1
 187.48 261.52 l 1
 187.48 225.68 l 1
 187.48 189.84 l 1
 151.64 189.84 l 1
 115.8 189.84 l 1
 115.8 154 l 1
 115.8 118.16 l 1
 223.32 118.16 l 1
 330.84 118.16 l 1
 330.84 82.3203 l 1
 330.84 46.4805 l 1
 295 46.4805 l 1
 259.16 46.4805 l 1
 259.16 9.78711 l 1
 259.16 -26.9062 l 1
 295 -26.9062 l 1
 330.84 -26.9062 l 1
 330.84 9.78711 l 1
 330.84 46.4805 l 1
 366.68 46.4805 l 1
 402.52 46.4805 l 1
 402.52 9.78711 l 1
 402.52 -26.9062 l 1
 439.213 -26.9062 l 1
 475.906 -26.9062 l 1
 475.906 9.78711 l 1
 475.906 46.4805 l 1
 439.213 46.4805 l 1
 402.52 46.4805 l 1
 402.52 118.16 l 1
 402.52 189.84 l 1
 439.213 189.84 l 1
 475.906 189.84 l 1
 475.906 261.52 l 1
187.48 9.78711 m 1
 187.48 46.4805 l 1
 151.64 46.4805 l 1
 115.8 46.4805 l 1
 115.8 9.78711 l 1
 115.8 -26.9062 l 1
 151.64 -26.9062 l 1
 187.48 -26.9062 l 1
 187.48 9.78711 l 1
EndSplineSet
EndChar

StartChar: uni305C
Encoding: 12380 12380 115
Width: 589
VWidth: 0
Flags: HW
LayerCount: 2
Back
Fore
SplineSet
39 154 m 1
 39 410 l 1
 295 410 l 1
 551 410 l 1
 551 154 l 1
 551 -102 l 1
 295 -102 l 1
 39 -102 l 1
 39 154 l 1
475.906 153.146 m 1
 475.906 333.2 l 1
 295.854 333.2 l 1
 115.8 333.2 l 1
 115.8 297.36 l 1
 115.8 261.52 l 1
 151.64 261.52 l 1
 187.48 261.52 l 1
 187.48 225.68 l 1
 187.48 189.84 l 1
 151.64 189.84 l 1
 115.8 189.84 l 1
 115.8 154 l 1
 115.8 118.16 l 1
 151.64 118.16 l 1
 187.48 118.16 l 1
 187.48 82.3203 l 1
 187.48 46.4805 l 1
 151.64 46.4805 l 1
 115.8 46.4805 l 1
 115.8 9.78711 l 1
 115.8 -26.9062 l 1
 151.64 -26.9062 l 1
 187.48 -26.9062 l 1
 187.48 9.78711 l 1
 187.48 46.4805 l 1
 223.32 46.4805 l 1
 259.16 46.4805 l 1
 259.16 9.78711 l 1
 259.16 -26.9062 l 1
 295 -26.9062 l 1
 330.84 -26.9062 l 1
 330.84 117.307 l 1
 330.84 261.52 l 1
 366.68 261.52 l 1
 402.52 261.52 l 1
 402.52 117.307 l 1
 402.52 -26.9062 l 1
 439.213 -26.9062 l 1
 475.906 -26.9062 l 1
 475.906 153.146 l 1
EndSplineSet
EndChar

StartChar: uni30EB
Encoding: 12523 12523 116
Width: 589
VWidth: 0
Flags: HW
LayerCount: 2
Back
Fore
SplineSet
187.48 154 m 1
 187.48 189.84 l 1
 223.32 189.84 l 1
 259.16 189.84 l 1
 259.16 154 l 1
 259.16 118.16 l 1
 223.32 118.16 l 1
 187.48 118.16 l 1
 187.48 154 l 1
39 154 m 1
 39 410 l 1
 295 410 l 1
 551 410 l 1
 551 154 l 1
 551 -102 l 1
 295 -102 l 1
 39 -102 l 1
 39 154 l 1
475.906 225.68 m 1
 475.906 333.2 l 1
 295.854 333.2 l 1
 115.8 333.2 l 1
 115.8 297.36 l 1
 115.8 261.52 l 1
 151.64 261.52 l 1
 187.48 261.52 l 1
 187.48 225.68 l 1
 187.48 189.84 l 1
 151.64 189.84 l 1
 115.8 189.84 l 1
 115.8 154 l 1
 115.8 118.16 l 1
 151.64 118.16 l 1
 187.48 118.16 l 1
 187.48 82.3203 l 1
 187.48 46.4805 l 1
 151.64 46.4805 l 1
 115.8 46.4805 l 1
 115.8 9.78711 l 1
 115.8 -26.9062 l 1
 151.64 -26.9062 l 1
 187.48 -26.9062 l 1
 187.48 9.78711 l 1
 187.48 46.4805 l 1
 223.32 46.4805 l 1
 259.16 46.4805 l 1
 259.16 9.78711 l 1
 259.16 -26.9062 l 1
 295 -26.9062 l 1
 330.84 -26.9062 l 1
 330.84 81.4668 l 1
 330.84 189.84 l 1
 295 189.84 l 1
 259.16 189.84 l 1
 259.16 225.68 l 1
 259.16 261.52 l 1
 330.84 261.52 l 1
 402.52 261.52 l 1
 402.52 189.84 l 1
 402.52 118.16 l 1
 439.213 118.16 l 1
 475.906 118.16 l 1
 475.906 225.68 l 1
475.906 9.78711 m 1
 475.906 46.4805 l 1
 439.213 46.4805 l 1
 402.52 46.4805 l 1
 402.52 9.78711 l 1
 402.52 -26.9062 l 1
 439.213 -26.9062 l 1
 475.906 -26.9062 l 1
 475.906 9.78711 l 1
EndSplineSet
EndChar

StartChar: uni30D5
Encoding: 12501 12501 117
Width: 589
VWidth: 0
Flags: HW
LayerCount: 2
Back
Fore
SplineSet
187.48 154 m 1
 187.48 189.84 l 1
 223.32 189.84 l 1
 259.16 189.84 l 1
 259.16 154 l 1
 259.16 118.16 l 1
 223.32 118.16 l 1
 187.48 118.16 l 1
 187.48 154 l 1
39 154 m 1
 39 410 l 1
 295 410 l 1
 551 410 l 1
 551 154 l 1
 551 -102 l 1
 295 -102 l 1
 39 -102 l 1
 39 154 l 1
475.906 297.36 m 1
 475.906 333.2 l 1
 295.854 333.2 l 1
 115.8 333.2 l 1
 115.8 297.36 l 1
 115.8 261.52 l 1
 151.64 261.52 l 1
 187.48 261.52 l 1
 187.48 225.68 l 1
 187.48 189.84 l 1
 151.64 189.84 l 1
 115.8 189.84 l 1
 115.8 154 l 1
 115.8 118.16 l 1
 151.64 118.16 l 1
 187.48 118.16 l 1
 187.48 82.3203 l 1
 187.48 46.4805 l 1
 151.64 46.4805 l 1
 115.8 46.4805 l 1
 115.8 9.78711 l 1
 115.8 -26.9062 l 1
 151.64 -26.9062 l 1
 187.48 -26.9062 l 1
 187.48 9.78711 l 1
 187.48 46.4805 l 1
 223.32 46.4805 l 1
 259.16 46.4805 l 1
 259.16 9.78711 l 1
 259.16 -26.9062 l 1
 295 -26.9062 l 1
 330.84 -26.9062 l 1
 330.84 9.78711 l 1
 330.84 46.4805 l 1
 366.68 46.4805 l 1
 402.52 46.4805 l 1
 402.52 9.78711 l 1
 402.52 -26.9062 l 1
 439.213 -26.9062 l 1
 475.906 -26.9062 l 1
 475.906 45.627 l 1
 475.906 118.16 l 1
 403.373 118.16 l 1
 330.84 118.16 l 1
 330.84 154 l 1
 330.84 189.84 l 1
 366.68 189.84 l 1
 402.52 189.84 l 1
 402.52 225.68 l 1
 402.52 261.52 l 1
 439.213 261.52 l 1
 475.906 261.52 l 1
 475.906 297.36 l 1
EndSplineSet
EndChar

StartChar: uni30BD
Encoding: 12477 12477 118
Width: 589
VWidth: 0
Flags: HW
LayerCount: 2
Back
Fore
SplineSet
39 154 m 1
 39 410 l 1
 295 410 l 1
 551 410 l 1
 551 154 l 1
 551 -102 l 1
 295 -102 l 1
 39 -102 l 1
 39 154 l 1
475.906 153.146 m 1
 475.906 333.2 l 1
 295.854 333.2 l 1
 115.8 333.2 l 1
 115.8 297.36 l 1
 115.8 261.52 l 1
 151.64 261.52 l 1
 187.48 261.52 l 1
 187.48 225.68 l 1
 187.48 189.84 l 1
 151.64 189.84 l 1
 115.8 189.84 l 1
 115.8 154 l 1
 115.8 118.16 l 1
 259.16 118.16 l 1
 402.52 118.16 l 1
 402.52 45.627 l 1
 402.52 -26.9062 l 1
 439.213 -26.9062 l 1
 475.906 -26.9062 l 1
 475.906 153.146 l 1
187.48 9.78711 m 1
 187.48 46.4805 l 1
 151.64 46.4805 l 1
 115.8 46.4805 l 1
 115.8 9.78711 l 1
 115.8 -26.9062 l 1
 151.64 -26.9062 l 1
 187.48 -26.9062 l 1
 187.48 9.78711 l 1
330.84 9.78711 m 1
 330.84 46.4805 l 1
 295 46.4805 l 1
 259.16 46.4805 l 1
 259.16 9.78711 l 1
 259.16 -26.9062 l 1
 295 -26.9062 l 1
 330.84 -26.9062 l 1
 330.84 9.78711 l 1
EndSplineSet
EndChar

StartChar: uni30B3
Encoding: 12467 12467 119
Width: 589
VWidth: 0
Flags: HW
LayerCount: 2
Back
Fore
SplineSet
259.16 225.68 m 1
 259.16 261.52 l 1
 330.84 261.52 l 1
 402.52 261.52 l 1
 402.52 225.68 l 1
 402.52 189.84 l 1
 330.84 189.84 l 1
 259.16 189.84 l 1
 259.16 225.68 l 1
39 154 m 1
 39 410 l 1
 295 410 l 1
 551 410 l 1
 551 154 l 1
 551 -102 l 1
 295 -102 l 1
 39 -102 l 1
 39 154 l 1
475.906 225.68 m 1
 475.906 333.2 l 1
 295.854 333.2 l 1
 115.8 333.2 l 1
 115.8 297.36 l 1
 115.8 261.52 l 1
 151.64 261.52 l 1
 187.48 261.52 l 1
 187.48 225.68 l 1
 187.48 189.84 l 1
 151.64 189.84 l 1
 115.8 189.84 l 1
 115.8 154 l 1
 115.8 118.16 l 1
 223.32 118.16 l 1
 330.84 118.16 l 1
 330.84 82.3203 l 1
 330.84 46.4805 l 1
 295 46.4805 l 1
 259.16 46.4805 l 1
 259.16 9.78711 l 1
 259.16 -26.9062 l 1
 295 -26.9062 l 1
 330.84 -26.9062 l 1
 330.84 9.78711 l 1
 330.84 46.4805 l 1
 366.68 46.4805 l 1
 402.52 46.4805 l 1
 402.52 9.78711 l 1
 402.52 -26.9062 l 1
 439.213 -26.9062 l 1
 475.906 -26.9062 l 1
 475.906 9.78711 l 1
 475.906 46.4805 l 1
 439.213 46.4805 l 1
 402.52 46.4805 l 1
 402.52 82.3203 l 1
 402.52 118.16 l 1
 439.213 118.16 l 1
 475.906 118.16 l 1
 475.906 225.68 l 1
187.48 9.78711 m 1
 187.48 46.4805 l 1
 151.64 46.4805 l 1
 115.8 46.4805 l 1
 115.8 9.78711 l 1
 115.8 -26.9062 l 1
 151.64 -26.9062 l 1
 187.48 -26.9062 l 1
 187.48 9.78711 l 1
EndSplineSet
EndChar

StartChar: uni308F
Encoding: 12431 12431 120
Width: 589
VWidth: 0
Flags: HW
LayerCount: 2
Back
Fore
SplineSet
39 154 m 1
 39 410 l 1
 295 410 l 1
 551 410 l 1
 551 154 l 1
 551 -102 l 1
 295 -102 l 1
 39 -102 l 1
 39 154 l 1
475.906 261.52 m 1
 475.906 333.2 l 1
 295.854 333.2 l 1
 115.8 333.2 l 1
 115.8 297.36 l 1
 115.8 261.52 l 1
 259.16 261.52 l 1
 402.52 261.52 l 1
 402.52 225.68 l 1
 402.52 189.84 l 1
 439.213 189.84 l 1
 475.906 189.84 l 1
 475.906 261.52 l 1
330.84 154 m 1
 330.84 189.84 l 1
 223.32 189.84 l 1
 115.8 189.84 l 1
 115.8 154 l 1
 115.8 118.16 l 1
 187.48 118.16 l 1
 259.16 118.16 l 1
 259.16 45.627 l 1
 259.16 -26.9062 l 1
 295 -26.9062 l 1
 330.84 -26.9062 l 1
 330.84 9.78711 l 1
 330.84 46.4805 l 1
 366.68 46.4805 l 1
 402.52 46.4805 l 1
 402.52 9.78711 l 1
 402.52 -26.9062 l 1
 439.213 -26.9062 l 1
 475.906 -26.9062 l 1
 475.906 45.627 l 1
 475.906 118.16 l 1
 403.373 118.16 l 1
 330.84 118.16 l 1
 330.84 154 l 1
187.48 9.78711 m 1
 187.48 46.4805 l 1
 151.64 46.4805 l 1
 115.8 46.4805 l 1
 115.8 9.78711 l 1
 115.8 -26.9062 l 1
 151.64 -26.9062 l 1
 187.48 -26.9062 l 1
 187.48 9.78711 l 1
EndSplineSet
EndChar

StartChar: uni30CE
Encoding: 12494 12494 121
Width: 589
VWidth: 0
Flags: HW
LayerCount: 2
Back
Fore
SplineSet
39 154 m 1
 39 410 l 1
 295 410 l 1
 551 410 l 1
 551 154 l 1
 551 -102 l 1
 295 -102 l 1
 39 -102 l 1
 39 154 l 1
475.906 297.36 m 1
 475.906 333.2 l 1
 295.854 333.2 l 1
 115.8 333.2 l 1
 115.8 297.36 l 1
 115.8 261.52 l 1
 187.48 261.52 l 1
 259.16 261.52 l 1
 259.16 189.84 l 1
 259.16 118.16 l 1
 223.32 118.16 l 1
 187.48 118.16 l 1
 187.48 154 l 1
 187.48 189.84 l 1
 151.64 189.84 l 1
 115.8 189.84 l 1
 115.8 154 l 1
 115.8 118.16 l 1
 151.64 118.16 l 1
 187.48 118.16 l 1
 187.48 82.3203 l 1
 187.48 46.4805 l 1
 151.64 46.4805 l 1
 115.8 46.4805 l 1
 115.8 9.78711 l 1
 115.8 -26.9062 l 1
 151.64 -26.9062 l 1
 187.48 -26.9062 l 1
 187.48 9.78711 l 1
 187.48 46.4805 l 1
 223.32 46.4805 l 1
 259.16 46.4805 l 1
 259.16 9.78711 l 1
 259.16 -26.9062 l 1
 295 -26.9062 l 1
 330.84 -26.9062 l 1
 330.84 9.78711 l 1
 330.84 46.4805 l 1
 366.68 46.4805 l 1
 402.52 46.4805 l 1
 402.52 9.78711 l 1
 402.52 -26.9062 l 1
 439.213 -26.9062 l 1
 475.906 -26.9062 l 1
 475.906 45.627 l 1
 475.906 118.16 l 1
 439.213 118.16 l 1
 402.52 118.16 l 1
 402.52 189.84 l 1
 402.52 261.52 l 1
 439.213 261.52 l 1
 475.906 261.52 l 1
 475.906 297.36 l 1
EndSplineSet
EndChar

StartChar: uni3088
Encoding: 12424 12424 122
Width: 589
VWidth: 0
Flags: HW
LayerCount: 2
Back
Fore
SplineSet
39 154 m 1
 39 410 l 1
 295 410 l 1
 551 410 l 1
 551 154 l 1
 551 -102 l 1
 295 -102 l 1
 39 -102 l 1
 39 154 l 1
475.906 261.52 m 1
 475.906 333.2 l 1
 295.854 333.2 l 1
 115.8 333.2 l 1
 115.8 297.36 l 1
 115.8 261.52 l 1
 151.64 261.52 l 1
 187.48 261.52 l 1
 187.48 225.68 l 1
 187.48 189.84 l 1
 151.64 189.84 l 1
 115.8 189.84 l 1
 115.8 154 l 1
 115.8 118.16 l 1
 187.48 118.16 l 1
 259.16 118.16 l 1
 259.16 45.627 l 1
 259.16 -26.9062 l 1
 295 -26.9062 l 1
 330.84 -26.9062 l 1
 330.84 9.78711 l 1
 330.84 46.4805 l 1
 366.68 46.4805 l 1
 402.52 46.4805 l 1
 402.52 9.78711 l 1
 402.52 -26.9062 l 1
 439.213 -26.9062 l 1
 475.906 -26.9062 l 1
 475.906 45.627 l 1
 475.906 118.16 l 1
 403.373 118.16 l 1
 330.84 118.16 l 1
 330.84 154 l 1
 330.84 189.84 l 1
 403.373 189.84 l 1
 475.906 189.84 l 1
 475.906 261.52 l 1
187.48 9.78711 m 1
 187.48 46.4805 l 1
 151.64 46.4805 l 1
 115.8 46.4805 l 1
 115.8 9.78711 l 1
 115.8 -26.9062 l 1
 151.64 -26.9062 l 1
 187.48 -26.9062 l 1
 187.48 9.78711 l 1
EndSplineSet
EndChar

StartChar: uni3057
Encoding: 12375 12375 123
Width: 589
VWidth: 0
Flags: HW
LayerCount: 2
Back
Fore
SplineSet
39 154 m 1
 39 410 l 1
 295 410 l 1
 551 410 l 1
 551 154 l 1
 551 -102 l 1
 295 -102 l 1
 39 -102 l 1
 39 154 l 1
475.906 261.52 m 1
 475.906 333.2 l 1
 295.854 333.2 l 1
 115.8 333.2 l 1
 115.8 297.36 l 1
 115.8 261.52 l 1
 259.16 261.52 l 1
 402.52 261.52 l 1
 402.52 225.68 l 1
 402.52 189.84 l 1
 259.16 189.84 l 1
 115.8 189.84 l 1
 115.8 154 l 1
 115.8 118.16 l 1
 151.64 118.16 l 1
 187.48 118.16 l 1
 187.48 82.3203 l 1
 187.48 46.4805 l 1
 151.64 46.4805 l 1
 115.8 46.4805 l 1
 115.8 9.78711 l 1
 115.8 -26.9062 l 1
 151.64 -26.9062 l 1
 187.48 -26.9062 l 1
 187.48 9.78711 l 1
 187.48 46.4805 l 1
 223.32 46.4805 l 1
 259.16 46.4805 l 1
 259.16 9.78711 l 1
 259.16 -26.9062 l 1
 295 -26.9062 l 1
 330.84 -26.9062 l 1
 330.84 45.627 l 1
 330.84 118.16 l 1
 366.68 118.16 l 1
 402.52 118.16 l 1
 402.52 45.627 l 1
 402.52 -26.9062 l 1
 439.213 -26.9062 l 1
 475.906 -26.9062 l 1
 475.906 45.627 l 1
 475.906 118.16 l 1
 439.213 118.16 l 1
 402.52 118.16 l 1
 402.52 154 l 1
 402.52 189.84 l 1
 439.213 189.84 l 1
 475.906 189.84 l 1
 475.906 261.52 l 1
EndSplineSet
EndChar

StartChar: uni30BF
Encoding: 12479 12479 124
Width: 589
VWidth: 0
Flags: HW
LayerCount: 2
Back
Fore
SplineSet
259.16 225.68 m 1
 259.16 261.52 l 1
 295 261.52 l 1
 330.84 261.52 l 1
 330.84 225.68 l 1
 330.84 189.84 l 1
 295 189.84 l 1
 259.16 189.84 l 1
 259.16 225.68 l 1
39 154 m 1
 39 410 l 1
 295 410 l 1
 551 410 l 1
 551 154 l 1
 551 -102 l 1
 295 -102 l 1
 39 -102 l 1
 39 154 l 1
475.906 261.52 m 1
 475.906 333.2 l 1
 295.854 333.2 l 1
 115.8 333.2 l 1
 115.8 297.36 l 1
 115.8 261.52 l 1
 151.64 261.52 l 1
 187.48 261.52 l 1
 187.48 225.68 l 1
 187.48 189.84 l 1
 151.64 189.84 l 1
 115.8 189.84 l 1
 115.8 154 l 1
 115.8 118.16 l 1
 259.16 118.16 l 1
 402.52 118.16 l 1
 402.52 45.627 l 1
 402.52 -26.9062 l 1
 439.213 -26.9062 l 1
 475.906 -26.9062 l 1
 475.906 45.627 l 1
 475.906 118.16 l 1
 439.213 118.16 l 1
 402.52 118.16 l 1
 402.52 154 l 1
 402.52 189.84 l 1
 439.213 189.84 l 1
 475.906 189.84 l 1
 475.906 261.52 l 1
187.48 9.78711 m 1
 187.48 46.4805 l 1
 151.64 46.4805 l 1
 115.8 46.4805 l 1
 115.8 9.78711 l 1
 115.8 -26.9062 l 1
 151.64 -26.9062 l 1
 187.48 -26.9062 l 1
 187.48 9.78711 l 1
330.84 9.78711 m 1
 330.84 46.4805 l 1
 295 46.4805 l 1
 259.16 46.4805 l 1
 259.16 9.78711 l 1
 259.16 -26.9062 l 1
 295 -26.9062 l 1
 330.84 -26.9062 l 1
 330.84 9.78711 l 1
EndSplineSet
EndChar

StartChar: uni3058
Encoding: 12376 12376 125
Width: 589
VWidth: 0
Flags: HW
LayerCount: 2
Back
Fore
SplineSet
39 154 m 1
 39 410 l 1
 295 410 l 1
 551 410 l 1
 551 154 l 1
 551 -102 l 1
 295 -102 l 1
 39 -102 l 1
 39 154 l 1
475.906 297.36 m 1
 475.906 333.2 l 1
 295.854 333.2 l 1
 115.8 333.2 l 1
 115.8 297.36 l 1
 115.8 261.52 l 1
 151.64 261.52 l 1
 187.48 261.52 l 1
 187.48 225.68 l 1
 187.48 189.84 l 1
 151.64 189.84 l 1
 115.8 189.84 l 1
 115.8 154 l 1
 115.8 118.16 l 1
 151.64 118.16 l 1
 187.48 118.16 l 1
 187.48 82.3203 l 1
 187.48 46.4805 l 1
 151.64 46.4805 l 1
 115.8 46.4805 l 1
 115.8 9.78711 l 1
 115.8 -26.9062 l 1
 151.64 -26.9062 l 1
 187.48 -26.9062 l 1
 187.48 9.78711 l 1
 187.48 46.4805 l 1
 223.32 46.4805 l 1
 259.16 46.4805 l 1
 259.16 9.78711 l 1
 259.16 -26.9062 l 1
 295 -26.9062 l 1
 330.84 -26.9062 l 1
 330.84 81.4668 l 1
 330.84 189.84 l 1
 366.68 189.84 l 1
 402.52 189.84 l 1
 402.52 225.68 l 1
 402.52 261.52 l 1
 439.213 261.52 l 1
 475.906 261.52 l 1
 475.906 297.36 l 1
475.906 45.627 m 1
 475.906 118.16 l 1
 439.213 118.16 l 1
 402.52 118.16 l 1
 402.52 45.627 l 1
 402.52 -26.9062 l 1
 439.213 -26.9062 l 1
 475.906 -26.9062 l 1
 475.906 45.627 l 1
EndSplineSet
EndChar

StartChar: uni30D0
Encoding: 12496 12496 126
Width: 589
VWidth: 0
Flags: HW
LayerCount: 2
Back
Fore
SplineSet
39 154 m 1
 39 410 l 1
 295 410 l 1
 551 410 l 1
 551 154 l 1
 551 -102 l 1
 295 -102 l 1
 39 -102 l 1
 39 154 l 1
475.906 261.52 m 1
 475.906 333.2 l 1
 295.854 333.2 l 1
 115.8 333.2 l 1
 115.8 297.36 l 1
 115.8 261.52 l 1
 223.32 261.52 l 1
 330.84 261.52 l 1
 330.84 225.68 l 1
 330.84 189.84 l 1
 295 189.84 l 1
 259.16 189.84 l 1
 259.16 154 l 1
 259.16 118.16 l 1
 223.32 118.16 l 1
 187.48 118.16 l 1
 187.48 154 l 1
 187.48 189.84 l 1
 151.64 189.84 l 1
 115.8 189.84 l 1
 115.8 154 l 1
 115.8 118.16 l 1
 151.64 118.16 l 1
 187.48 118.16 l 1
 187.48 82.3203 l 1
 187.48 46.4805 l 1
 151.64 46.4805 l 1
 115.8 46.4805 l 1
 115.8 9.78711 l 1
 115.8 -26.9062 l 1
 151.64 -26.9062 l 1
 187.48 -26.9062 l 1
 187.48 9.78711 l 1
 187.48 46.4805 l 1
 223.32 46.4805 l 1
 259.16 46.4805 l 1
 259.16 9.78711 l 1
 259.16 -26.9062 l 1
 295 -26.9062 l 1
 330.84 -26.9062 l 1
 330.84 9.78711 l 1
 330.84 46.4805 l 1
 366.68 46.4805 l 1
 402.52 46.4805 l 1
 402.52 9.78711 l 1
 402.52 -26.9062 l 1
 439.213 -26.9062 l 1
 475.906 -26.9062 l 1
 475.906 9.78711 l 1
 475.906 46.4805 l 1
 439.213 46.4805 l 1
 402.52 46.4805 l 1
 402.52 118.16 l 1
 402.52 189.84 l 1
 439.213 189.84 l 1
 475.906 189.84 l 1
 475.906 261.52 l 1
EndSplineSet
EndChar

StartChar: uni30B5
Encoding: 12469 12469 127
Width: 589
VWidth: 0
Flags: HW
LayerCount: 2
Back
Fore
SplineSet
39 154 m 1
 39 410 l 1
 295 410 l 1
 551 410 l 1
 551 154 l 1
 551 -102 l 1
 295 -102 l 1
 39 -102 l 1
 39 154 l 1
475.906 297.36 m 1
 475.906 333.2 l 1
 295.854 333.2 l 1
 115.8 333.2 l 1
 115.8 297.36 l 1
 115.8 261.52 l 1
 151.64 261.52 l 1
 187.48 261.52 l 1
 187.48 225.68 l 1
 187.48 189.84 l 1
 151.64 189.84 l 1
 115.8 189.84 l 1
 115.8 154 l 1
 115.8 118.16 l 1
 223.32 118.16 l 1
 330.84 118.16 l 1
 330.84 82.3203 l 1
 330.84 46.4805 l 1
 295 46.4805 l 1
 259.16 46.4805 l 1
 259.16 9.78711 l 1
 259.16 -26.9062 l 1
 295 -26.9062 l 1
 330.84 -26.9062 l 1
 330.84 9.78711 l 1
 330.84 46.4805 l 1
 366.68 46.4805 l 1
 402.52 46.4805 l 1
 402.52 9.78711 l 1
 402.52 -26.9062 l 1
 439.213 -26.9062 l 1
 475.906 -26.9062 l 1
 475.906 9.78711 l 1
 475.906 46.4805 l 1
 439.213 46.4805 l 1
 402.52 46.4805 l 1
 402.52 82.3203 l 1
 402.52 118.16 l 1
 366.68 118.16 l 1
 330.84 118.16 l 1
 330.84 154 l 1
 330.84 189.84 l 1
 366.68 189.84 l 1
 402.52 189.84 l 1
 402.52 225.68 l 1
 402.52 261.52 l 1
 439.213 261.52 l 1
 475.906 261.52 l 1
 475.906 297.36 l 1
187.48 9.78711 m 1
 187.48 46.4805 l 1
 151.64 46.4805 l 1
 115.8 46.4805 l 1
 115.8 9.78711 l 1
 115.8 -26.9062 l 1
 151.64 -26.9062 l 1
 187.48 -26.9062 l 1
 187.48 9.78711 l 1
EndSplineSet
EndChar

StartChar: uni3089
Encoding: 12425 12425 128
Width: 589
VWidth: 0
Flags: HW
LayerCount: 2
Back
Fore
SplineSet
39 154 m 1
 39 410 l 1
 295 410 l 1
 551 410 l 1
 551 154 l 1
 551 -102 l 1
 295 -102 l 1
 39 -102 l 1
 39 154 l 1
475.906 297.36 m 1
 475.906 333.2 l 1
 295.854 333.2 l 1
 115.8 333.2 l 1
 115.8 297.36 l 1
 115.8 261.52 l 1
 187.48 261.52 l 1
 259.16 261.52 l 1
 259.16 225.68 l 1
 259.16 189.84 l 1
 187.48 189.84 l 1
 115.8 189.84 l 1
 115.8 154 l 1
 115.8 118.16 l 1
 187.48 118.16 l 1
 259.16 118.16 l 1
 259.16 45.627 l 1
 259.16 -26.9062 l 1
 295 -26.9062 l 1
 330.84 -26.9062 l 1
 330.84 9.78711 l 1
 330.84 46.4805 l 1
 366.68 46.4805 l 1
 402.52 46.4805 l 1
 402.52 9.78711 l 1
 402.52 -26.9062 l 1
 439.213 -26.9062 l 1
 475.906 -26.9062 l 1
 475.906 45.627 l 1
 475.906 118.16 l 1
 403.373 118.16 l 1
 330.84 118.16 l 1
 330.84 154 l 1
 330.84 189.84 l 1
 366.68 189.84 l 1
 402.52 189.84 l 1
 402.52 225.68 l 1
 402.52 261.52 l 1
 439.213 261.52 l 1
 475.906 261.52 l 1
 475.906 297.36 l 1
187.48 9.78711 m 1
 187.48 46.4805 l 1
 151.64 46.4805 l 1
 115.8 46.4805 l 1
 115.8 9.78711 l 1
 115.8 -26.9062 l 1
 151.64 -26.9062 l 1
 187.48 -26.9062 l 1
 187.48 9.78711 l 1
EndSplineSet
EndChar

StartChar: uni30C5
Encoding: 12485 12485 129
Width: 589
VWidth: 0
Flags: HW
LayerCount: 2
Back
Fore
SplineSet
39 154 m 1
 39 410 l 1
 295 410 l 1
 551 410 l 1
 551 154 l 1
 551 -102 l 1
 295 -102 l 1
 39 -102 l 1
 39 154 l 1
475.906 297.36 m 1
 475.906 333.2 l 1
 295.854 333.2 l 1
 115.8 333.2 l 1
 115.8 297.36 l 1
 115.8 261.52 l 1
 151.64 261.52 l 1
 187.48 261.52 l 1
 187.48 225.68 l 1
 187.48 189.84 l 1
 151.64 189.84 l 1
 115.8 189.84 l 1
 115.8 154 l 1
 115.8 118.16 l 1
 223.32 118.16 l 1
 330.84 118.16 l 1
 330.84 154 l 1
 330.84 189.84 l 1
 366.68 189.84 l 1
 402.52 189.84 l 1
 402.52 81.4668 l 1
 402.52 -26.9062 l 1
 439.213 -26.9062 l 1
 475.906 -26.9062 l 1
 475.906 81.4668 l 1
 475.906 189.84 l 1
 439.213 189.84 l 1
 402.52 189.84 l 1
 402.52 225.68 l 1
 402.52 261.52 l 1
 439.213 261.52 l 1
 475.906 261.52 l 1
 475.906 297.36 l 1
187.48 9.78711 m 1
 187.48 46.4805 l 1
 151.64 46.4805 l 1
 115.8 46.4805 l 1
 115.8 9.78711 l 1
 115.8 -26.9062 l 1
 151.64 -26.9062 l 1
 187.48 -26.9062 l 1
 187.48 9.78711 l 1
330.84 9.78711 m 1
 330.84 46.4805 l 1
 295 46.4805 l 1
 259.16 46.4805 l 1
 259.16 9.78711 l 1
 259.16 -26.9062 l 1
 295 -26.9062 l 1
 330.84 -26.9062 l 1
 330.84 9.78711 l 1
EndSplineSet
EndChar

StartChar: uni30A9
Encoding: 12457 12457 130
Width: 589
VWidth: 0
Flags: HW
LayerCount: 2
Back
Fore
SplineSet
39 154 m 1
 39 410 l 1
 295 410 l 1
 551 410 l 1
 551 154 l 1
 551 -102 l 1
 295 -102 l 1
 39 -102 l 1
 39 154 l 1
475.906 297.36 m 1
 475.906 333.2 l 1
 295.854 333.2 l 1
 115.8 333.2 l 1
 115.8 297.36 l 1
 115.8 261.52 l 1
 151.64 261.52 l 1
 187.48 261.52 l 1
 187.48 225.68 l 1
 187.48 189.84 l 1
 151.64 189.84 l 1
 115.8 189.84 l 1
 115.8 154 l 1
 115.8 118.16 l 1
 187.48 118.16 l 1
 259.16 118.16 l 1
 259.16 45.627 l 1
 259.16 -26.9062 l 1
 295 -26.9062 l 1
 330.84 -26.9062 l 1
 330.84 117.307 l 1
 330.84 261.52 l 1
 403.373 261.52 l 1
 475.906 261.52 l 1
 475.906 297.36 l 1
475.906 81.4668 m 1
 475.906 189.84 l 1
 439.213 189.84 l 1
 402.52 189.84 l 1
 402.52 81.4668 l 1
 402.52 -26.9062 l 1
 439.213 -26.9062 l 1
 475.906 -26.9062 l 1
 475.906 81.4668 l 1
187.48 9.78711 m 1
 187.48 46.4805 l 1
 151.64 46.4805 l 1
 115.8 46.4805 l 1
 115.8 9.78711 l 1
 115.8 -26.9062 l 1
 151.64 -26.9062 l 1
 187.48 -26.9062 l 1
 187.48 9.78711 l 1
EndSplineSet
EndChar

StartChar: uni30D1
Encoding: 12497 12497 131
Width: 589
VWidth: 0
Flags: HW
LayerCount: 2
Back
Fore
SplineSet
187.48 154 m 1
 187.48 189.84 l 1
 223.32 189.84 l 1
 259.16 189.84 l 1
 259.16 154 l 1
 259.16 118.16 l 1
 223.32 118.16 l 1
 187.48 118.16 l 1
 187.48 154 l 1
39 154 m 1
 39 410 l 1
 295 410 l 1
 551 410 l 1
 551 154 l 1
 551 -102 l 1
 295 -102 l 1
 39 -102 l 1
 39 154 l 1
475.906 297.36 m 1
 475.906 333.2 l 1
 295.854 333.2 l 1
 115.8 333.2 l 1
 115.8 297.36 l 1
 115.8 261.52 l 1
 151.64 261.52 l 1
 187.48 261.52 l 1
 187.48 225.68 l 1
 187.48 189.84 l 1
 151.64 189.84 l 1
 115.8 189.84 l 1
 115.8 154 l 1
 115.8 118.16 l 1
 151.64 118.16 l 1
 187.48 118.16 l 1
 187.48 82.3203 l 1
 187.48 46.4805 l 1
 151.64 46.4805 l 1
 115.8 46.4805 l 1
 115.8 9.78711 l 1
 115.8 -26.9062 l 1
 151.64 -26.9062 l 1
 187.48 -26.9062 l 1
 187.48 9.78711 l 1
 187.48 46.4805 l 1
 223.32 46.4805 l 1
 259.16 46.4805 l 1
 259.16 9.78711 l 1
 259.16 -26.9062 l 1
 295 -26.9062 l 1
 330.84 -26.9062 l 1
 330.84 9.78711 l 1
 330.84 46.4805 l 1
 366.68 46.4805 l 1
 402.52 46.4805 l 1
 402.52 9.78711 l 1
 402.52 -26.9062 l 1
 439.213 -26.9062 l 1
 475.906 -26.9062 l 1
 475.906 9.78711 l 1
 475.906 46.4805 l 1
 439.213 46.4805 l 1
 402.52 46.4805 l 1
 402.52 118.16 l 1
 402.52 189.84 l 1
 366.68 189.84 l 1
 330.84 189.84 l 1
 330.84 225.68 l 1
 330.84 261.52 l 1
 403.373 261.52 l 1
 475.906 261.52 l 1
 475.906 297.36 l 1
EndSplineSet
EndChar

StartChar: uni3074
Encoding: 12404 12404 132
Width: 589
VWidth: 0
Flags: HW
LayerCount: 2
Back
Fore
SplineSet
39 154 m 1
 39 410 l 1
 295 410 l 1
 551 410 l 1
 551 154 l 1
 551 -102 l 1
 295 -102 l 1
 39 -102 l 1
 39 154 l 1
475.906 297.36 m 1
 475.906 333.2 l 1
 295.854 333.2 l 1
 115.8 333.2 l 1
 115.8 297.36 l 1
 115.8 261.52 l 1
 151.64 261.52 l 1
 187.48 261.52 l 1
 187.48 225.68 l 1
 187.48 189.84 l 1
 151.64 189.84 l 1
 115.8 189.84 l 1
 115.8 154 l 1
 115.8 118.16 l 1
 151.64 118.16 l 1
 187.48 118.16 l 1
 187.48 82.3203 l 1
 187.48 46.4805 l 1
 151.64 46.4805 l 1
 115.8 46.4805 l 1
 115.8 9.78711 l 1
 115.8 -26.9062 l 1
 151.64 -26.9062 l 1
 187.48 -26.9062 l 1
 187.48 9.78711 l 1
 187.48 46.4805 l 1
 223.32 46.4805 l 1
 259.16 46.4805 l 1
 259.16 9.78711 l 1
 259.16 -26.9062 l 1
 295 -26.9062 l 1
 330.84 -26.9062 l 1
 330.84 9.78711 l 1
 330.84 46.4805 l 1
 295 46.4805 l 1
 259.16 46.4805 l 1
 259.16 82.3203 l 1
 259.16 118.16 l 1
 330.84 118.16 l 1
 402.52 118.16 l 1
 402.52 45.627 l 1
 402.52 -26.9062 l 1
 439.213 -26.9062 l 1
 475.906 -26.9062 l 1
 475.906 45.627 l 1
 475.906 118.16 l 1
 439.213 118.16 l 1
 402.52 118.16 l 1
 402.52 154 l 1
 402.52 189.84 l 1
 366.68 189.84 l 1
 330.84 189.84 l 1
 330.84 225.68 l 1
 330.84 261.52 l 1
 403.373 261.52 l 1
 475.906 261.52 l 1
 475.906 297.36 l 1
EndSplineSet
EndChar

StartChar: uni30AF
Encoding: 12463 12463 133
Width: 589
VWidth: 0
Flags: HW
LayerCount: 2
Back
Fore
SplineSet
259.16 225.68 m 1
 259.16 261.52 l 1
 295 261.52 l 1
 330.84 261.52 l 1
 330.84 225.68 l 1
 330.84 189.84 l 1
 295 189.84 l 1
 259.16 189.84 l 1
 259.16 225.68 l 1
39 154 m 1
 39 410 l 1
 295 410 l 1
 551 410 l 1
 551 154 l 1
 551 -102 l 1
 295 -102 l 1
 39 -102 l 1
 39 154 l 1
475.906 153.146 m 1
 475.906 333.2 l 1
 295.854 333.2 l 1
 115.8 333.2 l 1
 115.8 297.36 l 1
 115.8 261.52 l 1
 151.64 261.52 l 1
 187.48 261.52 l 1
 187.48 225.68 l 1
 187.48 189.84 l 1
 151.64 189.84 l 1
 115.8 189.84 l 1
 115.8 154 l 1
 115.8 118.16 l 1
 223.32 118.16 l 1
 330.84 118.16 l 1
 330.84 82.3203 l 1
 330.84 46.4805 l 1
 295 46.4805 l 1
 259.16 46.4805 l 1
 259.16 9.78711 l 1
 259.16 -26.9062 l 1
 295 -26.9062 l 1
 330.84 -26.9062 l 1
 330.84 9.78711 l 1
 330.84 46.4805 l 1
 366.68 46.4805 l 1
 402.52 46.4805 l 1
 402.52 9.78711 l 1
 402.52 -26.9062 l 1
 439.213 -26.9062 l 1
 475.906 -26.9062 l 1
 475.906 153.146 l 1
187.48 9.78711 m 1
 187.48 46.4805 l 1
 151.64 46.4805 l 1
 115.8 46.4805 l 1
 115.8 9.78711 l 1
 115.8 -26.9062 l 1
 151.64 -26.9062 l 1
 187.48 -26.9062 l 1
 187.48 9.78711 l 1
EndSplineSet
EndChar

StartChar: uni3072
Encoding: 12402 12402 134
Width: 589
VWidth: 0
Flags: HW
LayerCount: 2
Back
Fore
SplineSet
259.16 225.68 m 1
 259.16 261.52 l 1
 295 261.52 l 1
 330.84 261.52 l 1
 330.84 225.68 l 1
 330.84 189.84 l 1
 295 189.84 l 1
 259.16 189.84 l 1
 259.16 225.68 l 1
39 154 m 1
 39 410 l 1
 295 410 l 1
 551 410 l 1
 551 154 l 1
 551 -102 l 1
 295 -102 l 1
 39 -102 l 1
 39 154 l 1
475.906 297.36 m 1
 475.906 333.2 l 1
 295.854 333.2 l 1
 115.8 333.2 l 1
 115.8 297.36 l 1
 115.8 261.52 l 1
 151.64 261.52 l 1
 187.48 261.52 l 1
 187.48 225.68 l 1
 187.48 189.84 l 1
 151.64 189.84 l 1
 115.8 189.84 l 1
 115.8 154 l 1
 115.8 118.16 l 1
 151.64 118.16 l 1
 187.48 118.16 l 1
 187.48 82.3203 l 1
 187.48 46.4805 l 1
 151.64 46.4805 l 1
 115.8 46.4805 l 1
 115.8 9.78711 l 1
 115.8 -26.9062 l 1
 151.64 -26.9062 l 1
 187.48 -26.9062 l 1
 187.48 9.78711 l 1
 187.48 46.4805 l 1
 223.32 46.4805 l 1
 259.16 46.4805 l 1
 259.16 9.78711 l 1
 259.16 -26.9062 l 1
 295 -26.9062 l 1
 330.84 -26.9062 l 1
 330.84 9.78711 l 1
 330.84 46.4805 l 1
 295 46.4805 l 1
 259.16 46.4805 l 1
 259.16 82.3203 l 1
 259.16 118.16 l 1
 330.84 118.16 l 1
 402.52 118.16 l 1
 402.52 45.627 l 1
 402.52 -26.9062 l 1
 439.213 -26.9062 l 1
 475.906 -26.9062 l 1
 475.906 81.4668 l 1
 475.906 189.84 l 1
 439.213 189.84 l 1
 402.52 189.84 l 1
 402.52 225.68 l 1
 402.52 261.52 l 1
 439.213 261.52 l 1
 475.906 261.52 l 1
 475.906 297.36 l 1
EndSplineSet
EndChar

StartChar: uni3090
Encoding: 12432 12432 135
Width: 589
VWidth: 0
Flags: HW
LayerCount: 2
Back
Fore
SplineSet
39 154 m 1
 39 410 l 1
 295 410 l 1
 551 410 l 1
 551 154 l 1
 551 -102 l 1
 295 -102 l 1
 39 -102 l 1
 39 154 l 1
475.906 297.36 m 1
 475.906 333.2 l 1
 295.854 333.2 l 1
 115.8 333.2 l 1
 115.8 297.36 l 1
 115.8 261.52 l 1
 151.64 261.52 l 1
 187.48 261.52 l 1
 187.48 225.68 l 1
 187.48 189.84 l 1
 151.64 189.84 l 1
 115.8 189.84 l 1
 115.8 154 l 1
 115.8 118.16 l 1
 187.48 118.16 l 1
 259.16 118.16 l 1
 259.16 45.627 l 1
 259.16 -26.9062 l 1
 295 -26.9062 l 1
 330.84 -26.9062 l 1
 330.84 45.627 l 1
 330.84 118.16 l 1
 366.68 118.16 l 1
 402.52 118.16 l 1
 402.52 45.627 l 1
 402.52 -26.9062 l 1
 439.213 -26.9062 l 1
 475.906 -26.9062 l 1
 475.906 45.627 l 1
 475.906 118.16 l 1
 439.213 118.16 l 1
 402.52 118.16 l 1
 402.52 189.84 l 1
 402.52 261.52 l 1
 439.213 261.52 l 1
 475.906 261.52 l 1
 475.906 297.36 l 1
187.48 9.78711 m 1
 187.48 46.4805 l 1
 151.64 46.4805 l 1
 115.8 46.4805 l 1
 115.8 9.78711 l 1
 115.8 -26.9062 l 1
 151.64 -26.9062 l 1
 187.48 -26.9062 l 1
 187.48 9.78711 l 1
EndSplineSet
EndChar

StartChar: uni30B8
Encoding: 12472 12472 136
Width: 589
VWidth: 0
Flags: HW
LayerCount: 2
Back
Fore
SplineSet
39 154 m 1
 39 410 l 1
 295 410 l 1
 551 410 l 1
 551 154 l 1
 551 -102 l 1
 295 -102 l 1
 39 -102 l 1
 39 154 l 1
475.906 261.52 m 1
 475.906 333.2 l 1
 295.854 333.2 l 1
 115.8 333.2 l 1
 115.8 297.36 l 1
 115.8 261.52 l 1
 223.32 261.52 l 1
 330.84 261.52 l 1
 330.84 225.68 l 1
 330.84 189.84 l 1
 223.32 189.84 l 1
 115.8 189.84 l 1
 115.8 154 l 1
 115.8 118.16 l 1
 223.32 118.16 l 1
 330.84 118.16 l 1
 330.84 82.3203 l 1
 330.84 46.4805 l 1
 295 46.4805 l 1
 259.16 46.4805 l 1
 259.16 9.78711 l 1
 259.16 -26.9062 l 1
 295 -26.9062 l 1
 330.84 -26.9062 l 1
 330.84 9.78711 l 1
 330.84 46.4805 l 1
 366.68 46.4805 l 1
 402.52 46.4805 l 1
 402.52 9.78711 l 1
 402.52 -26.9062 l 1
 439.213 -26.9062 l 1
 475.906 -26.9062 l 1
 475.906 45.627 l 1
 475.906 118.16 l 1
 403.373 118.16 l 1
 330.84 118.16 l 1
 330.84 154 l 1
 330.84 189.84 l 1
 403.373 189.84 l 1
 475.906 189.84 l 1
 475.906 261.52 l 1
187.48 9.78711 m 1
 187.48 46.4805 l 1
 151.64 46.4805 l 1
 115.8 46.4805 l 1
 115.8 9.78711 l 1
 115.8 -26.9062 l 1
 151.64 -26.9062 l 1
 187.48 -26.9062 l 1
 187.48 9.78711 l 1
EndSplineSet
EndChar

StartChar: uni306C
Encoding: 12396 12396 137
Width: 589
VWidth: 0
Flags: HW
LayerCount: 2
Back
Fore
SplineSet
259.16 82.3203 m 1
 259.16 118.16 l 1
 295 118.16 l 1
 330.84 118.16 l 1
 330.84 82.3203 l 1
 330.84 46.4805 l 1
 295 46.4805 l 1
 259.16 46.4805 l 1
 259.16 82.3203 l 1
39 154 m 1
 39 410 l 1
 295 410 l 1
 551 410 l 1
 551 154 l 1
 551 -102 l 1
 295 -102 l 1
 39 -102 l 1
 39 154 l 1
475.906 261.52 m 1
 475.906 333.2 l 1
 295.854 333.2 l 1
 115.8 333.2 l 1
 115.8 297.36 l 1
 115.8 261.52 l 1
 151.64 261.52 l 1
 187.48 261.52 l 1
 187.48 225.68 l 1
 187.48 189.84 l 1
 151.64 189.84 l 1
 115.8 189.84 l 1
 115.8 154 l 1
 115.8 118.16 l 1
 151.64 118.16 l 1
 187.48 118.16 l 1
 187.48 82.3203 l 1
 187.48 46.4805 l 1
 151.64 46.4805 l 1
 115.8 46.4805 l 1
 115.8 9.78711 l 1
 115.8 -26.9062 l 1
 151.64 -26.9062 l 1
 187.48 -26.9062 l 1
 187.48 9.78711 l 1
 187.48 46.4805 l 1
 223.32 46.4805 l 1
 259.16 46.4805 l 1
 259.16 9.78711 l 1
 259.16 -26.9062 l 1
 295 -26.9062 l 1
 330.84 -26.9062 l 1
 330.84 9.78711 l 1
 330.84 46.4805 l 1
 366.68 46.4805 l 1
 402.52 46.4805 l 1
 402.52 9.78711 l 1
 402.52 -26.9062 l 1
 439.213 -26.9062 l 1
 475.906 -26.9062 l 1
 475.906 45.627 l 1
 475.906 118.16 l 1
 403.373 118.16 l 1
 330.84 118.16 l 1
 330.84 189.84 l 1
 330.84 261.52 l 1
 366.68 261.52 l 1
 402.52 261.52 l 1
 402.52 225.68 l 1
 402.52 189.84 l 1
 439.213 189.84 l 1
 475.906 189.84 l 1
 475.906 261.52 l 1
EndSplineSet
EndChar

StartChar: uni307F
Encoding: 12415 12415 138
Width: 589
VWidth: 0
Flags: HW
LayerCount: 2
Back
Fore
SplineSet
39 154 m 1
 39 410 l 1
 295 410 l 1
 551 410 l 1
 551 154 l 1
 551 -102 l 1
 295 -102 l 1
 39 -102 l 1
 39 154 l 1
475.906 153.146 m 1
 475.906 333.2 l 1
 295.854 333.2 l 1
 115.8 333.2 l 1
 115.8 297.36 l 1
 115.8 261.52 l 1
 259.16 261.52 l 1
 402.52 261.52 l 1
 402.52 117.307 l 1
 402.52 -26.9062 l 1
 439.213 -26.9062 l 1
 475.906 -26.9062 l 1
 475.906 153.146 l 1
330.84 154 m 1
 330.84 189.84 l 1
 223.32 189.84 l 1
 115.8 189.84 l 1
 115.8 154 l 1
 115.8 118.16 l 1
 151.64 118.16 l 1
 187.48 118.16 l 1
 187.48 82.3203 l 1
 187.48 46.4805 l 1
 151.64 46.4805 l 1
 115.8 46.4805 l 1
 115.8 9.78711 l 1
 115.8 -26.9062 l 1
 151.64 -26.9062 l 1
 187.48 -26.9062 l 1
 187.48 9.78711 l 1
 187.48 46.4805 l 1
 223.32 46.4805 l 1
 259.16 46.4805 l 1
 259.16 9.78711 l 1
 259.16 -26.9062 l 1
 295 -26.9062 l 1
 330.84 -26.9062 l 1
 330.84 9.78711 l 1
 330.84 46.4805 l 1
 295 46.4805 l 1
 259.16 46.4805 l 1
 259.16 82.3203 l 1
 259.16 118.16 l 1
 295 118.16 l 1
 330.84 118.16 l 1
 330.84 154 l 1
EndSplineSet
EndChar

StartChar: uni3046
Encoding: 12358 12358 139
Width: 589
VWidth: 0
Flags: W
HStem: -102 148.48<187.48 259.16 330.84 402.52> -102 75.0938<115.8 187.48 259.16 330.84 402.52 475.906> 46.4805 71.6797<115.8 187.48> 189.84 71.6797<115.8 187.48 259.16 402.52> 333.2 76.7998<115.8 475.906>
VStem: 39 148.48<46.4805 118.16 189.84 261.52> 39 76.7998<-26.9062 46.4805 118.16 189.84 261.52 333.2> 187.48 71.6797<-26.9062 46.4805> 330.84 71.6797<-26.9062 46.4805> 402.52 148.48<46.4805 189.84> 475.906 75.0938<-26.9062 46.4805 261.52 333.2>
LayerCount: 2
Back
Fore
SplineSet
39 154 m 1x5a20
 39 410 l 1
 295 410 l 1
 551 410 l 1x5a20
 551 154 l 1x5840
 551 -102 l 1
 295 -102 l 1
 39 -102 l 1
 39 154 l 1x5a20
475.906 297.36 m 1
 475.906 333.2 l 1
 295.854 333.2 l 1
 115.8 333.2 l 1
 115.8 297.36 l 1
 115.8 261.52 l 1x3ba0
 151.64 261.52 l 1
 187.48 261.52 l 1
 187.48 225.68 l 1
 187.48 189.84 l 1x3c
 151.64 189.84 l 1
 115.8 189.84 l 1
 115.8 154 l 1
 115.8 118.16 l 1x3a
 151.64 118.16 l 1
 187.48 118.16 l 1x3c
 187.48 82.3203 l 1
 187.48 46.4805 l 1x9c
 151.64 46.4805 l 1
 115.8 46.4805 l 1
 115.8 9.78711 l 1
 115.8 -26.9062 l 1
 151.64 -26.9062 l 1
 187.48 -26.9062 l 1
 187.48 9.78711 l 1x7b
 187.48 46.4805 l 1x9c
 223.32 46.4805 l 1
 259.16 46.4805 l 1x99
 259.16 9.78711 l 1
 259.16 -26.9062 l 1
 295 -26.9062 l 1
 330.84 -26.9062 l 1x5980
 330.84 9.78711 l 1
 330.84 46.4805 l 1
 366.68 46.4805 l 1
 402.52 46.4805 l 1x9980
 402.52 9.78711 l 1
 402.52 -26.9062 l 1
 439.213 -26.9062 l 1
 475.906 -26.9062 l 1
 475.906 9.78711 l 1
 475.906 46.4805 l 1
 439.213 46.4805 l 1x79a0
 402.52 46.4805 l 1x99a0
 402.52 118.16 l 1
 402.52 189.84 l 1x3840
 330.84 189.84 l 1
 259.16 189.84 l 1
 259.16 225.68 l 1
 259.16 261.52 l 1x3980
 367.533 261.52 l 1
 475.906 261.52 l 1
 475.906 297.36 l 1
EndSplineSet
EndChar

StartChar: uni30AE
Encoding: 12462 12462 140
Width: 589
VWidth: 0
Flags: HW
LayerCount: 2
Back
Fore
SplineSet
39 154 m 1
 39 410 l 1
 295 410 l 1
 551 410 l 1
 551 154 l 1
 551 -102 l 1
 295 -102 l 1
 39 -102 l 1
 39 154 l 1
475.906 297.36 m 1
 475.906 333.2 l 1
 295.854 333.2 l 1
 115.8 333.2 l 1
 115.8 297.36 l 1
 115.8 261.52 l 1
 187.48 261.52 l 1
 259.16 261.52 l 1
 259.16 225.68 l 1
 259.16 189.84 l 1
 187.48 189.84 l 1
 115.8 189.84 l 1
 115.8 154 l 1
 115.8 118.16 l 1
 223.32 118.16 l 1
 330.84 118.16 l 1
 330.84 82.3203 l 1
 330.84 46.4805 l 1
 295 46.4805 l 1
 259.16 46.4805 l 1
 259.16 9.78711 l 1
 259.16 -26.9062 l 1
 295 -26.9062 l 1
 330.84 -26.9062 l 1
 330.84 9.78711 l 1
 330.84 46.4805 l 1
 366.68 46.4805 l 1
 402.52 46.4805 l 1
 402.52 9.78711 l 1
 402.52 -26.9062 l 1
 439.213 -26.9062 l 1
 475.906 -26.9062 l 1
 475.906 9.78711 l 1
 475.906 46.4805 l 1
 439.213 46.4805 l 1
 402.52 46.4805 l 1
 402.52 154 l 1
 402.52 261.52 l 1
 439.213 261.52 l 1
 475.906 261.52 l 1
 475.906 297.36 l 1
187.48 9.78711 m 1
 187.48 46.4805 l 1
 151.64 46.4805 l 1
 115.8 46.4805 l 1
 115.8 9.78711 l 1
 115.8 -26.9062 l 1
 151.64 -26.9062 l 1
 187.48 -26.9062 l 1
 187.48 9.78711 l 1
EndSplineSet
EndChar

StartChar: uni30E1
Encoding: 12513 12513 141
Width: 589
VWidth: 0
Flags: HW
LayerCount: 2
Back
Fore
SplineSet
187.48 154 m 1
 187.48 189.84 l 1
 223.32 189.84 l 1
 259.16 189.84 l 1
 259.16 154 l 1
 259.16 118.16 l 1
 223.32 118.16 l 1
 187.48 118.16 l 1
 187.48 154 l 1
39 154 m 1
 39 410 l 1
 295 410 l 1
 551 410 l 1
 551 154 l 1
 551 -102 l 1
 295 -102 l 1
 39 -102 l 1
 39 154 l 1
475.906 297.36 m 1
 475.906 333.2 l 1
 295.854 333.2 l 1
 115.8 333.2 l 1
 115.8 297.36 l 1
 115.8 261.52 l 1
 151.64 261.52 l 1
 187.48 261.52 l 1
 187.48 225.68 l 1
 187.48 189.84 l 1
 151.64 189.84 l 1
 115.8 189.84 l 1
 115.8 154 l 1
 115.8 118.16 l 1
 151.64 118.16 l 1
 187.48 118.16 l 1
 187.48 82.3203 l 1
 187.48 46.4805 l 1
 151.64 46.4805 l 1
 115.8 46.4805 l 1
 115.8 9.78711 l 1
 115.8 -26.9062 l 1
 151.64 -26.9062 l 1
 187.48 -26.9062 l 1
 187.48 9.78711 l 1
 187.48 46.4805 l 1
 223.32 46.4805 l 1
 259.16 46.4805 l 1
 259.16 9.78711 l 1
 259.16 -26.9062 l 1
 295 -26.9062 l 1
 330.84 -26.9062 l 1
 330.84 45.627 l 1
 330.84 118.16 l 1
 366.68 118.16 l 1
 402.52 118.16 l 1
 402.52 45.627 l 1
 402.52 -26.9062 l 1
 439.213 -26.9062 l 1
 475.906 -26.9062 l 1
 475.906 81.4668 l 1
 475.906 189.84 l 1
 403.373 189.84 l 1
 330.84 189.84 l 1
 330.84 225.68 l 1
 330.84 261.52 l 1
 403.373 261.52 l 1
 475.906 261.52 l 1
 475.906 297.36 l 1
EndSplineSet
EndChar

StartChar: uni3082
Encoding: 12418 12418 142
Width: 589
VWidth: 0
Flags: HW
LayerCount: 2
Back
Fore
SplineSet
259.16 225.68 m 1
 259.16 261.52 l 1
 295 261.52 l 1
 330.84 261.52 l 1
 330.84 225.68 l 1
 330.84 189.84 l 1
 295 189.84 l 1
 259.16 189.84 l 1
 259.16 225.68 l 1
39 154 m 1
 39 410 l 1
 295 410 l 1
 551 410 l 1
 551 154 l 1
 551 -102 l 1
 295 -102 l 1
 39 -102 l 1
 39 154 l 1
475.906 297.36 m 1
 475.906 333.2 l 1
 295.854 333.2 l 1
 115.8 333.2 l 1
 115.8 297.36 l 1
 115.8 261.52 l 1
 151.64 261.52 l 1
 187.48 261.52 l 1
 187.48 225.68 l 1
 187.48 189.84 l 1
 151.64 189.84 l 1
 115.8 189.84 l 1
 115.8 154 l 1
 115.8 118.16 l 1
 187.48 118.16 l 1
 259.16 118.16 l 1
 259.16 45.627 l 1
 259.16 -26.9062 l 1
 295 -26.9062 l 1
 330.84 -26.9062 l 1
 330.84 9.78711 l 1
 330.84 46.4805 l 1
 366.68 46.4805 l 1
 402.52 46.4805 l 1
 402.52 9.78711 l 1
 402.52 -26.9062 l 1
 439.213 -26.9062 l 1
 475.906 -26.9062 l 1
 475.906 45.627 l 1
 475.906 118.16 l 1
 439.213 118.16 l 1
 402.52 118.16 l 1
 402.52 189.84 l 1
 402.52 261.52 l 1
 439.213 261.52 l 1
 475.906 261.52 l 1
 475.906 297.36 l 1
187.48 9.78711 m 1
 187.48 46.4805 l 1
 151.64 46.4805 l 1
 115.8 46.4805 l 1
 115.8 9.78711 l 1
 115.8 -26.9062 l 1
 151.64 -26.9062 l 1
 187.48 -26.9062 l 1
 187.48 9.78711 l 1
EndSplineSet
EndChar

StartChar: uni30E6
Encoding: 12518 12518 143
Width: 589
VWidth: 0
Flags: HW
LayerCount: 2
Back
Fore
SplineSet
39 154 m 1
 39 410 l 1
 295 410 l 1
 551 410 l 1
 551 154 l 1
 551 -102 l 1
 295 -102 l 1
 39 -102 l 1
 39 154 l 1
475.906 297.36 m 1
 475.906 333.2 l 1
 295.854 333.2 l 1
 115.8 333.2 l 1
 115.8 297.36 l 1
 115.8 261.52 l 1
 187.48 261.52 l 1
 259.16 261.52 l 1
 259.16 189.84 l 1
 259.16 118.16 l 1
 223.32 118.16 l 1
 187.48 118.16 l 1
 187.48 154 l 1
 187.48 189.84 l 1
 151.64 189.84 l 1
 115.8 189.84 l 1
 115.8 154 l 1
 115.8 118.16 l 1
 151.64 118.16 l 1
 187.48 118.16 l 1
 187.48 82.3203 l 1
 187.48 46.4805 l 1
 151.64 46.4805 l 1
 115.8 46.4805 l 1
 115.8 9.78711 l 1
 115.8 -26.9062 l 1
 151.64 -26.9062 l 1
 187.48 -26.9062 l 1
 187.48 9.78711 l 1
 187.48 46.4805 l 1
 223.32 46.4805 l 1
 259.16 46.4805 l 1
 259.16 9.78711 l 1
 259.16 -26.9062 l 1
 295 -26.9062 l 1
 330.84 -26.9062 l 1
 330.84 81.4668 l 1
 330.84 189.84 l 1
 366.68 189.84 l 1
 402.52 189.84 l 1
 402.52 225.68 l 1
 402.52 261.52 l 1
 439.213 261.52 l 1
 475.906 261.52 l 1
 475.906 297.36 l 1
475.906 9.78711 m 1
 475.906 46.4805 l 1
 439.213 46.4805 l 1
 402.52 46.4805 l 1
 402.52 9.78711 l 1
 402.52 -26.9062 l 1
 439.213 -26.9062 l 1
 475.906 -26.9062 l 1
 475.906 9.78711 l 1
EndSplineSet
EndChar

StartChar: uni30E3
Encoding: 12515 12515 144
Width: 589
VWidth: 0
Flags: HW
LayerCount: 2
Back
Fore
SplineSet
187.48 154 m 1
 187.48 189.84 l 1
 223.32 189.84 l 1
 259.16 189.84 l 1
 259.16 154 l 1
 259.16 118.16 l 1
 223.32 118.16 l 1
 187.48 118.16 l 1
 187.48 154 l 1
39 154 m 1
 39 410 l 1
 295 410 l 1
 551 410 l 1
 551 154 l 1
 551 -102 l 1
 295 -102 l 1
 39 -102 l 1
 39 154 l 1
475.906 297.36 m 1
 475.906 333.2 l 1
 295.854 333.2 l 1
 115.8 333.2 l 1
 115.8 297.36 l 1
 115.8 261.52 l 1
 151.64 261.52 l 1
 187.48 261.52 l 1
 187.48 225.68 l 1
 187.48 189.84 l 1
 151.64 189.84 l 1
 115.8 189.84 l 1
 115.8 154 l 1
 115.8 118.16 l 1
 151.64 118.16 l 1
 187.48 118.16 l 1
 187.48 82.3203 l 1
 187.48 46.4805 l 1
 151.64 46.4805 l 1
 115.8 46.4805 l 1
 115.8 9.78711 l 1
 115.8 -26.9062 l 1
 151.64 -26.9062 l 1
 187.48 -26.9062 l 1
 187.48 9.78711 l 1
 187.48 46.4805 l 1
 223.32 46.4805 l 1
 259.16 46.4805 l 1
 259.16 9.78711 l 1
 259.16 -26.9062 l 1
 295 -26.9062 l 1
 330.84 -26.9062 l 1
 330.84 45.627 l 1
 330.84 118.16 l 1
 366.68 118.16 l 1
 402.52 118.16 l 1
 402.52 45.627 l 1
 402.52 -26.9062 l 1
 439.213 -26.9062 l 1
 475.906 -26.9062 l 1
 475.906 45.627 l 1
 475.906 118.16 l 1
 439.213 118.16 l 1
 402.52 118.16 l 1
 402.52 154 l 1
 402.52 189.84 l 1
 330.84 189.84 l 1
 259.16 189.84 l 1
 259.16 225.68 l 1
 259.16 261.52 l 1
 367.533 261.52 l 1
 475.906 261.52 l 1
 475.906 297.36 l 1
EndSplineSet
EndChar

StartChar: uni30E8
Encoding: 12520 12520 145
Width: 589
VWidth: 0
Flags: HW
LayerCount: 2
Back
Fore
SplineSet
39 154 m 1
 39 410 l 1
 295 410 l 1
 551 410 l 1
 551 154 l 1
 551 -102 l 1
 295 -102 l 1
 39 -102 l 1
 39 154 l 1
475.906 297.36 m 1
 475.906 333.2 l 1
 295.854 333.2 l 1
 115.8 333.2 l 1
 115.8 297.36 l 1
 115.8 261.52 l 1
 223.32 261.52 l 1
 330.84 261.52 l 1
 330.84 225.68 l 1
 330.84 189.84 l 1
 295 189.84 l 1
 259.16 189.84 l 1
 259.16 154 l 1
 259.16 118.16 l 1
 223.32 118.16 l 1
 187.48 118.16 l 1
 187.48 154 l 1
 187.48 189.84 l 1
 151.64 189.84 l 1
 115.8 189.84 l 1
 115.8 154 l 1
 115.8 118.16 l 1
 151.64 118.16 l 1
 187.48 118.16 l 1
 187.48 82.3203 l 1
 187.48 46.4805 l 1
 151.64 46.4805 l 1
 115.8 46.4805 l 1
 115.8 9.78711 l 1
 115.8 -26.9062 l 1
 151.64 -26.9062 l 1
 187.48 -26.9062 l 1
 187.48 9.78711 l 1
 187.48 46.4805 l 1
 223.32 46.4805 l 1
 259.16 46.4805 l 1
 259.16 9.78711 l 1
 259.16 -26.9062 l 1
 295 -26.9062 l 1
 330.84 -26.9062 l 1
 330.84 81.4668 l 1
 330.84 189.84 l 1
 366.68 189.84 l 1
 402.52 189.84 l 1
 402.52 81.4668 l 1
 402.52 -26.9062 l 1
 439.213 -26.9062 l 1
 475.906 -26.9062 l 1
 475.906 81.4668 l 1
 475.906 189.84 l 1
 439.213 189.84 l 1
 402.52 189.84 l 1
 402.52 225.68 l 1
 402.52 261.52 l 1
 439.213 261.52 l 1
 475.906 261.52 l 1
 475.906 297.36 l 1
EndSplineSet
EndChar

StartChar: uni30DD
Encoding: 12509 12509 146
Width: 589
VWidth: 0
Flags: HW
LayerCount: 2
Back
Fore
SplineSet
187.48 154 m 1
 187.48 189.84 l 1
 223.32 189.84 l 1
 259.16 189.84 l 1
 259.16 154 l 1
 259.16 118.16 l 1
 223.32 118.16 l 1
 187.48 118.16 l 1
 187.48 154 l 1
39 154 m 1
 39 410 l 1
 295 410 l 1
 551 410 l 1
 551 154 l 1
 551 -102 l 1
 295 -102 l 1
 39 -102 l 1
 39 154 l 1
475.906 225.68 m 1
 475.906 333.2 l 1
 295.854 333.2 l 1
 115.8 333.2 l 1
 115.8 297.36 l 1
 115.8 261.52 l 1
 151.64 261.52 l 1
 187.48 261.52 l 1
 187.48 225.68 l 1
 187.48 189.84 l 1
 151.64 189.84 l 1
 115.8 189.84 l 1
 115.8 154 l 1
 115.8 118.16 l 1
 151.64 118.16 l 1
 187.48 118.16 l 1
 187.48 82.3203 l 1
 187.48 46.4805 l 1
 151.64 46.4805 l 1
 115.8 46.4805 l 1
 115.8 9.78711 l 1
 115.8 -26.9062 l 1
 151.64 -26.9062 l 1
 187.48 -26.9062 l 1
 187.48 9.78711 l 1
 187.48 46.4805 l 1
 223.32 46.4805 l 1
 259.16 46.4805 l 1
 259.16 9.78711 l 1
 259.16 -26.9062 l 1
 295 -26.9062 l 1
 330.84 -26.9062 l 1
 330.84 45.627 l 1
 330.84 118.16 l 1
 403.373 118.16 l 1
 475.906 118.16 l 1
 475.906 225.68 l 1
475.906 9.78711 m 1
 475.906 46.4805 l 1
 439.213 46.4805 l 1
 402.52 46.4805 l 1
 402.52 9.78711 l 1
 402.52 -26.9062 l 1
 439.213 -26.9062 l 1
 475.906 -26.9062 l 1
 475.906 9.78711 l 1
EndSplineSet
EndChar

StartChar: uni30BA
Encoding: 12474 12474 147
Width: 589
VWidth: 0
Flags: HW
LayerCount: 2
Back
Fore
SplineSet
330.84 189.84 m 1
 330.84 261.52 l 1
 366.68 261.52 l 1
 402.52 261.52 l 1
 402.52 189.84 l 1
 402.52 118.16 l 1
 366.68 118.16 l 1
 330.84 118.16 l 1
 330.84 189.84 l 1
39 154 m 1
 39 410 l 1
 295 410 l 1
 551 410 l 1
 551 154 l 1
 551 -102 l 1
 295 -102 l 1
 39 -102 l 1
 39 154 l 1
475.906 225.68 m 1
 475.906 333.2 l 1
 295.854 333.2 l 1
 115.8 333.2 l 1
 115.8 297.36 l 1
 115.8 261.52 l 1
 187.48 261.52 l 1
 259.16 261.52 l 1
 259.16 225.68 l 1
 259.16 189.84 l 1
 187.48 189.84 l 1
 115.8 189.84 l 1
 115.8 154 l 1
 115.8 118.16 l 1
 223.32 118.16 l 1
 330.84 118.16 l 1
 330.84 82.3203 l 1
 330.84 46.4805 l 1
 295 46.4805 l 1
 259.16 46.4805 l 1
 259.16 9.78711 l 1
 259.16 -26.9062 l 1
 295 -26.9062 l 1
 330.84 -26.9062 l 1
 330.84 9.78711 l 1
 330.84 46.4805 l 1
 366.68 46.4805 l 1
 402.52 46.4805 l 1
 402.52 9.78711 l 1
 402.52 -26.9062 l 1
 439.213 -26.9062 l 1
 475.906 -26.9062 l 1
 475.906 9.78711 l 1
 475.906 46.4805 l 1
 439.213 46.4805 l 1
 402.52 46.4805 l 1
 402.52 82.3203 l 1
 402.52 118.16 l 1
 439.213 118.16 l 1
 475.906 118.16 l 1
 475.906 225.68 l 1
187.48 9.78711 m 1
 187.48 46.4805 l 1
 151.64 46.4805 l 1
 115.8 46.4805 l 1
 115.8 9.78711 l 1
 115.8 -26.9062 l 1
 151.64 -26.9062 l 1
 187.48 -26.9062 l 1
 187.48 9.78711 l 1
EndSplineSet
EndChar

